<?xml version="1.0" encoding="UTF-8"?>
<svg xmlns="http://www.w3.org/2000/svg" xmlns:xlink="http://www.w3.org/1999/xlink" width="157px" height="55px" viewBox="0 0 157 55" version="1.1">
<g id="surface1">
<g opacity="1">
<path d="M88.8806+22.3373C88.2406+21.8173+87.6006+21.4323+86.9606+21.1823C86.3206+20.9323+85.7006+20.8073+85.1006+20.8073C84.3406+20.8073+83.7206+20.9873+83.2406+21.3473C82.7606+21.7073+82.5206+22.1773+82.5206+22.7573C82.5206+23.1573+82.6406+23.4873+82.8806+23.7473C83.1206+24.0073+83.4356+24.2323+83.8256+24.4223C84.2156+24.6123+84.6556+24.7773+85.1456+24.9173C85.6356+25.0573+86.1206+25.2073+86.6006+25.3673C88.5206+26.0073+89.9256+26.8623+90.8156+27.9323C91.7056+29.0023+92.1506+30.3973+92.1506+32.1173C92.1506+33.2773+91.9556+34.3273+91.5656+35.2673C91.1756+36.2073+90.6056+37.0123+89.8556+37.6823C89.1056+38.3523+88.1856+38.8723+87.0956+39.2423C86.0056+39.6123+84.7706+39.7973+83.3906+39.7973C80.5306+39.7973+77.8806+38.9473+75.4406+37.2473L77.9606+32.5073C78.8406+33.2873+79.7106+33.8673+80.5706+34.2473C81.4306+34.6273+82.2806+34.8173+83.1206+34.8173C84.0806+34.8173+84.7956+34.5973+85.2656+34.1573C85.7356+33.7173+85.9706+33.2173+85.9706+32.6573C85.9706+32.3173+85.9106+32.0223+85.7906+31.7723C85.6706+31.5223+85.4706+31.2923+85.1906+31.0823C84.9106+30.8723+84.5456+30.6773+84.0956+30.4973C83.6456+30.3173+83.1006+30.1173+82.4606+29.8973C81.7006+29.6573+80.9556+29.3923+80.2256+29.1023C79.4956+28.8123+78.8456+28.4273+78.2756+27.9473C77.7056+27.4673+77.2456+26.8623+76.8956+26.1323C76.5456+25.4023+76.3706+24.4773+76.3706+23.3573C76.3706+22.2373+76.5556+21.2223+76.9256+20.3123C77.2956+19.4023+77.8156+18.6223+78.4856+17.9723C79.1556+17.3223+79.9756+16.8173+80.9456+16.4573C81.9156+16.0973+83.0006+15.9173+84.2006+15.9173C85.3206+15.9173+86.4906+16.0723+87.7106+16.3823C88.9306+16.6923+90.1006+17.1473+91.2206+17.7473L88.8806+22.3373Z" opacity="1" fill="#ffffff"/>
<path fill="#ffffff" opacity="1" d="M104.721+34.6073L106.011+34.6073C107.491+34.6073+108.551+34.4173+109.191+34.0373C109.831+33.6573+110.151+33.0473+110.151+32.2073C110.151+31.3673+109.831+30.7573+109.191+30.3773C108.551+29.9973+107.491+29.8073+106.011+29.8073L104.721+29.8073L104.721+34.6073ZM104.721+25.4273L105.801+25.4273C107.641+25.4273+108.561+24.6973+108.561+23.2373C108.561+21.7773+107.641+21.0473+105.801+21.0473L104.721+21.0473L104.721+25.4273ZM98.8406+16.5473L107.601+16.5473C109.681+16.5473+111.261+17.0473+112.341+18.0473C113.421+19.0473+113.961+20.4873+113.961+22.3673C113.961+23.5073+113.756+24.4523+113.346+25.2023C112.936+25.9523+112.311+26.5873+111.471+27.1073C112.311+27.2673+113.026+27.5123+113.616+27.8423C114.206+28.1723+114.686+28.5773+115.056+29.0573C115.426+29.5373+115.691+30.0773+115.851+30.6773C116.011+31.2773+116.091+31.9173+116.091+32.5973C116.091+33.6573+115.906+34.5973+115.536+35.4173C115.166+36.2373+114.646+36.9273+113.976+37.4873C113.306+38.0473+112.491+38.4673+111.531+38.7473C110.571+39.0273+109.491+39.1673+108.291+39.1673L98.8406+39.1673L98.8406+16.5473Z"/>
<path fill="#ffffff" opacity="1" d="M138.891+24.1073C137.531+22.4473+135.851+21.6173+133.851+21.6173C132.971+21.6173+132.156+21.7773+131.406+22.0973C130.656+22.4173+130.011+22.8523+129.471+23.4023C128.931+23.9523+128.506+24.6073+128.196+25.3673C127.886+26.1273+127.731+26.9473+127.731+27.8273C127.731+28.7273+127.886+29.5573+128.196+30.3173C128.506+31.0773+128.936+31.7373+129.486+32.2973C130.036+32.8573+130.681+33.2973+131.421+33.6173C132.161+33.9373+132.961+34.0973+133.821+34.0973C135.701+34.0973+137.391+33.2973+138.891+31.6973L138.891+38.6573L138.291+38.8673C137.391+39.1873+136.551+39.4223+135.771+39.5723C134.991+39.7223+134.221+39.7973+133.461+39.7973C131.901+39.7973+130.406+39.5023+128.976+38.9123C127.546+38.3223+126.286+37.4923+125.196+36.4223C124.106+35.3523+123.231+34.0823+122.571+32.6123C121.911+31.1423+121.581+29.5373+121.581+27.7973C121.581+26.0573+121.906+24.4623+122.556+23.0123C123.206+21.5623+124.076+20.3123+125.166+19.2623C126.256+18.2123+127.521+17.3923+128.961+16.8023C130.401+16.2123+131.911+15.9173+133.491+15.9173C134.391+15.9173+135.276+16.0123+136.146+16.2023C137.016+16.3923+137.931+16.6873+138.891+17.0873L138.891+24.1073Z"/>
</g>
<path fill-opacity="0.318708" stroke-linejoin="round" stroke-linecap="round" stroke="#ffffff" fill="#ffffff" opacity="1" stroke-width="1.1" d="M20.0337+5.13895L58.5935+5.13895C60.9123+5.13895+62.792+7.03624+62.792+9.37667L62.792+47.8579C62.792+50.1983+60.9123+52.0956+58.5935+52.0956L20.0337+52.0956C17.715+52.0956+15.8353+50.1983+15.8353+47.8579L15.8353+9.37667C15.8353+7.03624+17.715+5.13895+20.0337+5.13895Z"/>
<path stroke-linecap="round" stroke-width="0.1" stroke="#694ed6" d="M46.0873+37.5477L32.5399+37.5477L57.3769+8.41644L46.0873+37.5477Z" opacity="0.75" fill="#694ed6" stroke-linejoin="round"/>
<path stroke-width="0.1" stroke="#ffa76d" d="M21.2503+8.41644L46.0873+37.5477L32.5399+37.5477L21.2503+8.41644Z" fill="#ffa76d" opacity="0.85" stroke-linecap="round" stroke-linejoin="round"/>
<path fill="#b4a6ea" opacity="0.85" d="M57.3769+8.41644L39.3136+37.5477L39.3136+15.139" stroke-width="0.1" stroke-linejoin="round" stroke-linecap="round" stroke="#b4a6ea"/>
<path stroke-width="0.1" opacity="0.85" stroke-linejoin="round" d="M46.0873+39.7886L46.0873+44.2703L41.5715+48.7521L37.0557+48.7521L32.5399+44.2703L32.5399+39.7886L46.0873+39.7886Z" stroke="#ffffff" fill="#b4a6ea" stroke-linecap="round"/>
<path stroke-linecap="round" stroke-linejoin="round" stroke-width="0.1" fill="#694ed6" opacity="0.517914" d="M37.0557+48.7521L41.5715+48.7521L46.0873+44.2703L46.0873+39.7886L37.0557+48.7521Z" stroke="#694ed6"/>
<path fill="#5bc1d7" d="M32.5399+44.2703L37.0557+48.7521L41.5715+48.7521L32.5399+39.7886L32.5399+44.2703Z" stroke-linecap="round" stroke="#5bc1d7" stroke-linejoin="round" stroke-width="0.1" opacity="0.353008"/>
<path stroke="#f7d991" fill="#f7d991" stroke-linecap="round" stroke-width="0.1" stroke-linejoin="round" d="M39.3136+37.5477L39.3136+15.139L21.2503+8.41644L39.3136+37.5477Z" opacity="0.85"/>
<path opacity="0.251862" stroke="#694ed6" stroke-linecap="round" stroke-linejoin="round" d="M46.0873+37.5477L39.3136+37.5477L42.2093+32.9255" stroke-width="0.1" fill="#694ed6"/>
<path stroke-linecap="round" opacity="1" stroke="#ffffff" fill="none" stroke-width="1" d="M32.5399+39.7886L46.0873+39.7886" stroke-linejoin="round"/>
<path stroke-linecap="round" fill="none" d="M32.5399+39.7886L32.5399+44.2703" stroke-width="1" opacity="1" stroke-linejoin="round" stroke="#ffffff"/>
<path stroke-width="1.1" d="M46.0873+39.7886L46.0873+44.2703" stroke-linejoin="round" stroke="#ffffff" fill="none" stroke-linecap="round" opacity="1"/>
<path stroke-linecap="round" stroke="#ffffff" opacity="1" fill="none" stroke-linejoin="round" stroke-width="1" d="M32.5399+44.2703L37.0557+48.7521"/>
<path stroke-width="1" stroke-linecap="round" fill="none" stroke="#ffffff" stroke-linejoin="round" d="M41.5715+48.7521L46.0873+44.2703" opacity="1"/>
<path stroke-linecap="round" stroke-linejoin="round" opacity="1" stroke-width="1.1" fill="none" d="M37.0771+48.8181L41.5929+48.8181" stroke="#ffffff"/>
<path stroke-linecap="round" stroke-linejoin="round" d="M39.3136+15.139L57.3769+8.41644" stroke="#ffffff" opacity="1" stroke-width="1" fill="none"/>
<path stroke-linecap="round" stroke="#ffffff" fill="none" stroke-linejoin="round" stroke-width="1" opacity="1" d="M39.3136+15.139L21.2503+8.41644"/>
<path stroke-width="1" opacity="1" stroke-linecap="round" d="M57.3769+8.41644L46.0873+37.5477" fill="none" stroke="#ffffff" stroke-linejoin="round"/>
<path d="M21.2503+8.41644L32.5399+37.5477" stroke="#ffffff" opacity="1" stroke-linejoin="round" stroke-linecap="round" stroke-width="1" fill="none"/>
<path stroke-linecap="round" fill="none" opacity="1" stroke="#ffffff" stroke-linejoin="round" d="M32.6516+37.6655L46.1991+37.6655" stroke-width="1"/>
</g>
</svg>
