<?xml version="1.0" encoding="UTF-8" standalone="no"?> <!-- Created with Vectornator for iOS (http://vectornator.io/) --><!DOCTYPE svg PUBLIC "-//W3C//DTD SVG 1.1//EN" "http://www.w3.org/Graphics/SVG/1.1/DTD/svg11.dtd">
<svg xmlns="http://www.w3.org/2000/svg" xml:space="preserve" style="fill-rule:nonzero;clip-rule:evenodd;stroke-linecap:round;stroke-linejoin:round;" height="100%" xmlns:vectornator="http://vectornator.io" viewBox="0 0 1280 720" xmlns:xlink="http://www.w3.org/1999/xlink" width="100%" version="1.1">
<metadata>
<vectornator:setting key="WDSnapToGrid" value="true"/>
<vectornator:setting key="WDCMYKEnabledKey" value="false"/>
<vectornator:setting value="false" key="WDOutlineMode"/>
<vectornator:setting value="false" key="VNPencilOnly"/>
<vectornator:setting key="VNSnapToGuides" value="true"/>
<vectornator:setting key="WDUnits" value="Pixels"/>
<vectornator:setting value="false" key="WDSnapToPoints"/>
<vectornator:setting value="true" key="WDGuidesVisible"/>
<vectornator:setting key="WDDisplayWhiteBackground" value="false"/>
<vectornator:setting key="WDRulersVisible" value="true"/>
<vectornator:setting key="UndoHistoryDisabled" value="false"/>
<vectornator:setting key="WDIsolateActiveLayer" value="false"/>
<vectornator:setting key="IsTimeLapseWatermarkDisabled" value="false"/>
<vectornator:setting value="true" key="VNDimensionsVisible"/>
<vectornator:setting value="false" key="WDSnapToEdges"/>
<vectornator:setting value="false" key="WDDynamicGuides"/>
</metadata>
<defs/>
<g vectornator:layerName="BG" visibility="hidden" id="BG">
<path stroke-linecap="round" stroke="#fafafa" fill="#fafafa" d="M-0.000137294-2.26121L1300-2.26121L1300+740L-0.000137294+740L-0.000137294-2.26121Z" opacity="1" stroke-width="1" stroke-linejoin="round"/>
</g>
<g vectornator:layerName="Squares" id="Squares">
<path fill="#a9e0b7" opacity="1" d="M865.727+280L1214.27+280C1217.44+280+1220+282.564+1220+285.727L1220+634.273C1220+637.436+1217.44+640+1214.27+640L865.727+640C862.564+640+860+637.436+860+634.273L860+285.727C860+282.564+862.564+280+865.727+280Z"/>
<path opacity="1" d="M465.727+280L814.273+280C817.436+280+820+282.564+820+285.727L820+634.273C820+637.436+817.436+640+814.273+640L465.727+640C462.564+640+460+637.436+460+634.273L460+285.727C460+282.564+462.564+280+465.727+280Z" fill="#ade0eb"/>
<path d="M66.0281+280L413.972+280C417.301+280+420+283.125+420+286.98L420+633.02C420+636.875+417.301+640+413.972+640L66.0281+640C62.6989+640+60+636.875+60+633.02L60+286.98C60+283.125+62.6989+280+66.0281+280Z" opacity="1" fill="#f7d991"/>
</g>
<g id="Layer 1" vectornator:layerName="Layer 1">
<g opacity="1">
<path d="M1074.44+235.886C1076.97+237.791+1078.42+240.797+1080.67+243.022C1085.49+247.775+1093.16+248.189+1099.79+246.831C1106.42+245.474+1112.75+242.658+1119.48+241.969C1131.64+240.724+1144.26+247.223+1150.3+257.853C1151.95+260.755+1153.14+263.965+1153.4+267.295C1153.97+274.913+1149.38+282.289+1143.06+286.574C1132.36+293.823+1117.62+292.92+1106.12+287.03C1094.62+281.139+1085.87+271.004+1078.55+260.36C1076.1+256.806+1073.69+253.083+1070.19+250.56C1066.69+248.037+1061.74+246.983+1058.05+249.221C1057.3+249.674+1057.35+242.378+1057.62+241.661C1058.36+239.649+1059.72+238.618+1061.32+237.273C1064.99+234.179+1070.21+232.7+1074.44+235.886" opacity="1" fill="#0c1153"/>
<path d="M1082.67+331.918C1092.4+336.97+1095.46+339.481+1109.98+338.575C1111.17+338.5+1116.29+337.26+1116.97+336.27C1118.37+334.227+1111.46+324.502+1109.68+322.782C1103.24+316.585+1099.83+315.122+1090.68+309.588C1085.73+306.593+1080.78+303.594+1075.61+300.986C1070.13+298.218+1063.25+295.514+1057.26+298.475C1052.73+300.718+1049.73+305.559+1051.55+310.49C1055.31+320.706+1073.98+327.402+1082.67+331.918" fill="#ffb5ac" opacity="1"/>
<path fill="#ffa49a" opacity="1" d="M1142.64+270.904C1142.35+268.079+1142.28+264.729+1144.53+262.995C1148.11+265.319+1151.63+267.747+1155.08+270.273C1155.56+270.626+1156.05+270.989+1156.4+271.474C1156.86+272.109+1157.04+272.903+1157.13+273.681C1157.62+277.567+1156.31+281.528+1154.12+284.776C1153.38+285.869+1152.49+286.934+1151.28+287.456C1148.34+288.72+1144.41+286.636+1143.93+283.621C1143.26+279.437+1143.07+275.119+1142.64+270.904"/>
<path d="M1128.23+235.891L1164.29+298.782C1164.99+300.005+1164.67+301.563+1163.53+302.403C1162.17+303.409+1160.24+302.978+1159.43+301.491L1125.36+238.593L1128.23+235.891Z" opacity="1" fill="#00b8a1"/>
<path fill="#e1f0f9" d="M1120.53+246.528C1120.12+246.072+1119.72+245.59+1119.32+245.119C1119.38+245.037+1119.43+244.959+1119.48+244.878C1119.77+244.253+1120.04+243.597+1120.31+242.962C1120.83+243.557+1121.35+244.128+1121.88+244.681C1121.83+244.775+1121.79+244.875+1121.74+244.969C1121.51+245.745+1121.26+246.501+1121.01+247.26C1120.85+247.02+1120.69+246.767+1120.53+246.528M1118.44+244.083C1117.65+243.14+1116.88+242.166+1116.11+241.179C1116.4+240.62+1116.69+240.059+1116.99+239.505L1117.18+239.007C1117.76+239.798+1118.35+240.576+1118.94+241.325C1119.08+241.501+1119.23+241.662+1119.37+241.834C1119.12+242.401+1118.88+242.988+1118.63+243.546L1118.44+244.088C1118.44+244.086+1118.44+244.085+1118.44+244.083M1114.34+238.869C1113.85+238.197+1113.35+237.51+1112.86+236.821C1113.1+236.09+1113.35+235.362+1113.62+234.67C1113.67+234.466+1113.74+234.274+1113.79+234.072C1114.61+235.333+1115.44+236.567+1116.28+237.763L1116.1+238.244C1115.91+238.971+1115.72+239.686+1115.52+240.405C1115.13+239.894+1114.73+239.391+1114.34+238.869M1110.38+233.26C1110.09+232.83+1109.81+232.388+1109.53+231.954L1110.06+230.419C1110.21+229.869+1110.37+229.339+1110.52+228.794C1111.31+230.117+1112.11+231.435+1112.93+232.73C1112.85+232.999+1112.77+233.255+1112.69+233.53C1112.55+234.352+1112.42+235.189+1112.29+236.026C1111.64+235.119+1111.01+234.197+1110.38+233.26M1107.94+222.584C1107.59+221.999+1107.23+221.421+1106.89+220.839C1107.11+220.317+1107.34+219.794+1107.57+219.283C1107.66+218.999+1107.76+218.722+1107.85+218.44C1108.07+218.825+1108.3+219.221+1108.52+219.605C1109.27+220.867+1110.03+222.109+1110.79+223.349C1110.79+223.355+1110.79+223.361+1110.78+223.369C1110.52+224.261+1110.28+225.183+1110.03+226.089C1109.33+224.922+1108.63+223.755+1107.94+222.584M1105.53+218.599C1105.77+217.623+1106.02+216.676+1106.3+215.765C1106.54+216.181+1106.78+216.592+1107.02+217.006C1106.9+217.371+1106.78+217.729+1106.66+218.097C1106.55+218.699+1106.43+219.297+1106.31+219.897C1106.05+219.464+1105.79+219.03+1105.53+218.599M1104.54+206.559C1104.56+206.495+1104.58+206.436+1104.6+206.371C1104.78+206.715+1104.95+207.056+1105.13+207.401L1106.62+209.797C1106.31+210.853+1106.04+211.945+1105.79+213.069C1105.08+212.024+1104.38+210.968+1103.66+209.917C1103.94+208.782+1104.22+207.648+1104.54+206.559M1106.24+201.222C1106.89+202.416+1107.56+203.61+1108.22+204.794C1107.79+206.003+1107.38+207.243+1106.99+208.521L1105.67+206.379C1105.41+206.04+1105.16+205.695+1104.91+205.353C1105.33+203.952+1105.77+202.574+1106.24+201.222M1113.15+190.964C1113.1+191.153+1113.04+191.345+1112.98+191.534L1111.06+188.271L1111.2+187.907C1111.85+188.925+1112.5+189.945+1113.15+190.964M1112.35+183.863C1112.83+184.774+1113.32+185.68+1113.8+186.596L1114.28+187.356C1114.27+187.376+1114.26+187.395+1114.25+187.413C1114.05+188.027+1113.86+188.652+1113.66+189.275C1113.02+188.34+1112.38+187.404+1111.73+186.484C1111.93+185.609+1112.14+184.739+1112.35+183.863M1115.77+186.172C1116.1+186.842+1116.43+187.502+1116.76+188.176L1117.59+189.386C1117.45+189.617+1117.32+189.849+1117.18+190.078C1117.15+190.034+1117.12+189.986+1117.1+189.941L1115.47+187.366C1115.56+186.967+1115.66+186.557+1115.77+186.172M1118.58+190.848L1120.3+193.379L1119.9+194.516C1119.25+193.454+1118.6+192.382+1117.95+191.331C1118.04+190.997+1118.14+190.662+1118.23+190.33L1118.58+190.848ZM1122.22+196.19L1123.97+198.758C1123.9+198.997+1123.84+199.247+1123.78+199.483C1123.71+199.852+1123.63+200.205+1123.55+200.569C1123.24+200.034+1122.93+199.485+1122.61+198.952C1121.99+197.915+1121.35+196.906+1120.73+195.878C1120.82+195.375+1120.9+194.87+1120.98+194.367L1122.22+196.19ZM1125.86+201.534L1126.44+202.393L1125.92+204.536L1125.91+204.602C1125.41+203.747+1124.92+202.894+1124.42+202.046C1124.52+201.532+1124.64+201.026+1124.74+200.508C1124.76+200.328+1124.77+200.145+1124.79+199.966L1125.86+201.534ZM1127.68+204.211C1128.35+204.931+1129.02+205.648+1129.71+206.306C1129.52+207.042+1129.32+207.779+1129.14+208.527L1128.84+209.672L1128+208.19C1127.6+207.484+1127.19+206.801+1126.78+206.1L1126.89+205.52C1126.95+204.781+1127+204.039+1127.06+203.299L1127.68+204.211ZM1128.4+211.336C1128.31+211.849+1128.19+212.343+1128.1+212.854C1127.65+211.982+1127.22+211.104+1126.77+210.236C1126.58+209.905+1126.39+209.58+1126.2+209.249L1126.32+208.663L1126.52+207.566C1126.82+208.096+1127.13+208.61+1127.44+209.139L1128.49+211.001L1128.4+211.336ZM1130.21+220.983C1129.94+220.426+1129.66+219.87+1129.38+219.31L1128.33+217.526C1128.46+216.909+1128.58+216.279+1128.7+215.656L1128.96+216.05L1130.43+218.347C1130.6+218.622+1130.77+218.864+1130.93+219.114C1130.7+219.742+1130.46+220.367+1130.21+220.983M1129.12+225.061C1128.99+224.803+1128.87+224.547+1128.74+224.288L1127.33+221.842C1127.57+220.876+1127.81+219.916+1128.02+218.932L1128.84+220.322C1129.21+220.847+1129.58+221.375+1129.95+221.904C1129.68+222.968+1129.41+224.021+1129.12+225.061M1127.61+230.098C1127.32+229.575+1127.02+229.061+1126.74+228.521C1126.46+228.085+1126.2+227.626+1125.93+227.179C1126.3+225.87+1126.67+224.556+1127+223.21L1128.18+225.244C1128.39+225.55+1128.59+225.861+1128.8+226.168C1128.42+227.498+1128.03+228.81+1127.61+230.098M1126.7+232.813C1126.33+232.173+1125.95+231.534+1125.58+230.886C1125.41+230.64+1125.24+230.386+1125.08+230.137C1125.13+229.973+1125.18+229.819+1125.23+229.653C1125.35+229.269+1125.45+228.863+1125.57+228.475C1125.78+228.839+1126+229.213+1126.22+229.572C1126.58+230.058+1126.94+230.531+1127.31+230.997C1127.11+231.606+1126.91+232.213+1126.7+232.813M1126.41+233.689C1125.94+235.034+1125.44+236.354+1124.93+237.649C1124.82+237.434+1124.71+237.221+1124.6+237.004L1123.44+235.125C1123.87+233.899+1124.27+232.629+1124.67+231.362C1124.82+231.581+1124.97+231.804+1125.12+232.023C1125.56+232.557+1126+233.091+1126.43+233.624C1126.42+233.646+1126.42+233.668+1126.41+233.689M1123.68+240.694C1123.16+239.995+1122.64+239.285+1122.13+238.575C1122.43+237.819+1122.71+237.059+1123+236.287L1124.09+238.055C1124.23+238.249+1124.38+238.447+1124.52+238.643C1124.24+239.331+1123.96+240.019+1123.68+240.694M1121.57+240.055C1121.62+239.952+1121.65+239.839+1121.69+239.734C1122.19+240.425+1122.69+241.118+1123.2+241.804C1122.93+242.399+1122.66+242.982+1122.39+243.566C1122.39+243.564+1122.38+243.563+1122.38+243.561C1121.85+243.022+1121.32+242.449+1120.8+241.849C1121.05+241.248+1121.32+240.667+1121.57+240.055M1118.56+235.298C1119.21+236.232+1119.85+237.173+1120.5+238.091C1120.6+238.23+1120.7+238.363+1120.8+238.502C1120.76+238.589+1120.73+238.685+1120.7+238.772C1120.43+239.436+1120.13+240.069+1119.85+240.722C1119.67+240.5+1119.48+240.289+1119.3+240.062C1118.73+239.349+1118.17+238.605+1117.61+237.846L1118.56+235.298ZM1115.06+230.086C1115.93+231.414+1116.8+232.73+1117.68+234.027L1116.72+236.603C1115.86+235.381+1115.01+234.114+1114.17+232.816C1114.45+231.89+1114.75+230.979+1115.06+230.086M1114.19+228.764C1113.88+229.649+1113.59+230.55+1113.31+231.465C1112.49+230.166+1111.68+228.841+1110.87+227.502C1111.13+226.582+1111.38+225.648+1111.64+224.741C1112.49+226.097+1113.34+227.438+1114.19+228.764M1113.05+220.203L1114.61+222.726L1115.74+224.552C1115.35+225.545+1114.98+226.546+1114.61+227.57C1113.74+226.225+1112.88+224.869+1112.03+223.493C1112.36+222.388+1112.7+221.293+1113.05+220.203M1109.13+214.497C1109.17+214.358+1109.22+214.224+1109.27+214.085L1112.2+218.827C1111.85+219.909+1111.51+221.003+1111.18+222.101C1110.47+220.947+1109.76+219.791+1109.07+218.614C1108.79+218.149+1108.52+217.671+1108.25+217.202C1108.54+216.298+1108.83+215.389+1109.13+214.497M1110.07+208.016C1109.65+209.172+1109.24+210.344+1108.84+211.518L1108.82+211.487L1107.84+209.898C1108.21+208.649+1108.62+207.434+1109.05+206.24C1109.38+206.837+1109.73+207.424+1110.07+208.016M1109.69+200.861C1109.35+201.77+1109+202.685+1108.66+203.607C1107.99+202.413+1107.32+201.214+1106.66+200.009C1106.85+199.463+1107.03+198.907+1107.23+198.366C1107.34+198.062+1107.45+197.763+1107.56+197.46C1108.28+198.583+1108.98+199.722+1109.69+200.861M1111.24+196.726C1110.88+197.723+1110.5+198.711+1110.13+199.699C1109.42+198.56+1108.72+197.416+1108+196.293C1108.37+195.295+1108.75+194.296+1109.13+193.302L1111.24+196.726ZM1112.58+192.769C1112.29+193.704+1111.98+194.625+1111.66+195.53L1109.57+192.138C1109.78+191.595+1109.99+191.05+1110.2+190.505L1110.61+189.428L1112.58+192.769ZM1115.35+194.394L1115.12+194.942C1115.1+194.984+1115.09+195.028+1115.07+195.07L1113.92+193.123L1113.82+192.957C1113.89+192.741+1113.95+192.526+1114.02+192.31C1114.46+193.002+1114.9+193.7+1115.35+194.394M1122.89+203.636C1122.31+202.659+1121.72+201.675+1121.12+200.711C1120.72+200.059+1120.31+199.427+1119.91+198.783C1120.06+198.244+1120.22+197.713+1120.37+197.171C1120.94+198.102+1121.51+199.013+1122.07+199.952C1122.47+200.623+1122.86+201.317+1123.26+201.992C1123.14+202.545+1123.02+203.091+1122.89+203.636M1126.29+214.075L1125.46+212.674C1125.53+212.359+1125.62+212.059+1125.69+211.74L1125.8+211.175C1125.88+211.301+1125.96+211.425+1126.03+211.551L1127.81+214.291C1127.7+214.881+1127.59+215.476+1127.46+216.062L1126.29+214.075ZM1125.51+218.679C1125.15+218.076+1124.8+217.482+1124.45+216.881C1124.69+215.945+1124.91+214.984+1125.13+214.03L1125.75+215.073L1127.17+217.487C1126.96+218.466+1126.72+219.413+1126.48+220.373L1125.51+218.679ZM1123.63+223.199C1123.43+222.818+1123.22+222.429+1123.01+222.048C1123.38+220.781+1123.75+219.51+1124.1+218.21C1124.38+218.693+1124.67+219.166+1124.95+219.649L1126.16+221.742C1125.82+223.105+1125.45+224.439+1125.08+225.764C1124.6+224.919+1124.11+224.061+1123.63+223.199M1121.44+231.901L1120.39+230.194C1120.79+229.042+1121.17+227.869+1121.56+226.695C1121.61+226.776+1121.66+226.862+1121.72+226.943C1122.41+227.991+1123.11+229.022+1123.8+230.059C1123.41+231.303+1123.02+232.554+1122.59+233.76L1121.44+231.901ZM1118.28+221.624C1119.08+222.882+1119.89+224.121+1120.69+225.359C1120.31+226.521+1119.93+227.684+1119.54+228.825L1117.04+224.786C1117.46+223.736+1117.86+222.671+1118.28+221.624M1114.55+215.595C1114.72+215.878+1114.89+216.168+1115.06+216.451C1115.85+217.737+1116.65+219.002+1117.44+220.27C1117.02+221.312+1116.61+222.357+1116.19+223.408L1115.13+221.693L1113.44+218.96C1113.81+217.832+1114.18+216.715+1114.55+215.595M1113.71+214.194C1113.34+215.322+1112.96+216.446+1112.59+217.585L1109.69+212.888C1110.08+211.734+1110.48+210.58+1110.9+209.442C1111.83+211.04+1112.76+212.623+1113.71+214.194M1112.42+205.328C1113.33+206.845+1114.23+208.376+1115.13+209.919C1114.9+210.609+1114.67+211.303+1114.44+211.995C1114.33+212.318+1114.23+212.648+1114.12+212.971C1113.18+211.415+1112.25+209.847+1111.33+208.263C1111.69+207.282+1112.05+206.298+1112.42+205.328M1110.66+202.406C1110.97+202.912+1111.27+203.43+1111.58+203.938C1111.58+203.946+1111.57+203.953+1111.57+203.961C1111.21+204.911+1110.86+205.878+1110.51+206.837C1110.16+206.242+1109.82+205.653+1109.48+205.053C1109.83+204.103+1110.18+203.16+1110.54+202.218C1110.58+202.281+1110.62+202.343+1110.66+202.406M1113.17+199.894C1112.79+200.861+1112.4+201.817+1112.03+202.793C1111.75+202.324+1111.47+201.848+1111.18+201.382C1111.11+201.273+1111.05+201.167+1110.98+201.059C1111.35+200.081+1111.72+199.097+1112.09+198.102C1112.45+198.694+1112.81+199.299+1113.17+199.894M1113.62+198.747C1113.25+198.14+1112.89+197.523+1112.51+196.917C1112.83+196.028+1113.14+195.122+1113.43+194.2L1114.62+196.218C1114.28+197.054+1113.96+197.907+1113.62+198.747M1117.81+201.629C1117.54+202.52+1117.25+203.401+1116.97+204.281C1116.14+202.894+1115.3+201.51+1114.46+200.131C1114.79+199.296+1115.11+198.452+1115.45+197.621L1117.81+201.629ZM1121.75+212.301C1122.03+211.437+1122.3+210.562+1122.56+209.669L1124.28+212.588C1124.06+213.544+1123.83+214.499+1123.59+215.434C1122.98+214.388+1122.37+213.344+1121.75+212.301M1120.16+216.842C1120.56+215.756+1120.96+214.652+1121.34+213.525C1121.98+214.61+1122.62+215.692+1123.26+216.782C1122.92+218.057+1122.55+219.299+1122.19+220.544C1121.51+219.306+1120.84+218.079+1120.16+216.842M1119.56+204.585L1121.71+208.237C1121.46+209.133+1121.19+210.013+1120.91+210.879C1120.26+209.781+1119.62+208.669+1118.96+207.576C1118.58+206.938+1118.2+206.312+1117.82+205.676C1118.1+204.805+1118.38+203.93+1118.65+203.048L1119.56+204.585ZM1120.35+202.271C1121.04+203.38+1121.73+204.499+1122.42+205.617C1122.41+205.645+1122.41+205.673+1122.4+205.701C1122.3+206.117+1122.18+206.517+1122.07+206.926L1120.1+203.599L1119.04+201.801C1119.15+201.442+1119.25+201.07+1119.36+200.709C1119.69+201.232+1120.02+201.748+1120.35+202.271M1117.42+206.917C1117.76+207.473+1118.09+208.018+1118.42+208.574C1119.13+209.745+1119.81+210.934+1120.51+212.112C1120.14+213.222+1119.75+214.311+1119.34+215.386C1118.74+214.294+1118.14+213.193+1117.52+212.12C1117.14+211.448+1116.75+210.79+1116.37+210.123C1116.72+209.058+1117.07+207.99+1117.42+206.917M1112.87+204.18C1113.24+203.202+1113.63+202.245+1114.01+201.276C1114.87+202.688+1115.72+204.102+1116.58+205.522C1116.23+206.581+1115.89+207.64+1115.54+208.693C1114.65+207.176+1113.76+205.672+1112.87+204.18M1115.34+213.205C1115.55+212.588+1115.75+211.968+1115.96+211.35C1116.29+211.924+1116.63+212.488+1116.95+213.068C1117.61+214.219+1118.26+215.392+1118.9+216.56C1118.84+216.714+1118.79+216.868+1118.73+217.018C1118.46+217.727+1118.18+218.43+1117.89+219.133C1117.12+217.904+1116.35+216.678+1115.59+215.43C1115.38+215.081+1115.17+214.722+1114.96+214.372C1115.09+213.985+1115.21+213.594+1115.34+213.205M1121.71+222.221C1121.51+222.869+1121.29+223.494+1121.09+224.136C1120.3+222.926+1119.52+221.715+1118.74+220.487C1119.03+219.753+1119.33+219.028+1119.61+218.285C1119.65+218.197+1119.68+218.105+1119.71+218.016C1120.41+219.289+1121.12+220.569+1121.81+221.851C1121.78+221.973+1121.74+222.101+1121.71+222.221M1124.74+210.681C1124.7+210.867+1124.65+211.045+1124.61+211.231L1122.91+208.358C1123.04+207.908+1123.16+207.465+1123.28+207.007C1123.83+207.913+1124.38+208.829+1124.93+209.741L1124.74+210.681ZM1116+196.226L1116.2+195.736C1116.97+196.938+1117.73+198.143+1118.49+199.35C1118.39+199.688+1118.3+200.036+1118.2+200.373L1115.9+196.475C1115.93+196.392+1115.96+196.307+1116+196.226M1115.47+228.891C1115.83+227.888+1116.22+226.92+1116.6+225.942L1119.12+230.016C1118.79+230.967+1118.46+231.924+1118.11+232.863C1117.23+231.557+1116.35+230.23+1115.47+228.891M1119+234.135C1119.33+233.229+1119.64+232.302+1119.97+231.385L1120.93+232.946L1122.15+234.92C1121.86+235.739+1121.55+236.545+1121.24+237.345C1121.14+237.204+1121.03+237.068+1120.93+236.928C1120.28+236.011+1119.64+235.07+1119+234.135M1124.32+228.477C1124.28+228.6+1124.24+228.714+1124.2+228.836C1123.53+227.843+1122.86+226.856+1122.2+225.85C1122.12+225.725+1122.03+225.597+1121.95+225.472C1122.17+224.778+1122.41+224.102+1122.62+223.4C1122.63+223.385+1122.63+223.369+1122.63+223.355C1122.77+223.61+1122.91+223.861+1123.05+224.116C1123.6+225.106+1124.15+226.089+1124.72+227.06C1124.58+227.527+1124.46+228.015+1124.32+228.477M1125.37+207.643L1125.34+207.773C1124.81+206.863+1124.28+205.953+1123.75+205.055C1123.88+204.525+1124.01+204.002+1124.12+203.465C1124.63+204.331+1125.14+205.2+1125.65+206.075L1125.37+207.643ZM1119.51+195.77C1119.36+196.323+1119.2+196.865+1119.05+197.413C1118.33+196.287+1117.61+195.175+1116.88+194.071L1117.52+192.513C1118.19+193.591+1118.85+194.685+1119.51+195.77M1116.59+190.986C1116.62+191.034+1116.65+191.084+1116.67+191.134L1116.01+192.751C1115.53+192.017+1115.04+191.286+1114.54+190.559C1114.74+189.93+1114.93+189.305+1115.14+188.704L1116.59+190.986ZM1106.66+214.458C1106.9+213.335+1107.17+212.243+1107.47+211.181L1108.29+212.507L1108.42+212.715C1108.36+212.905+1108.29+213.091+1108.22+213.282C1107.95+214.102+1107.69+214.939+1107.42+215.769C1107.17+215.331+1106.91+214.897+1106.66+214.458M1120.96+248.444C1121.47+248.843+1121.99+249.228+1122.51+249.556C1122.14+248.974+1121.78+248.436+1121.41+247.885C1121.81+247.37+1122.2+246.84+1122.59+246.315C1122.71+246.072+1122.82+245.817+1122.94+245.572C1123.8+246.209+1124.66+246.771+1125.52+247.157C1124.77+246.364+1124.05+245.55+1123.33+244.705C1123.6+244.121+1123.87+243.543+1124.14+242.947C1125.08+243.975+1126.02+245.002+1126.99+245.936C1126.18+244.592+1125.35+243.305+1124.54+241.999C1124.84+241.296+1125.13+240.583+1125.43+239.864C1126.11+240.8+1126.8+241.732+1127.5+242.635C1126.92+241.456+1126.32+240.305+1125.72+239.156C1126.27+237.771+1126.8+236.362+1127.31+234.92C1127.33+234.861+1127.35+234.8+1127.37+234.741C1127.84+235.3+1128.31+235.861+1128.79+236.393C1128.37+235.664+1127.95+234.952+1127.54+234.238C1127.78+233.543+1128.01+232.837+1128.24+232.131C1128.77+232.76+1129.31+233.358+1129.87+233.891C1129.38+233.118+1128.9+232.338+1128.44+231.551C1128.87+230.212+1129.28+228.852+1129.68+227.471C1130.34+228.457+1131+229.439+1131.67+230.405C1131.1+229.149+1130.51+227.919+1129.91+226.693C1129.92+226.665+1129.93+226.637+1129.93+226.609C1130.25+225.476+1130.55+224.324+1130.85+223.172C1131.3+223.807+1131.75+224.441+1132.21+225.056C1131.81+224.219+1131.41+223.402+1131.01+222.585C1131.04+222.474+1131.07+222.365+1131.1+222.254C1131.2+221.446+1131.3+220.647+1131.4+219.838C1131.56+220.089+1131.73+220.337+1131.87+220.592C1131.72+220.275+1131.57+219.97+1131.42+219.655C1131.52+218.86+1131.6+218.058+1131.67+217.234C1131.45+217.765+1131.24+218.308+1131.04+218.85C1130.35+217.39+1129.65+215.934+1128.93+214.5C1129.06+213.83+1129.2+213.172+1129.33+212.499L1130.07+213.816C1131.04+215.228+1131.99+216.689+1132.97+218.093C1132.23+216.323+1131.43+214.622+1130.65+212.89L1129.49+210.834C1129.65+209.138+1129.79+207.44+1129.87+205.684C1129.82+205.883+1129.77+206.087+1129.72+206.287C1129.22+205.186+1128.69+204.142+1128.16+203.102L1127.17+201.657C1127.23+200.636+1127.29+199.61+1127.32+198.558C1127.12+199.385+1126.94+200.219+1126.76+201.054L1126.33+200.426L1124.95+198.397C1125.11+196.756+1125.25+195.102+1125.32+193.39C1124.99+194.758+1124.66+196.12+1124.31+197.462L1122.68+195.066L1121.22+192.923C1121.41+191.735+1121.58+190.537+1121.72+189.307C1121.39+190.228+1121.07+191.159+1120.76+192.104L1120.73+192.201L1119.03+189.706L1118.58+189.055C1118.8+188.29+1119.01+187.521+1119.21+186.728C1118.84+187.274+1118.5+187.848+1118.16+188.426L1117.2+187.026C1116.77+186.585+1116.35+186.133+1115.92+185.689C1116.08+185.144+1116.25+184.595+1116.44+184.069C1116.09+184.406+1115.78+184.817+1115.49+185.256C1115.38+185.147+1115.27+185.03+1115.16+184.925C1115.24+185.089+1115.31+185.241+1115.39+185.4C1115.19+185.701+1115+186.015+1114.82+186.345L1114.3+185.519C1113.69+184.759+1113.09+183.996+1112.49+183.243C1112.58+182.844+1112.67+182.454+1112.75+182.045C1112.57+182.326+1112.4+182.626+1112.22+182.919C1111.89+182.513+1111.56+182.101+1111.22+181.71C1111.49+182.231+1111.76+182.734+1112.02+183.241C1111.63+183.91+1111.24+184.586+1110.85+185.256C1110.3+184.492+1109.76+183.721+1109.21+182.968L1108.75+184.094C1109.28+184.92+1109.81+185.74+1110.33+186.564L1110.18+186.965C1109.28+185.676+1108.38+184.38+1107.46+183.127C1108.22+184.755+1109.02+186.336+1109.81+187.93L1109.31+189.242C1109.11+189.767+1108.91+190.294+1108.71+190.817C1107.61+189.319+1106.51+187.804+1105.38+186.367C1106.33+188.251+1107.32+190.064+1108.29+191.906C1107.89+192.96+1107.49+194.024+1107.09+195.089C1106.2+193.911+1105.3+192.738+1104.38+191.629L1106.75+196.001C1106.62+196.378+1106.47+196.746+1106.34+197.124C1106.16+197.604+1106+198.101+1105.83+198.585C1104.8+196.993+1103.79+195.367+1102.75+193.774C1103.61+195.798+1104.52+197.757+1105.43+199.739C1104.93+201.173+1104.46+202.637+1104.01+204.132C1103.43+203.338+1102.84+202.551+1102.24+201.784C1102.75+202.818+1103.27+203.829+1103.79+204.834C1103.74+205.027+1103.67+205.209+1103.62+205.403C1103.2+206.835+1102.83+208.319+1102.47+209.825C1102.27+211.518+1102.08+213.208+1102+214.984C1102.47+213.61+1102.9+212.21+1103.41+210.906C1103.47+210.648+1103.54+210.403+1103.61+210.145C1104.24+211.596+1104.9+213.023+1105.57+214.455C1105.45+215.704+1105.38+216.985+1105.35+218.29C1105.28+218.183+1105.21+218.072+1105.15+217.965L1103.61+215.947L1102.83+214.963C1102.7+214.795+1102.57+214.666+1102.51+214.503C1102.48+214.433+1102.47+214.333+1102.51+214.352C1102.54+214.355+1102.66+214.514+1102.59+214.539C1102.69+214.561+1102.58+214.291+1102.51+214.242C1102.38+214.128+1102.35+214.377+1102.38+214.517C1102.45+214.844+1102.6+215.064+1102.69+215.267L1103.35+216.501L1104.63+218.996C1105.1+219.767+1105.57+220.559+1106.05+221.342C1105.91+222.092+1105.77+222.84+1105.65+223.613C1105.91+223.06+1106.15+222.495+1106.4+221.931C1106.73+222.482+1107.07+223.024+1107.4+223.579C1108.15+224.845+1108.91+226.117+1109.67+227.387C1109.49+228.029+1109.3+228.654+1109.13+229.303C1109.04+229.852+1108.96+230.403+1108.87+230.953C1108.73+230.74+1108.59+230.533+1108.46+230.319C1107.74+229.499+1107.04+228.619+1106.31+227.794C1106.83+229.03+1107.4+230.187+1107.96+231.381C1108.18+231.734+1108.41+232.077+1108.64+232.427C1108.46+233.608+1108.3+234.803+1108.17+236.026C1108.49+235.089+1108.8+234.146+1109.1+233.19L1109.11+233.146C1109.38+233.554+1109.64+233.967+1109.91+234.372C1110.63+235.436+1111.35+236.478+1112.08+237.504C1111.96+238.441+1111.84+239.381+1111.77+240.359C1111.99+239.569+1112.23+238.8+1112.46+238.035C1112.95+238.719+1113.44+239.405+1113.94+240.072C1114.35+240.62+1114.76+241.15+1115.17+241.685C1114.96+242.47+1114.75+243.252+1114.55+244.057C1114.9+243.452+1115.23+242.826+1115.57+242.199C1116.38+243.249+1117.2+244.283+1118.03+245.284L1117.73+246.159C1117.41+247.002+1117.11+247.866+1116.8+248.747C1117.47+247.91+1118.08+246.996+1118.69+246.07C1119.2+246.671+1119.71+247.273+1120.23+247.866C1120.38+247.993+1120.54+248.111+1120.69+248.235C1120.6+248.53+1120.5+248.818+1120.41+249.117C1120.6+248.905+1120.77+248.669+1120.96+248.444" opacity="1"/>
<path fill="#00b8a1" d="M1127.28+202.097C1126.41+199.633+1125.3+197.292+1123.89+195.146C1119.99+189.19+1116.04+185.652+1112.78+185.182C1109.81+184.757+1107.41+186.764+1105.63+191.148C1099.89+205.233+1106.19+229.405+1113.04+239.857C1115.4+243.452+1117.67+245.28+1119.8+245.285C1123.15+245.294+1126.05+240.931+1127.96+233.004C1130.12+224.027+1130.77+212.07+1127.28+202.097M1105.46+230.08C1100.75+216.62+1098.27+198.921+1103+187.295C1105.17+181.964+1108.17+179.533+1111.93+180.074C1115.97+180.653+1120.73+184.846+1125.34+191.878C1131.04+200.566+1135.45+216.798+1130.76+236.283C1128.57+245.403+1125.05+250.42+1120.87+250.41C1117.92+250.4+1114.71+247.882+1111.59+243.124C1109.41+239.791+1107.27+235.247+1105.46+230.08" opacity="1"/>
<path opacity="1" d="M1147.51+267.066L1140.88+271.985L1158.83+302.488C1159.93+304.501+1162.51+305.157+1164.44+303.913C1166.17+302.797+1166.75+300.539+1165.77+298.727L1147.51+267.066Z" fill="#0c1153"/>
<path fill="#ffb5ac" d="M1146+282.899L1153.58+289.25L1149.38+296.552C1141.49+310.287+1132.85+322.994+1121.64+334.187L1119.67+335.046C1116.98+337.734+1112.68+337.923+1109.76+335.479L1103+329.817L1107.61+323.214C1116.66+310.218+1127.4+298.481+1139.54+288.306L1146+282.899Z" opacity="1"/>
<path fill="#ffb5ac" d="M1156.12+284.737C1156.45+283.676+1156.28+282.537+1156.1+281.444C1155.42+277.237+1154.63+273.048+1153.73+268.884C1153.53+267.929+1153.3+266.947+1152.74+266.152C1151.95+266.075+1151.17+266.542+1150.71+267.194C1150.26+267.845+1150.08+268.654+1150.03+269.448C1149.82+272.668+1151.44+276.183+1149.82+278.971C1149+280.38+1149.01+280.867+1147.69+281.819C1147.47+281.978+1137.44+289.957+1137.32+290.204C1137.14+290.563+1144.45+287.778+1144.57+288.157C1145.38+290.624+1145.96+295.289+1148.41+296.119C1149.8+296.592+1152.58+290.494+1153.43+289.36C1154.26+288.248+1155.72+286.085+1156.12+284.737" opacity="1"/>
<path opacity="1" fill="#ff9b90" d="M1096.37+312.734L1082.67+331.918L1076.66+329.03L1096.37+312.734Z"/>
<path d="M964.693+259.681C954.212+256.487+942.31+253.864+932.758+259.234C931.711+259.822+930.663+260.557+930.176+261.654C929.17+263.919+930.957+266.41+932.772+268.1C940.602+275.382+950.882+279.323+960.885+283.099C966.299+285.14+971.721+287.185+977.275+288.808C983.169+290.531+990.424+291.935+995.771+287.932C999.823+284.9+1001.89+279.595+999.201+275.076C993.636+265.72+974.065+262.536+964.693+259.681" opacity="1" fill="#ffb5ac"/>
<path opacity="1" fill="#ffb5ac" d="M877.936+246.719L877.892+237.021L889.689+238.99C905.265+241.871+920.392+246.802+934.671+253.656L941.929+257.138L936.471+271.689L928.716+269.542C913.448+265.315+898.811+259.084+885.182+251.012L877.936+246.719Z"/>
<path opacity="1" d="M862.165+229.402L846.404+214.588C845.622+213.847+844.33+214.232+844.082+215.281C843.975+215.727+844.094+216.194+844.399+216.536L849.691+224.5L860.555+234.3L862.165+229.402Z" fill="#ffb5ac"/>
<path d="M865.06+228.139L851.518+211.299L850.802+211.61C849.663+212.106+849.246+213.509+849.931+214.546L856.744+224.873L865.06+228.139Z" fill="#ffb5ac" opacity="1"/>
<path opacity="1" fill="#ffb5ac" d="M861.437+232.476L842.596+226.324C841.244+225.884+839.882+226.968+840.008+228.385C840.063+229.006+840.41+229.566+840.939+229.894L847.189+233.761C848.12+234.338+849.123+234.787+850.171+235.103L861.973+238.446L861.437+232.476Z"/>
<path opacity="1" fill="#ffb5ac" d="M870.125+228.689L859.832+214.565C858.734+214.664+857.922+215.635+858.02+216.733C858.2+218.725+865.06+228.139+865.06+228.139L870.125+228.689Z"/>
<path d="M880.967+237.747L870.125+228.689L863.799+225.244L862.046+226.955L856.745+224.872L855.839+225.956L858.035+231.59L856.729+235.906C856.729+235.906+861.973+238.446+862.15+240.436C862.328+242.426+863.591+245.322+863.591+245.322L880.416+242.811L881.323+241.727L880.967+237.747Z" opacity="1" fill="#ffb5ac"/>
<path fill="#ffb5ac" opacity="1" d="M878.784+246.97C878.784+246.97+869.917+248.766+865.937+249.124L860.042+249.652C858.901+249.753+857.894+248.913+857.792+247.773C857.699+246.723+858.399+245.772+859.431+245.561C861.137+245.213+863.944+244.479+867.393+242.974C873.184+240.45+880.214+240.645+880.214+240.645L878.784+246.97Z"/>
<path fill="#dde7e8" d="M980.294+390.344L1034.04+365.278C1032.72+346.778+1037.43+328.351+1047.47+312.759L1061.22+291.423C1063.72+286.183+1059.75+279.618+1052.67+277.286L1005.76+273.29C998.68+270.958+991.584+273.879+990.479+279.579L979.614+320.535C977.365+329.016+976.537+337.812+977.162+346.565L980.294+390.344Z" opacity="1"/>
<path opacity="1" fill="#dde7e8" d="M1057.93+279.363L1097.67+311.665L1075.94+329.623L1035.32+306.699L1057.93+279.363Z"/>
<path opacity="1" d="M990.807+288.449C989.699+291.52+982.072+299.726+985.594+306.333C987.995+310.835+997.77+307.437+1002.87+307.518C1012.45+307.672+1011.69+314.088+1021.09+315.989C1028.46+317.481+1039.22+317.167+1044.65+311.961C1048.76+308.011+1047.86+299.69+1048.87+296.392C1051.04+289.341+1059.52+287.409+1058.99+282.429C1058.53+278.126+1052.06+277.625+1047.75+277.183C1036.97+276.075+1026.2+274.968+1015.42+273.862C999.957+272.275+995.713+274.854+990.807+288.449" fill="#ffffff"/>
<path d="M962.93+257.155L1014.23+274.012L986.001+296.466L979.103+292.139L975.704+290.54L955.521+281.037L962.93+257.155Z" fill="#ffffff" opacity="1"/>
<path fill="#dde7e8" d="M955.521+281.037L992.851+287.305L986+296.466L955.521+281.037Z" opacity="1"/>
<path fill="#bdd1d1" d="M1001.33+364.074C1012.15+365.271+1023.5+366.398+1033.57+362.278C1033.9+350.774+1035.91+339.566+1038.9+328.479C1033.38+334.777+1030.15+342.678+1024.19+348.821C1020+353.132+1007.98+364.81+1001.33+364.074" opacity="1"/>
<path fill="#ffb5ac" d="M1034.04+365.278L1023.77+368.936C1016.49+371.527+1008.82+372.852+1001.1+372.852L979.043+372.852L979.571+387.666L1007.6+383.823L1036.54+370.492L1034.04+365.278Z" opacity="1"/>
<path d="M1014.67+373.237C1014.67+373.237+999.356+375.018+990.034+375.132C980.71+375.246+979.12+375.013+979.12+375.013L979.042+372.851" fill="#ff9b90" opacity="1"/>
<path opacity="1" d="M1104.71+469.825L1091.48+454.919C1091.85+454.078+1084.88+443.471+1084.5+442.638L1073.21+424.855C1068.84+415.306+1062+405.12+1055.7+396.726L1034.98+368.352C1034.01+367.052+1032.22+366.681+1030.8+367.484L1004.01+382.712C1002.52+383.563+1001.95+385.439+1002.72+386.976C1018.58+418.43+1041.28+445.931+1069.16+467.457L1080.93+474.459C1082.59+475.746+1105.43+473.477+1104.71+469.825" fill="#ffb5ac"/>
<path fill="#ffb5ac" opacity="1" d="M1068.92+466.068C1069.62+466.893+1151.85+513.224+1151.85+513.224L1156.84+503.992C1156.84+503.992+1129.68+475.239+1114.53+465.567C1107.27+460.935+1080.57+450.45+1080.57+450.45C1080.57+450.45+1058.73+454.119+1068.92+466.068"/>
<path d="M1149.71+493.58C1149.71+493.58+1151.78+496.717+1148.45+501.612C1145.12+506.506+1137.24+510.258+1137.24+510.258C1137.24+510.258+1147.41+512.07+1149.8+515.033C1152.2+517.998+1155.22+537.046+1153.88+544.455C1153.2+548.144+1152.64+550.639+1152.25+552.215C1151.93+553.511+1152.64+554.841+1153.89+555.314L1155.91+556.084C1155.91+556.084+1163.19+550.05+1165.66+542.774C1168.14+535.5+1180+505.095+1180+505.095C1180+505.095+1174.13+501.982+1170.25+501.387C1168.42+501.107+1165.92+501.278+1163.76+501.537C1160.84+501.888+1157.92+500.943+1155.73+498.977L1149.71+493.58Z" opacity="1" fill="#ea3f74"/>
<path opacity="1" d="M1175.28+502.909C1175.28+502.909+1167.86+525.167+1164.41+533.465C1160.95+541.764+1161.06+543.455+1157.94+547.882C1154.83+552.31+1152.25+552.215+1152.25+552.215C1152.25+552.215+1151.58+553.571+1152.48+554.329C1153.83+555.464+1153.89+555.314+1153.89+555.314C1153.89+555.314+1159.49+553.421+1163.73+543.702C1166.53+537.293+1178.07+503.969+1178.07+503.969L1175.28+502.909Z" fill="#ffffff"/>
<path fill="#ea3f74" d="M1139.05+504.35C1140.36+503.838+1141.83+504.314+1143.15+504.789C1145.81+505.744+1148.48+506.706+1150.9+508.163C1153.37+509.652+1158.37+517.237+1154.49+519.297C1150+521.684+1151.68+516.968+1149.8+515.033C1147.52+512.676+1144.49+512.087+1141.16+511.084C1139.32+510.528+1136.47+510.484+1136.22+508.383C1136.05+507.032+1137.89+504.803+1139.05+504.35" opacity="1"/>
<path fill="none" stroke-linejoin="round" stroke-linecap="round" stroke="#ffffff" stroke-width="1.053" opacity="1" d="M1152.85+525.621C1155.08+524.2+1156.47+523.766+1159.11+523.653"/>
<path stroke-width="1.053" opacity="1" stroke="#ffffff" d="M1151.68+520.007C1153.91+518.586+1155.34+518.137+1157.98+518.025" stroke-linecap="round" fill="none" stroke-linejoin="round"/>
<path stroke-linejoin="round" opacity="1" fill="none" stroke-width="1.053" d="M1153.67+531.363C1155.9+529.941+1157.62+529.401+1160.26+529.29" stroke-linecap="round" stroke="#ffffff"/>
<path stroke-linejoin="round" d="M1154.11+536.497C1156.34+535.076+1157.58+535.029+1160.22+534.917" stroke="#ffffff" fill="none" stroke-width="1.053" stroke-linecap="round" opacity="1"/>
<path fill="#ff9b90" opacity="1" d="M1042.24+441.408L1069.3+414.906L1072.41+420.609L1042.24+441.408Z"/>
<path opacity="1" d="M1025.27+498.18C1025.47+499.247+1073.86+580.271+1073.86+580.271L1082.78+574.737C1082.78+574.737+1073.47+536.296+1065.11+520.379C1061.11+512.757+1043.13+490.403+1043.13+490.403C1043.13+490.403+1037.98+488.505+1033.16+488.505C1028.31+488.505+1023.8+490.432+1025.27+498.18" fill="#ffb5ac"/>
<path opacity="1" fill="#ffb5ac" d="M1049.28+501.435L1041.55+483.069C1042.16+482.391+1038.97+470.108+1038.88+469.197L1033.9+448.728C1032.84+438.282+1029.64+426.437+1026.36+416.462L1015.87+382.936C1015.36+381.392+1013.79+380.464+1012.19+380.77L981.927+386.579C980.235+386.904+980.838+392.232+981.078+393.936C985.982+428.817+996.9+458.422+1016.38+487.769L1025.27+498.18C1026.43+499.936+1048.79+505.125+1049.28+501.435"/>
<path d="M1082.79+563.944C1082.79+563.944+1083.03+567.691+1077.71+570.289C1072.4+572.89+1063.69+572.235+1063.69+572.235C1063.69+572.235+1071.62+578.853+1072.22+582.615C1072.83+586.374+1066.01+604.416+1061.16+610.178C1058.74+613.047+1057.02+614.937+1055.9+616.109C1054.98+617.076+1054.93+618.581+1055.78+619.612L1057.15+621.284C1057.15+621.284+1066.47+619.659+1072.23+614.569C1077.99+609.48+1103.37+588.97+1103.37+588.97C1103.37+588.97+1099.82+583.357+1096.75+580.912C1095.31+579.765+1093.04+578.667+1091.04+577.825C1088.33+576.681+1086.27+574.409+1085.34+571.615L1082.79+563.944Z" opacity="1" fill="#ea3f74"/>
<path opacity="1" d="M1100.36+584.732C1100.36+584.732+1082.88+600.376+1075.76+605.863C1068.64+611.352+1067.89+612.875+1062.99+615.172C1058.09+617.473+1055.9+616.11+1055.9+616.11C1055.9+616.11+1054.64+616.952+1055.05+618.058C1055.66+619.713+1055.78+619.612+1055.78+619.612C1055.78+619.612+1061.58+620.749+1070.09+614.416C1075.7+610.241+1102.26+587.036+1102.26+587.036L1100.36+584.732Z" fill="#ffffff"/>
<path opacity="1" fill="#ea3f74" d="M1068.19+568.003C1069.59+568.209+1070.62+569.351+1071.54+570.422C1073.37+572.567+1075.21+574.73+1076.59+577.195C1077.99+579.71+1078.57+588.778+1074.18+588.642C1069.1+588.486+1072.89+585.223+1072.23+582.614C1071.41+579.432+1069.07+577.419+1066.68+574.898C1065.36+573.501+1062.91+572.049+1063.73+570.098C1064.26+568.843+1066.96+567.822+1068.19+568.003"/>
<path d="M1069.62+593.319C1072.26+593.192+1073.68+593.501+1076.03+594.717" stroke-linejoin="round" stroke-width="1.053" opacity="1" stroke-linecap="round" stroke="#ffffff" fill="none"/>
<path stroke-linecap="round" fill="none" stroke="#ffffff" stroke-linejoin="round" d="M1071.39+587.864C1074.03+587.737+1075.49+588.054+1077.84+589.27" opacity="1" stroke-width="1.053"/>
<path opacity="1" fill="none" stroke-linejoin="round" d="M1067.48+598.711C1070.12+598.583+1071.88+598.965+1074.23+600.181" stroke="#ffffff" stroke-width="1.053" stroke-linecap="round"/>
<path stroke-width="1.053" stroke-linecap="round" stroke="#ffffff" d="M1065.32+603.386C1067.96+603.26+1069.05+603.833+1071.4+605.047" stroke-linejoin="round" opacity="1" fill="none"/>
<path fill="#ff9b90" d="M997.029+452.291L1033.83+448.053L1035.14+453.809L997.029+452.291Z" opacity="1"/>
<path fill="#ea3f74" d="M1039.41+368.51C1039.41+368.51+1043.65+371.533+1053.86+383.87C1066.13+398.706+1072.41+411.859+1072.41+411.859L1042.24+441.408L1031.92+431.12L1036.17+447.785L995.32+452.456C995.122+452.462+981.204+426.764+980.414+386.822C980.414+386.822+1005.35+384.491+1013.94+381.575C1020.16+379.462+1039.41+368.51+1039.41+368.51" opacity="1"/>
<path stroke="#ffffff" fill="none" opacity="1" d="M986.319+392.548C987.257+397.088+987.727+401.724+987.724+406.362C987.724+408.407+987.53+410.681+986.027+412.067" stroke-linecap="round" stroke-linejoin="round" stroke-width="1"/>
<path d="M1031.28+378.534C1033.26+381.195+1035.54+383.704+1038.38+385.428C1041.22+387.153+1044.69+388.032+1047.92+387.289" stroke-linecap="round" opacity="1" stroke-width="1" fill="none" stroke="#ffffff" stroke-linejoin="round"/>
<path stroke-linejoin="round" fill="none" stroke-linecap="round" d="M1006.7+389.498L1012.25+405.789C1012.73+407.219+1013.47+408.876+1014.96+409.13C1016.75+409.438+1018.24+407.451+1020.06+407.445" stroke="#ffffff" stroke-width="1" opacity="1"/>
<path fill="#ff9b90" d="M1037.89+264.181L1038.42+260.199L1025.05+263.89L1023.5+268.812C1025.87+269.179+1028.28+269.21+1030.63+268.906C1033.63+268.151+1036.15+266.463+1037.89+264.181" opacity="1"/>
<path opacity="1" fill="#ffb5ac" d="M1035.71+280.448L1037.89+264.18C1036.15+266.464+1033.63+268.151+1030.63+268.907C1028.28+269.211+1025.87+269.178+1023.5+268.811L1020.07+279.761L1035.71+280.448Z"/>
<path opacity="1" fill="#ffb5ac" d="M1015.12+279.092C1015.04+281.719+1020.32+283.998+1026.9+284.18C1033.48+284.362+1038.87+282.379+1038.95+279.751C1039.02+277.124+1033.74+274.847+1027.16+274.665C1020.58+274.483+1015.19+276.465+1015.12+279.092"/>
<path d="M1017.6+263.869C1015.82+262.831+1014.28+261.647+1013.79+260.451C1012.7+250.001+1029.82+232.742+1029.82+232.742L1040.09+233.77L1047.11+246.174L1040.23+260.242C1038.4+263.997+1034.72+266.557+1030.33+267.138C1025.94+267.194+1021.49+266.126+1017.6+263.869" opacity="1" fill="#ffb5ac"/>
<path d="M1055.62+230.149C1060.14+233.885+1061.94+235.999+1063.2+239.722C1064.44+243.393+1062.93+247.55+1060.34+250.435C1057.76+253.32+1054.25+255.182+1050.79+256.931C1049.48+257.597+1048.09+258.27+1046.62+258.245C1044.26+258.204+1042.27+256.347+1041.21+254.243C1040.14+252.139+1039.77+249.765+1039.09+247.503C1037.97+243.768+1032.36+235.235+1027.97+234.707C1024.39+234.279+1032.93+227.073+1037.04+226.433C1044.98+225.196+1051.59+226.814+1055.62+230.149" opacity="1" fill="#0c1153"/>
<path opacity="1" d="M1029.36+230.884C1029.36+230.884+1034.57+233.057+1037.98+237.546C1041.39+242.035+1043.06+259.597+1043.06+259.597L1050.79+256.932C1050.79+256.932+1054.67+250.064+1047.65+237.66C1040.64+225.255+1034.12+226.673+1034.12+226.673L1029.36+230.884Z" fill="#ffffff"/>
<path d="M1061.45+235.613C1061.45+235.613+1062.1+237.695+1062.49+240.819C1062.88+243.943+1062.49+247.458+1062.49+247.458L1065.1+247.458C1065.1+247.458+1065.88+244.074+1065.75+241.991C1065.62+239.908+1063.93+235.483+1063.93+235.483L1061.45+235.613Z" opacity="1" fill="#00b8a1"/>
<path opacity="1" fill="#ffb5ac" d="M1045.69+256.167C1045.14+254.669+1043.08+253.775+1041.09+254.171C1039.09+254.567+1037.91+256.101+1038.46+257.601C1039.01+259.099+1041.07+259.992+1043.06+259.597C1045.06+259.2+1046.23+257.665+1045.69+256.167"/>
</g>
<g opacity="1">
<path opacity="1" d="M225.629+211.717C221.997+211.528+217.741+210.97+215.984+207.822C219.631+203.782+223.395+199.846+227.269+196.021C227.811+195.485+228.368+194.946+229.05+194.603C229.944+194.153+230.984+194.083+231.987+194.11C237.002+194.251+241.76+196.668+245.441+200.04C246.681+201.175+247.858+202.491+248.278+204.11C249.302+208.038+245.895+212.554+241.98+212.571C236.554+212.594+231.05+212+225.629+211.717" fill="#c58c85"/>
<path d="M184.611+243.11C184.106+243.51+183.585+243.889+183.068+244.273C183.025+244.148+182.983+244.023+182.938+243.896C182.551+243.118+182.131+242.356+181.733+241.584C182.388+241.081+183.025+240.557+183.649+240.017C183.707+240.137+183.771+240.254+183.828+240.375C184.352+241.153+184.856+241.944+185.361+242.737C185.114+242.862+184.858+242.984+184.611+243.11M181.934+245.131C180.909+245.871+179.865+246.587+178.812+247.285C178.477+246.532+178.142+245.779+177.814+245.022L177.489+244.467C178.324+243.964+179.148+243.443+179.95+242.89C180.14+242.759+180.318+242.615+180.506+242.483C180.86+243.175+181.237+243.855+181.58+244.55L181.94+245.126C181.938+245.128+181.934+245.13+181.934+245.131M176.355+248.865C175.649+249.3+174.93+249.719+174.212+250.136C173.726+249.371+173.241+248.605+172.795+247.818C172.655+247.624+172.528+247.419+172.391+247.224C173.675+246.597+174.944+245.935+176.191+245.224L176.503+245.76C177.005+246.441+177.494+247.128+177.989+247.814C177.446+248.166+176.907+248.525+176.355+248.865M170.516+252.184C170.075+252.412+169.626+252.627+169.181+252.85L168.169+251.204C167.789+250.691+167.432+250.159+167.057+249.642C168.385+249.074+169.711+248.499+171.023+247.886C171.207+248.149+171.377+248.42+171.565+248.681C172.158+249.342+172.768+249.984+173.379+250.626C172.434+251.161+171.481+251.683+170.516+252.184M161.245+250.462C160.66+250.706+160.079+250.965+159.494+251.213C159.167+250.581+158.837+249.951+158.522+249.313C158.331+249.022+158.147+248.729+157.957+248.439C158.343+248.284+158.733+248.14+159.117+247.982C160.381+247.462+161.63+246.913+162.878+246.362C162.884+246.369+162.887+246.376+162.892+246.383C163.498+247.265+164.135+248.125+164.755+248.998C163.587+249.488+162.418+249.975+161.245+250.462M157.244+252.175C156.564+251.291+155.913+250.397+155.296+249.484C155.709+249.326+156.119+249.161+156.531+249C156.775+249.376+157.013+249.757+157.261+250.129C157.692+250.626+158.119+251.122+158.548+251.619C158.114+251.805+157.678+251.985+157.244+252.175M147.428+247.45C147.384+247.39+147.346+247.325+147.303+247.263C147.636+247.16+147.969+247.056+148.304+246.956L150.724+245.866C151.443+246.894+152.201+247.898+152.996+248.877C151.918+249.448+150.834+250.009+149.749+250.584C148.959+249.553+148.169+248.521+147.428+247.45M143.85+241.987C145.029+241.57+146.206+241.148+147.377+240.714C148.169+242.03+148.994+243.331+149.856+244.611L147.695+245.578C147.338+245.799+146.977+246.015+146.615+246.233C145.668+244.836+144.746+243.422+143.85+241.987M138.297+225.713C138.428+225.901+138.556+226.09+138.684+226.279L135.423+227.614L135.188+227.204C136.225+226.706+137.263+226.21+138.297+225.713M132.429+223.272C133.321+222.984+134.208+222.692+135.102+222.414L135.872+222.05C135.885+222.076+135.895+222.101+135.907+222.127C136.315+222.771+136.735+223.399+137.157+224.025C136.188+224.551+135.221+225.079+134.263+225.623C133.651+224.839+133.043+224.053+132.429+223.272M135.48+219.088C136.126+218.912+136.768+218.731+137.416+218.561L138.665+217.893C138.797+218.226+138.931+218.561+139.061+218.897C139.016+218.918+138.969+218.936+138.922+218.957L136.31+220.183C136.032+219.82+135.744+219.463+135.48+219.088M140.172+217.086L142.784+215.691L143.529+216.93C142.46+217.4+141.385+217.859+140.323+218.341C140.094+218.018+139.867+217.696+139.639+217.373L140.172+217.086ZM145.689+214.138L148.337+212.722C148.501+212.952+148.676+213.173+148.837+213.403C149.099+213.705+149.349+214.016+149.608+214.321C149.073+214.541+148.53+214.742+147.997+214.965C146.957+215.401+145.935+215.878+144.9+216.328C144.538+215.931+144.171+215.54+143.807+215.145L145.689+214.138ZM151.202+211.189L152.089+210.717L153.581+212.66L153.63+212.713C152.779+213.049+151.929+213.388+151.082+213.731C150.717+213.297+150.36+212.855+149.99+212.425C149.856+212.299+149.717+212.179+149.584+212.056L151.202+211.189ZM153.962+209.72C154.77+209.042+155.576+208.36+156.345+207.603C156.852+208.297+157.36+208.99+157.884+209.663L158.673+210.739L157.206+211.283C156.506+211.549+155.821+211.844+155.123+212.116L154.704+211.647C154.147+211.165+153.583+210.695+153.022+210.219L153.962+209.72ZM159.818+212.306C160.19+212.72+160.537+213.154+160.903+213.575C160.058+213.815+159.211+214.045+158.367+214.295C158.037+214.422+157.713+214.558+157.385+214.685L156.968+214.189L156.178+213.302C156.702+213.099+157.221+212.874+157.747+212.675L159.589+211.992L159.818+212.306ZM168.055+214.479C167.517+214.627+166.979+214.776+166.439+214.918L164.656+215.65C164.219+215.123+163.767+214.608+163.323+214.086L163.724+213.889L166.06+212.771C166.341+212.636+166.591+212.502+166.847+212.368C167.255+213.072+167.661+213.772+168.055+214.479M170.862+218.339C170.613+218.403+170.365+218.466+170.117+218.528L167.685+219.477C167.012+218.604+166.345+217.723+165.651+216.865L167.039+216.298C167.584+215.986+168.135+215.682+168.683+215.375C169.421+216.355+170.148+217.342+170.862+218.339M174.272+223.349C173.755+223.54+173.243+223.744+172.715+223.907C172.275+224.113+171.818+224.29+171.368+224.48C170.474+223.21+169.575+221.947+168.641+220.708L170.664+219.917C170.98+219.748+171.299+219.585+171.617+219.419C172.523+220.716+173.41+222.024+174.272+223.349M176.076+226.198C175.435+226.459+174.798+226.722+174.154+226.971C173.899+227.108+173.639+227.235+173.384+227.372C173.274+227.206+173.174+227.034+173.061+226.869C172.802+226.483+172.519+226.114+172.255+225.732C172.622+225.575+172.991+225.435+173.354+225.268C173.866+224.954+174.37+224.626+174.868+224.292C175.274+224.925+175.679+225.56+176.076+226.198M176.658+227.12C177.543+228.572+178.4+230.04+179.233+231.521C179.023+231.584+178.815+231.651+178.605+231.713L176.708+232.564C175.901+231.239+175.05+229.942+174.201+228.644C174.427+228.524+174.654+228.411+174.88+228.291C175.46+227.877+176.038+227.465+176.616+227.051C176.628+227.074+176.644+227.096+176.658+227.12M181.169+235.096C180.433+235.547+179.69+235.983+178.945+236.423C178.459+235.565+177.966+234.71+177.461+233.864L179.247+233.062C179.452+232.935+179.659+232.811+179.865+232.686C180.306+233.486+180.742+234.288+181.169+235.096M179.907+238.076C179.839+237.955+179.765+237.839+179.699+237.719C180.423+237.291+181.146+236.866+181.867+236.431C182.238+237.161+182.598+237.895+182.959+238.628C182.957+238.63+182.955+238.632+182.953+238.633C182.335+239.195+181.693+239.728+181.034+240.242C180.655+239.522+180.296+238.791+179.907+238.076M175.08+240.341C176.047+239.812+177.019+239.291+177.975+238.743C178.119+238.659+178.261+238.57+178.406+238.487C178.463+238.589+178.525+238.687+178.581+238.788C179.004+239.565+179.395+240.358+179.806+241.141C179.565+241.314+179.332+241.498+179.089+241.666C178.322+242.193+177.534+242.693+176.736+243.177L175.08+240.341ZM169.716+243.147C171.073+242.471+172.424+241.783+173.762+241.067L175.437+243.933C174.165+244.658+172.861+245.334+171.539+245.976C170.914+245.046+170.306+244.105+169.716+243.147M168.365+243.824C168.949+244.769+169.549+245.705+170.167+246.632C168.848+247.243+167.515+247.828+166.171+248.399C165.543+247.514+164.899+246.64+164.283+245.744C165.652+245.123+167.013+244.483+168.365+243.824M161.228+241.148L163.774+240.006L165.618+239.179C166.258+240.307+166.907+241.429+167.577+242.543C166.206+243.211+164.83+243.861+163.441+244.488C162.694+243.383+161.958+242.267+161.228+241.148M155.324+244.361C155.232+244.217+155.144+244.067+155.053+243.921L159.839+241.773C160.563+242.885+161.299+243.994+162.042+245.097C160.877+245.609+159.714+246.122+158.537+246.608C158.07+246.796+157.598+246.971+157.131+247.16C156.527+246.228+155.918+245.3+155.324+244.361M150.577+239.483C151.333+240.748+152.106+242.003+152.88+243.257L152.849+243.273L151.247+243.99C150.401+242.744+149.594+241.469+148.81+240.175C149.401+239.95+149.988+239.713+150.577+239.483M144.819+236.345C145.407+237.367+146.001+238.388+146.602+239.406C145.421+239.842+144.237+240.269+143.052+240.688C142.691+240.101+142.321+239.519+141.967+238.927C141.767+238.594+141.576+238.256+141.378+237.923C142.517+237.382+143.67+236.866+144.819+236.345M142.132+231.737C142.784+232.834+143.425+233.939+144.064+235.048C142.913+235.568+141.76+236.085+140.62+236.627C139.969+235.516+139.32+234.406+138.678+233.287L142.132+231.737ZM139.511+227.554C140.137+228.509+140.75+229.473+141.344+230.451L137.924+231.977C137.572+231.365+137.219+230.752+136.867+230.137L136.171+228.922L139.511+227.554ZM141.786+224.048L142.135+224.688C142.163+224.736+142.191+224.786+142.219+224.834L140.273+225.63L140.106+225.697C139.96+225.481+139.814+225.27+139.667+225.054C140.373+224.715+141.08+224.386+141.786+224.048M151.778+216.968C150.797+217.383+149.813+217.793+148.841+218.229C148.185+218.523+147.539+218.837+146.886+219.141C146.518+218.617+146.159+218.09+145.787+217.569C146.723+217.163+147.647+216.733+148.587+216.338C149.261+216.055+149.947+215.801+150.622+215.524C151.014+216.002+151.396+216.482+151.778+216.968M161.207+217.066L159.806+217.637C159.586+217.361+159.381+217.071+159.155+216.794L158.754+216.316C158.881+216.262+159.006+216.206+159.133+216.153L161.929+214.773C162.349+215.265+162.778+215.753+163.193+216.25L161.207+217.066ZM164.54+220.706C163.939+220.943+163.344+221.197+162.743+221.439C162.096+220.569+161.422+219.719+160.754+218.864L161.795+218.437L164.208+217.454C164.899+218.305+165.553+219.182+166.225+220.047L164.54+220.706ZM167.412+226.018C167.038+226.149+166.657+226.279+166.281+226.408C165.421+225.155+164.557+223.905+163.663+222.676C164.144+222.484+164.62+222.28+165.1+222.089L167.182+221.278C168.129+222.525+169.046+223.797+169.95+225.076C169.112+225.402+168.265+225.714+167.412+226.018M173.453+234.025L171.731+234.797C170.971+233.565+170.19+232.345+169.407+231.126C169.49+231.083+169.575+231.044+169.659+231.002C170.733+230.46+171.795+229.897+172.861+229.339C173.696+230.613+174.536+231.883+175.33+233.182L173.453+234.025ZM164.239+233.637C165.515+233.038+166.781+232.413+168.046+231.789C168.82+232.993+169.594+234.198+170.35+235.419L166.272+237.247C165.597+236.045+164.908+234.847+164.239+233.637M158.152+236.376C158.436+236.253+158.725+236.138+159.008+236.014C160.304+235.446+161.587+234.852+162.87+234.26C163.536+235.463+164.208+236.668+164.882+237.871L163.151+238.649L160.393+239.886C159.639+238.721+158.896+237.549+158.152+236.376M156.748+236.97C157.497+238.151+158.244+239.334+159.004+240.509L154.264+242.638C153.502+241.405+152.739+240.173+151.995+238.929C153.587+238.295+155.171+237.64+156.748+236.97M149.315+234.38C150.835+233.735+152.365+233.108+153.902+232.497C154.361+233.223+154.822+233.946+155.282+234.67C155.498+235.012+155.716+235.352+155.933+235.692C154.371+236.354+152.804+236.999+151.228+237.626C150.585+236.545+149.943+235.467+149.315+234.38M146.383+235.63C146.891+235.403+147.409+235.195+147.919+234.974C147.924+234.983+147.929+234.993+147.935+235.002C148.551+236.066+149.181+237.121+149.808+238.18C149.216+238.41+148.629+238.651+148.034+238.875C147.414+237.827+146.801+236.775+146.192+235.716C146.256+235.688+146.319+235.657+146.383+235.63M145.319+230.349C145.94+231.454+146.551+232.564+147.183+233.665C146.713+233.869+146.237+234.061+145.767+234.267C145.657+234.315+145.55+234.368+145.442+234.418C144.807+233.318+144.17+232.218+143.519+231.123C144.116+230.86+144.72+230.609+145.319+230.349M144.581+229.039C143.97+229.307+143.352+229.561+142.743+229.83C142.158+228.869+141.557+227.915+140.941+226.971L142.955+226.147C143.491+227.115+144.041+228.074+144.581+229.039M148.362+223.934C148.962+224.834+149.551+225.74+150.141+226.648C148.749+227.24+147.36+227.839+145.971+228.442C145.435+227.484+144.888+226.533+144.359+225.572L148.362+223.934ZM158.171+223.299C157.593+222.407+157.004+221.521+156.397+220.648L159.313+219.453C159.983+220.304+160.651+221.157+161.301+222.026C160.256+222.446+159.212+222.874+158.171+223.299M161.16+228.184C160.455+226.974+159.731+225.771+158.983+224.582C160.068+224.139+161.15+223.692+162.236+223.257C163.116+224.46+163.958+225.689+164.802+226.916C163.587+227.333+162.377+227.759+161.16+228.184M151.316+222.726L154.965+221.233C155.576+222.105+156.169+222.987+156.751+223.88C155.652+224.333+154.546+224.765+153.451+225.223C152.812+225.491+152.181+225.774+151.543+226.044C150.959+225.146+150.374+224.247+149.78+223.354L151.316+222.726ZM149.785+220.27C150.906+219.753+152.036+219.251+153.163+218.748C153.184+218.773+153.203+218.797+153.222+218.823C153.512+219.206+153.783+219.601+154.064+219.987L150.74+221.348L148.943+222.083C148.702+221.726+148.443+221.375+148.199+221.018C148.73+220.771+149.254+220.514+149.785+220.27M152.375+227.312C152.932+227.077+153.481+226.83+154.04+226.597C155.211+226.106+156.397+225.641+157.572+225.157C158.31+226.325+159.025+227.51+159.723+228.704C158.647+229.089+157.563+229.463+156.498+229.873C155.831+230.124+155.175+230.395+154.512+230.654C153.802+229.538+153.09+228.424+152.375+227.312M148.575+233.071C147.942+231.97+147.331+230.857+146.707+229.751C148.127+229.133+149.549+228.521+150.972+227.915C151.681+229.013+152.385+230.112+153.087+231.215C151.575+231.816+150.072+232.436+148.575+233.071M156.56+233.881C156.15+233.234+155.737+232.587+155.326+231.938C155.897+231.716+156.463+231.481+157.036+231.265C158.18+230.826+159.334+230.426+160.487+230.016C160.584+230.187+160.686+230.354+160.783+230.525C161.24+231.33+161.689+232.14+162.141+232.951C160.896+233.524+159.653+234.1+158.397+234.651C158.046+234.806+157.69+234.947+157.338+235.099C157.079+234.693+156.819+234.288+156.56+233.881M165.947+228.55C166.385+229.2+166.798+229.868+167.227+230.524C165.991+231.133+164.757+231.742+163.509+232.329C163.038+231.483+162.576+230.637+162.097+229.796C162.042+229.695+161.979+229.595+161.924+229.495C163.174+229.06+164.434+228.62+165.694+228.189C165.776+228.309+165.866+228.428+165.947+228.55M157.982+217.73C158.114+217.893+158.233+218.065+158.365+218.228L155.496+219.402C155.185+218.973+154.885+218.54+154.566+218.118C155.479+217.716+156.397+217.328+157.313+216.935L157.982+217.73ZM143.461+223.977L143.149+223.404C144.371+222.822+145.595+222.246+146.819+221.671C147.048+222.005+147.289+222.331+147.516+222.666L143.621+224.261C143.567+224.164+143.514+224.072+143.461+223.977M168.928+241.872C168.27+240.781+167.65+239.66+167.02+238.549L171.132+236.704C171.757+237.729+172.391+238.747+173.005+239.778C171.657+240.497+170.296+241.191+168.928+241.872M174.323+239.05C173.731+238.057+173.118+237.071+172.514+236.083L174.088+235.377L176.083+234.481C176.618+235.379+177.14+236.284+177.656+237.192C177.508+237.277+177.366+237.367+177.218+237.453C176.262+238+175.29+238.522+174.323+239.05M171.808+227.698C171.889+227.82+171.964+227.947+172.047+228.071C171.023+228.606+170.004+229.15+168.975+229.674C168.846+229.737+168.716+229.798+168.588+229.861C168.124+229.15+167.678+228.43+167.204+227.724C167.194+227.709+167.182+227.695+167.173+227.68C167.423+227.594+167.671+227.51+167.921+227.422C168.897+227.075+169.87+226.712+170.837+226.329C171.157+226.789+171.493+227.233+171.808+227.698M155.822+215.159L155.914+215.269C155.008+215.627+154.102+215.981+153.205+216.355C152.833+215.881+152.469+215.403+152.089+214.937C152.955+214.587+153.821+214.239+154.691+213.897L155.822+215.159ZM144.376+218.19C144.758+218.717+145.123+219.256+145.498+219.788C144.354+220.328+143.218+220.886+142.088+221.453L141.097+219.632C142.186+219.139+143.283+218.669+144.376+218.19M139.559+220.308C139.608+220.287+139.658+220.267+139.707+220.244L140.738+222.131C139.985+222.517+139.233+222.908+138.485+223.306C138.06+222.676+137.638+222.045+137.242+221.403L139.559+220.308ZM154.401+248.233C153.606+247.265+152.847+246.264+152.12+245.238L153.46+244.635L153.67+244.541C153.797+244.744+153.916+244.948+154.043+245.149C154.588+246.012+155.151+246.865+155.704+247.721C155.269+247.891+154.836+248.066+154.401+248.233M186.272+243.431C186.772+242.83+187.26+242.219+187.708+241.57C187.118+241.838+186.564+242.133+185.998+242.42C185.736+241.525+185.463+240.635+185.193+239.74C185.043+239.428+184.884+239.123+184.731+238.814C185.547+237.782+186.3+236.714+186.913+235.57C186.019+236.332+185.116+237.049+184.195+237.734C183.833+237.003+183.478+236.272+183.106+235.546C184.255+234.591+185.403+233.642+186.486+232.609C185.137+233.187+183.828+233.812+182.509+234.413C182.065+233.57+181.61+232.736+181.15+231.904C182.134+231.308+183.117+230.709+184.08+230.074C182.941+230.381+181.82+230.724+180.7+231.071C179.812+229.482+178.897+227.906+177.951+226.351C177.911+226.286+177.869+226.224+177.829+226.161C178.438+225.711+179.049+225.263+179.641+224.786C178.919+225.057+178.208+225.345+177.496+225.634C177.038+224.891+176.567+224.156+176.095+223.42C176.784+222.906+177.451+222.366+178.067+221.777C177.282+222.144+176.498+222.486+175.711+222.81C174.816+221.432+173.898+220.068+172.957+218.717C173.969+218.19+174.981+217.661+175.982+217.102C174.788+217.354+173.609+217.646+172.431+217.944C172.41+217.917+172.391+217.888+172.372+217.86C171.599+216.769+170.801+215.694+170.004+214.62C170.665+214.244+171.327+213.868+171.976+213.466C171.176+213.648+170.388+213.858+169.601+214.067C169.523+213.964+169.449+213.859+169.372+213.755C168.775+213.173+168.185+212.588+167.584+212.011C167.839+211.887+168.095+211.757+168.346+211.664C168.046+211.73+167.749+211.815+167.449+211.882C166.859+211.319+166.262+210.761+165.635+210.229C165.973+210.854+166.326+211.462+166.676+212.069C165.279+212.397+163.885+212.737+162.498+213.118C162.019+212.564+161.554+211.996+161.07+211.443L162.373+210.961C163.835+210.168+165.323+209.442+166.782+208.619C165.123+208.87+163.5+209.237+161.856+209.56L159.823+210.314C158.546+209.186+157.265+208.067+155.914+207.028C156.051+207.217+156.194+207.397+156.331+207.586C155.284+207.801+154.274+208.091+153.265+208.384L151.774+209.184C150.995+208.551+150.207+207.926+149.391+207.339C149.967+208.081+150.558+208.803+151.149+209.521L150.502+209.869L148.409+210.988C147.178+209.874+145.93+208.784+144.612+207.778C145.564+209.026+146.513+210.26+147.442+211.505L144.97+212.826L142.757+214.009C141.894+213.094+141.016+212.193+140.099+211.33C140.701+212.335+141.318+213.327+141.95+214.302L142.012+214.407L139.44+215.785L138.766+216.146C138.242+215.408+137.714+214.671+137.162+213.95C137.461+214.807+137.785+215.65+138.115+216.492L136.673+217.263C136.171+217.713+135.661+218.149+135.157+218.593C134.788+218.047+134.416+217.503+134.071+216.93C134.213+217.647+134.423+218.349+134.661+219.045C134.536+219.161+134.406+219.268+134.282+219.39C134.437+219.357+134.586+219.311+134.739+219.275C134.904+219.743+135.083+220.208+135.274+220.67L134.435+221.063C133.621+221.619+132.803+222.168+131.993+222.73C131.712+222.379+131.441+222.024+131.147+221.681C131.302+222.12+131.476+222.549+131.642+222.98C131.203+223.289+130.762+223.591+130.333+223.919C130.837+223.777+131.328+223.615+131.823+223.459C132.206+224.431+132.597+225.397+132.981+226.368C132.182+226.83+131.38+227.281+130.59+227.757L131.309+229.065C132.149+228.666+132.984+228.261+133.822+227.86L134.081+228.309C132.743+229.063+131.399+229.803+130.08+230.608C131.637+230.244+133.168+229.811+134.706+229.398L135.555+230.874C135.895+231.464+136.235+232.056+136.574+232.647C134.998+233.606+133.411+234.542+131.873+235.573C133.697+235.051+135.48+234.442+137.278+233.872C137.961+235.06+138.651+236.242+139.344+237.427C138.094+238.228+136.848+239.032+135.643+239.903L139.939+238.439C140.182+238.855+140.42+239.272+140.669+239.685C140.983+240.211+141.312+240.727+141.632+241.251C140.009+242.04+138.367+242.784+136.739+243.594C138.641+243.295+140.509+242.878+142.392+242.487C143.342+244.014+144.321+245.523+145.331+247.014C144.496+247.521+143.665+248.036+142.845+248.58C143.842+248.319+144.824+248.025+145.805+247.723C145.935+247.914+146.055+248.111+146.187+248.3C147.161+249.704+148.19+251.075+149.244+252.426C150.504+253.619+151.764+254.798+153.127+255.86C152.219+254.395+151.273+252.986+150.434+251.509C150.252+251.276+150.087+251.032+149.907+250.799C151.278+250.548+152.639+250.253+154.003+249.954C154.941+250.795+155.921+251.578+156.935+252.308C156.826+252.357+156.716+252.4+156.609+252.448L154.465+253.827L153.41+254.535C153.231+254.659+153.083+254.791+152.932+254.807C152.87+254.807+152.785+254.783+152.812+254.731C152.828+254.676+152.998+254.565+152.989+254.7C153.045+254.546+152.792+254.583+152.729+254.668C152.594+254.81+152.776+254.995+152.897+255.014C153.179+255.081+153.406+254.958+153.6+254.911L154.807+254.529L157.228+253.808C158.008+253.461+158.799+253.133+159.586+252.798C160.124+253.408+160.664+254.015+161.226+254.602C160.886+253.909+160.53+253.228+160.176+252.546C160.73+252.311+161.276+252.069+161.83+251.837C163.099+251.309+164.371+250.78+165.644+250.246C166.085+250.857+166.506+251.482+166.956+252.088C167.355+252.515+167.758+252.936+168.157+253.36C167.94+253.466+167.727+253.579+167.508+253.684C166.605+254.388+165.661+255.026+164.748+255.754C165.908+255.581+167.024+255.287+168.162+255.026C168.522+254.855+168.874+254.671+169.232+254.494C170.096+255.39+170.974+256.272+171.887+257.122C171.268+256.125+170.639+255.143+169.995+254.175L169.966+254.127C170.384+253.919+170.806+253.718+171.221+253.504C172.314+252.934+173.394+252.337+174.463+251.726C175.156+252.407+175.852+253.085+176.593+253.71C176.055+252.943+175.534+252.17+175.021+251.394C175.736+250.979+176.451+250.564+177.156+250.129C177.734+249.772+178.3+249.397+178.869+249.026C179.407+249.771+179.947+250.514+180.506+251.249C180.159+250.382+179.787+249.529+179.414+248.676C180.535+247.938+181.645+247.184+182.731+246.4L183.309+247.33C183.856+248.272+184.424+249.21+185.007+250.143C184.589+248.665+184.094+247.213+183.587+245.761C184.245+245.274+184.901+244.785+185.552+244.289C185.708+244.109+185.859+243.923+186.012+243.741C186.208+244.045+186.399+244.349+186.602+244.651C186.505+244.241+186.383+243.837+186.272+243.431" opacity="1" fill="#e1f0f9"/>
<path d="M178.475+222.966L265.169+190.019C266.858+189.377+268.764+190.087+269.604+191.67C270.613+193.568+269.687+195.908+267.646+196.629L181.332+227.083L178.475+222.966Z" opacity="1" fill="#52c2fa"/>
<path d="M152.157+209.249C149.91+209.321+147.668+209.857+145.47+210.955C139.379+214.004+135.171+218.38+133.621+223.282C132.214+227.736+132.918+232.581+135.717+237.686C144.705+254.086+165.97+256.786+176.661+251.436C180.338+249.597+182.596+246.963+183.37+243.607C184.592+238.324+182.214+231.478+176.677+224.326C170.409+216.226+161.254+208.952+152.157+209.249M166.236+258.287C153.958+258.689+139.159+253.355+131.738+239.819C128.336+233.611+127.516+227.599+129.303+221.949C131.221+215.881+136.237+210.561+143.429+206.963C152.316+202.516+166.665+204.028+180.272+221.605C186.641+229.834+189.307+238.002+187.783+244.603C186.708+249.251+183.568+252.994+178.703+255.428C175.294+257.132+170.95+258.133+166.236+258.287" opacity="1" fill="#52c2fa"/>
<path d="M221.725+204.878L226.653+214.133L268.791+197.573C271.558+196.586+272.893+193.485+271.695+190.83C270.62+188.449+267.876+187.284+265.39+188.152L221.725+204.878Z" opacity="1" fill="#0c1153"/>
<path fill="#c58c85" opacity="1" d="M310.139+284.872C310.158+270.992+311.211+266.083+301.628+250.281C300.838+248.976+296.412+243.942+294.886+243.753C291.734+243.367+284.742+256.803+283.837+259.813C280.577+270.664+280.921+275.351+280.015+288.868C279.524+296.181+279.032+303.503+279.107+310.832C279.187+318.612+280.162+327.922+287.059+332.933C292.284+336.73+299.555+337.283+304.094+332.363C313.497+322.179+310.123+297.283+310.139+284.872"/>
<path opacity="1" d="M241.472+209.839L251+201.582L259.423+208.248C275.264+220.79+289.656+234.079+301.628+250.28L302.331+252.909C305.205+256.8+304.601+262.221+300.933+265.398L292.438+272.761L284.983+265.72C270.306+251.861+257.553+236.141+247.055+218.969L241.472+209.839Z" fill="#c58c85"/>
<path fill="#c58c85" opacity="1" d="M245.787+197.519C244.506+196.913+243.032+196.901+241.612+196.911C236.153+196.947+230.695+197.122+225.246+197.438C223.998+197.51+222.712+197.6+221.593+198.154C221.341+199.129+221.778+200.193+222.514+200.89C223.25+201.588+224.24+201.966+225.236+202.186C229.272+203.073+234.038+201.721+237.251+204.295C238.873+205.596+239.494+205.67+240.437+207.512C240.596+207.822+248.731+221.924+249.019+222.121C249.44+222.411+247.345+212.724+247.852+212.642C251.133+212.108+257.153+212.292+258.684+209.388C259.555+207.731+252.381+203.07+251.112+201.791C249.864+200.535+247.413+198.29+245.787+197.519"/>
<path fill="#c58c85" opacity="1" d="M192.155+347.707C179.414+353.534+168.658+357.673+156.778+370.258C155.73+371.37+160.387+377.252+160.857+378.699C161.83+381.689+168.775+384.661+171.923+384.239C184.682+382.528+195.723+377.92+208.503+373.042C215.418+370.404+222.342+367.76+229.034+364.608C236.137+361.259+244.266+356.465+245.962+348.17C247.245+341.885+244.688+335.133+238.265+333.131C224.962+328.986+203.547+342.496+192.155+347.707"/>
<path d="M99.3977+407.744L91.0779+398.618L104.031+390.524C121.372+380.1+140.034+371.994+159.527+366.417L169.432+363.584L176.637+381.937L167.392+386.452C149.199+395.341+129.895+401.809+109.983+405.683L99.3977+407.744Z" opacity="1" fill="#c58c85"/>
<path d="M69.5494+404.692L41.8472+403.999C40.4672+403.959+39.5611+405.413+40.219+406.615C40.4985+407.124+41.0123+407.466+41.5938+407.529L53.4478+410.591L72.1896+410.681L69.5494+404.692Z" opacity="1" fill="#c58c85"/>
<path opacity="1" fill="#c58c85" d="M71.2387+401.056L43.9254+396.576L43.507+397.474C42.8439+398.904+43.6442+400.581+45.1821+400.984L60.5043+404.988L71.2387+401.056Z"/>
<path fill="#c58c85" d="M71.4777+408.211L48.2262+418.3C46.5581+419.024+46.1814+421.199+47.5111+422.431C48.096+422.972+48.9015+423.207+49.6895+423.07L58.9624+421.45C60.3423+421.209+61.6841+420.789+62.9548+420.2L77.0827+413.4L71.4777+408.211Z" opacity="1"/>
<path fill="#c58c85" d="M76.5462+397.302L54.659+392.645C53.6922+393.665+53.746+395.266+54.7788+396.222C56.6466+397.952+71.238+401.057+71.238+401.057L76.5462+397.302Z" opacity="1"/>
<path d="M94.636+396.711L76.5469+397.301L67.5605+399.387L67.3469+402.481L60.5043+404.989L60.5633+406.777L67.4719+410.244L69.9073+415.424C69.9073+415.424+77.0832+413.401+78.9527+415.129C80.8222+416.859+84.4987+418.529+84.4987+418.529L98.434+401.959L98.3732+400.171L94.636+396.711Z" opacity="1" fill="#c58c85"/>
<path d="M100.421+407.266C100.421+407.266+93.4834+416.445+89.9857+420.141L84.8025+425.616C83.8009+426.675+82.1224+426.73+81.0513+425.739C80.0654+424.826+79.9213+423.338+80.7285+422.267C82.0616+420.498+84.1168+417.436+86.1287+413.105C89.5083+405.831+96.3909+400.083+96.3909+400.083L100.421+407.266Z" fill="#c58c85" opacity="1"/>
<path d="M355.311+457.253C355.608+476.55+282.277+429.977+282.277+429.977C277.979+406.871+266.214+385.767+248.753+369.836L224.858+348.037C220.074+342.403+222.891+333.091+230.921+327.983L287.818+308.191C295.848+303.085+305.586+304.412+308.787+311.051L335.411+357.827C340.926+367.515+347.362+385.098+349.395+396.033C349.395+396.033+354.941+433.25+355.311+457.253" opacity="1" fill="#0087fa"/>
<path opacity="1" fill="#0087fa" d="M231.048+327.877L183.413+347.337L202.546+378.045L248.773+361.614L231.048+327.877Z"/>
<path fill="#0087fa" d="M277.688+278.61L275.647+313.739L314.79+321.596L314.012+281.9L277.688+278.61Z" opacity="1"/>
<path fill="#0076dd" d="M282.277+429.977L282.277+429.977L296.297+431.947C296.787+426.242+291.703+405.421+290.09+400.936C285.893+389.253+276.669+379.767+265.866+373.471C255.793+367.599+253.25+366.291+242.921+364.515L248.753+369.836C266.215+385.767+277.979+406.871+282.277+429.977" opacity="1"/>
<path opacity="1" fill="#c58c85" d="M282.277+429.977C282.277+429.977+310.266+429.752+319.512+428.647C327.982+427.636+352.92+421.804+352.92+421.804L359.324+458.055C359.324+458.055+332.719+450.776+325.011+447.968C313.456+443.756+282.277+429.977+282.277+429.977"/>
<path opacity="1" fill="#9e706a" d="M308.853+433.59C308.853+433.59+328.421+430.911+340.021+428.091C351.62+425.271+353.518+424.479+353.518+424.479L352.92+421.804"/>
<path opacity="1" fill="#9e706a" d="M185.464+350.628L200.895+375.395L179.263+354.056L185.464+350.628Z"/>
<path fill="#9e706a" d="M246.365+307.987L244.424+303.273L262.195+303.553L265.691+309.099C262.871+310.3+259.894+311.105+256.877+311.479C252.917+311.505+249.248+310.235+246.365+307.987" opacity="1"/>
<path d="M254.291+327.244L246.365+307.986C249.247+310.234+252.916+311.505+256.876+311.479C259.894+311.105+262.87+310.3+265.69+309.1L273.465+321.435L254.291+327.244Z" opacity="1" fill="#c58c85"/>
<path opacity="1" fill="#c58c85" d="M279.392+319.045C280.326+322.244+274.514+326.712+266.411+329.024C258.31+331.336+250.985+330.618+250.051+327.417C249.117+324.22+254.929+319.752+263.03+317.438C271.133+315.126+278.458+315.846+279.392+319.045"/>
<path opacity="1" d="M271.42+301.165C273.302+299.327+274.823+297.385+275.047+295.765C273.043+282.602+246.277+266.87+246.277+266.87L233.866+271.395L229.148+288.833L242.187+303.902C245.669+307.924+251.049+309.898+256.678+309.214C262.144+307.891+267.324+305.167+271.42+301.165" fill="#c58c85"/>
<path opacity="1" fill="#0c1153" d="M243.738+250.94C242.141+248.082+239.162+245.935+235.878+245.833C234.217+245.782+232.575+246.228+231.028+246.829C228.154+247.946+225.232+250.002+224.823+253.027C224.807+253.133+224.842+253.241+224.897+253.337C221.104+252.102+216.598+253.954+214.482+257.343C211.21+262.587+213.682+270.585+218.792+274.227C215.683+273.858+212.279+275.224+210.858+278.034C209.426+280.861+210.38+284.4+212.573+286.638C212.538+286.842+212.489+287.05+212.469+287.254C211.094+287.282+209.716+287.749+208.685+288.65C206.546+290.519+205.982+293.826+207.115+296.416C208.249+299.004+210.875+300.812+213.689+301.28C215.024+301.503+216.237+301.309+217.367+300.549C214.347+306.452+226.406+309.385+228.976+302.466C230.53+303.161+232.045+303.781+233.432+304.272C237.01+305.539+240.775+306.158+244.575+306.124L238.687+295.386C237.01+292.381+231.381+287.071+234.267+285.162C236.375+283.768+242.873+278.238+244.981+276.292C249.999+271.653+257.111+261.442+249.971+253.888C248.347+252.172+246.057+251.298+243.738+250.94"/>
<path d="M234.114+300.637C234.31+298.627+236.577+296.876+239.18+296.729C241.782+296.579+243.735+298.09+243.541+300.1C243.345+302.109+241.076+303.86+238.474+304.008C235.87+304.157+233.919+302.647+234.114+300.637" opacity="1" fill="#c58c85"/>
<path opacity="1" d="M248.058+499.984C248.042+500.069+250.134+480.649+235.732+482.952C233.524+483.304+225.947+492.296+219.439+492.699C212.93+493.101+204.867+493.22+199.627+495.442C194.386+497.667+190.126+503.25+187.424+509.118C184.719+514.985+184.074+521.117+186.394+523.242C186.889+523.693+191.236+527.813+206.207+520.498C221.043+513.249+242.628+512.64+242.628+512.64L248.058+499.984Z" fill="#0c1153"/>
<path d="M247.887+488.579C240.905+476.69+229.945+495.378+223.287+495.81C219.914+496.03+214.691+495.63+211.313+495.551C204.998+495.402+198.228+498.685+194.565+503.108C190.564+507.94+185.897+516.688+187.494+524.562" stroke-linecap="butt" stroke="#ffffff" fill="none" stroke-linejoin="miter" opacity="1" stroke-width="1"/>
<path stroke-linecap="round" fill="none" d="M221.028+504.994C217.2+504.861+213.354+505.346+209.683+506.424C209.026+506.616+208.245+507.004+208.273+507.68C208.287+507.989+208.481+508.262+208.697+508.489C210.554+510.446+213.744+510.039+216.399+509.481C219.417+508.846+222.828+507.926+224.208+505.197C222.689+510.428+219.266+515.097+214.71+518.15C214.161+518.516+213.328+518.825+212.923+518.306C212.587+517.877+212.877+517.259+213.18+516.806C215.522+513.324+218.636+510.353+222.241+508.164C218.383+511.623+213.375+513.804+208.19+514.287" stroke="#ffffff" stroke-width="1" opacity="1" stroke-linejoin="round"/>
<path opacity="1" fill="#c58c85" d="M231.797+509.323C231.797+509.323+277.618+594.152+278.553+594.949C292.093+606.484+293.792+571.596+293.792+571.596C293.792+571.596+288.795+548.365+285.139+539.08C280.859+528.208+238.317+505.472+238.317+505.472L231.797+509.323Z"/>
<path fill="#c58c85" opacity="1" d="M278.554+594.949L279.809+580.015C279.015+579.16+282.984+563.572+283.095+562.417L289.285+536.445C290.552+523.204+294.551+508.17+298.655+495.505L311.795+452.943C312.43+450.981+314.44+449.792+316.489+450.166L355.31+457.253C357.48+457.649+358.954+459.657+358.662+461.82C352.696+506.049+336.78+548.394+312.088+585.742L300.798+599.01C299.323+601.243+279.215+599.619+278.554+594.949"/>
<path opacity="1" fill="#0c1153" d="M167.486+467.011C167.47+467.097+169.562+447.676+155.16+449.979C152.952+450.331+145.375+459.323+138.865+459.727C132.358+460.128+124.295+460.247+119.054+462.469C113.814+464.694+109.554+470.277+106.852+476.145C104.147+482.012+103.501+488.144+105.822+490.269C106.315+490.72+110.663+494.84+125.635+487.525C140.471+480.276+162.056+479.667+162.056+479.667L167.486+467.011Z"/>
<path fill="none" stroke="#ffffff" stroke-width="1" opacity="1" stroke-linecap="butt" d="M167.315+455.606C160.333+443.717+149.373+462.405+142.713+462.837C139.342+463.057+134.119+462.657+130.741+462.578C124.426+462.429+117.656+465.712+113.993+470.135C109.992+474.967+105.323+483.715+106.922+491.59" stroke-linejoin="miter"/>
<path stroke-width="1" stroke-linejoin="round" stroke="#ffffff" d="M140.456+472.022C136.628+471.888+132.782+472.374+129.11+473.451C128.454+473.644+127.671+474.032+127.701+474.708C127.715+475.017+127.909+475.29+128.125+475.516C129.982+477.473+133.172+477.066+135.826+476.508C138.845+475.873+142.256+474.953+143.634+472.224C142.117+477.456+138.694+482.124+134.137+485.178C133.589+485.543+132.756+485.852+132.351+485.334C132.015+484.905+132.304+484.287+132.608+483.834C134.948+480.351+138.064+477.38+141.669+475.192C137.81+478.65+132.803+480.832+127.618+481.314" opacity="1" fill="none" stroke-linecap="round"/>
<path opacity="1" d="M235.842+544.531L199.046+527.004L288.844+433.059L343.011+455.076L235.842+544.531Z" fill="#c58c85"/>
<path opacity="1" fill="#c58c85" d="M156.641+464.168C153.662+465.927+152.638+469.701+154.334+472.693C164.303+490.267+195.476+545.24+198.012+549.919C211.703+575.163+265.002+519.688+265.002+519.688C265.002+519.688+228.7+521.061+212.821+511.68C212.821+511.68+212.434+505.542+204.633+497.084C197.493+489.342+168.564+467.183+162.102+462.996C161.994+462.925+161.806+462.894+161.563+462.894C160.234+462.894+157.246+463.809+156.641+464.168"/>
<path fill="#52c2fa" d="M282.277+429.977C282.277+429.977+261.945+453.927+247.067+467.891C232.191+481.855+224.344+491.038+224.344+491.038L274.287+527.45L295.528+504.032L288.297+534.556L340.157+560.705L344.069+549.602C354.434+520.18+359.594+489.21+359.324+458.055L282.277+429.977Z" opacity="1"/>
<path fill="#0087fa" opacity="1" d="M295.529+504.032C295.529+504.032+306.847+509.132+305.592+524.066C304.337+539.001+302.306+541.662+302.306+541.662L288.296+534.556L295.529+504.032Z"/>
<path d="M319.88+452.387C319.489+453.277+321.117+454.094+321.616+453.258C321.456+452.78+320.742+452.601+320.373+452.946C321.492+459.291+319.409+466.112+314.926+470.784" stroke-width="1" stroke="#0087fa" stroke-linecap="butt" stroke-linejoin="miter" fill="none" opacity="1"/>
<path d="M329.1+455.574C328.988+456.538+331.045+456.072+330.517+455.253C329.788+454.549+328.307+455.167+328.305+456.171C329.847+455.703+330.913+457.709+331.116+459.291C331.82+464.775+330.461+470.494+327.358+475.094" stroke-linecap="butt" stroke-width="1" fill="none" stroke="#0087fa" stroke-linejoin="miter" opacity="1"/>
<path stroke-width="1" opacity="1" d="M282.765+436.599C292.302+443.631+303.012+449.105+314.33+452.726" fill="none" stroke="#0087fa" stroke-linejoin="miter" stroke-linecap="butt"/>
<path stroke="#0087fa" d="M336.731+459.982C343.942+463.742+351.888+466.116+360+466.93" fill="none" stroke-linejoin="miter" opacity="1" stroke-width="1" stroke-linecap="butt"/>
<path opacity="1" fill="#9e706a" d="M289.581+535.203L330.371+555.769L288.404+540.141L289.581+535.203Z"/>
<path opacity="1" fill="#9e706a" d="M229.695+494.939L265.151+521.447L225.937+498.87L229.695+494.939Z"/>
</g>
<g opacity="1">
<path fill="#694ed6" stroke-linecap="round" opacity="0.75" stroke-width="0.1" stroke="#694ed6" stroke-linejoin="round" d="M691.611+528.815L588.389+528.815L777.629+305.167L691.611+528.815Z"/>
<path opacity="0.85" stroke-width="0.1" stroke="#ffa76d" stroke-linecap="round" fill="#ffa76d" d="M502.371+305.167L691.611+528.815L588.389+528.815L502.371+305.167Z" stroke-linejoin="round"/>
<path d="M777.629+305.167L640+528.815L640+356.778" stroke-linejoin="round" stroke-linecap="round" fill="#b4a6ea" stroke="#b4a6ea" opacity="0.85" stroke-width="0.1"/>
<path stroke="#b4a6ea" stroke-linejoin="round" stroke-width="0.1" fill="#b4a6ea" opacity="0.85" d="M691.611+546.018L691.611+580.426L657.204+614.833L622.796+614.833L588.389+580.426L588.389+546.018L691.611+546.018Z" stroke-linecap="round"/>
<path stroke-linecap="round" fill="#694ed6" d="M622.796+614.833L657.204+614.833L691.611+580.426L691.611+546.018L622.796+614.833Z" stroke-linejoin="round" opacity="0.517914" stroke="#694ed6" stroke-width="0.1"/>
<path d="M588.389+580.426L622.796+614.833L657.204+614.833L588.389+546.018L588.389+580.426Z" opacity="0.353008" fill="#5bc1d7" stroke-linejoin="round" stroke-width="0.1" stroke-linecap="round" stroke="#5bc1d7"/>
<path stroke="#f7d991" stroke-linecap="round" d="M640+528.815L640+356.778L502.371+305.167L640+528.815Z" stroke-linejoin="round" opacity="0.85" fill="#f7d991" stroke-width="0.1"/>
<path fill="#694ed6" stroke="#694ed6" stroke-linejoin="round" stroke-width="0.1" d="M691.611+528.815L640+528.815L662.063+493.329" stroke-linecap="round" opacity="0.251862"/>
<path opacity="1" stroke-linecap="round" stroke="#ffffff" stroke-linejoin="round" fill="none" d="M588.389+546.018L691.611+546.018" stroke-width="7"/>
<path d="M588.389+546.018L588.389+580.426" stroke="#ffffff" stroke-linejoin="round" opacity="1" stroke-linecap="round" fill="none" stroke-width="7"/>
<path stroke-linecap="round" stroke-linejoin="round" stroke-width="7" opacity="1" stroke="#ffffff" d="M691.611+546.018L691.611+580.426" fill="none"/>
<path stroke-linejoin="round" opacity="1" fill="none" stroke-linecap="round" d="M588.389+580.426L622.796+614.833" stroke-width="7" stroke="#ffffff"/>
<path fill="none" stroke-width="7" opacity="1" d="M657.204+614.833L691.611+580.426" stroke="#ffffff" stroke-linecap="round" stroke-linejoin="round"/>
<path d="M622.796+614.833L657.204+614.833" stroke-linecap="round" stroke="#ffffff" fill="none" stroke-width="7" stroke-linejoin="round" opacity="1"/>
<path opacity="1" stroke-linecap="round" d="M588.389+528.815L622.796+528.815" stroke="#ffffff" stroke-width="7" stroke-linejoin="round" fill="none"/>
<path stroke-width="7" opacity="1" stroke-linecap="round" stroke="#ffffff" d="M588.389+528.815L691.611+528.815" fill="none" stroke-linejoin="round"/>
<path stroke-linecap="round" stroke-width="7" stroke="#ffffff" stroke-linejoin="round" d="M640+356.778L777.629+305.167" fill="none" opacity="1"/>
<path stroke-linejoin="round" stroke="#ffffff" stroke-linecap="round" fill="none" d="M640+356.778L502.371+305.167" opacity="1" stroke-width="7"/>
<path stroke-linecap="round" d="M777.629+305.167L691.611+528.815" stroke-width="7" stroke-linejoin="round" fill="none" opacity="1" stroke="#ffffff"/>
<path stroke-linecap="round" stroke-linejoin="round" d="M502.371+305.167L588.389+528.815" stroke-width="7" opacity="1" fill="none" stroke="#ffffff"/>
</g>
</g>
</svg>
