<?xml version="1.0" encoding="UTF-8" standalone="no"?> <!-- Created with Vectornator for iOS (http://vectornator.io/) --><!DOCTYPE svg PUBLIC "-//W3C//DTD SVG 1.1//EN" "http://www.w3.org/Graphics/SVG/1.1/DTD/svg11.dtd">
<svg height="100%" xml:space="preserve" xmlns:vectornator="http://vectornator.io" version="1.1" width="100%" viewBox="0 0 720 720" xmlns="http://www.w3.org/2000/svg" xmlns:xlink="http://www.w3.org/1999/xlink" style="fill-rule:nonzero;clip-rule:evenodd;stroke-linecap:round;stroke-linejoin:round;">
<metadata>
<vectornator:setting value="false" key="WDCMYKEnabledKey"/>
<vectornator:setting value="false" key="WDOutlineMode"/>
<vectornator:setting value="false" key="WDSnapToPoints"/>
<vectornator:setting key="WDSnapToEdges" value="false"/>
<vectornator:setting key="WDGuidesVisible" value="true"/>
<vectornator:setting key="IsTimeLapseWatermarkDisabled" value="false"/>
<vectornator:setting value="false" key="WDDynamicGuides"/>
<vectornator:setting value="Pixels" key="WDUnits"/>
<vectornator:setting value="true" key="VNSnapToGuides"/>
<vectornator:setting key="VNPencilOnly" value="false"/>
<vectornator:setting value="false" key="WDDisplayWhiteBackground"/>
<vectornator:setting value="false" key="WDIsolateActiveLayer"/>
<vectornator:setting key="WDRulersVisible" value="true"/>
<vectornator:setting key="VNDimensionsVisible" value="true"/>
<vectornator:setting key="WDSnapToGrid" value="false"/>
<vectornator:setting key="UndoHistoryDisabled" value="false"/>
</metadata>
<defs>
<path id="Mask" d="M-26.413+416.668L9.2763+416.668L9.2763+370.913L-26.413+370.913L-26.413+416.668Z"/>
<path id="Mask_2" d="M39.3523+92.0668L107.605+92.0668L107.605+36.2785L39.3523+36.2785L39.3523+92.0668Z"/>
<path d="M16.7975+483.097L745.923+483.097L745.923+80.8037L16.7975+80.8037L16.7975+483.097Z" id="Mask_3"/>
<path d="M729.984+309.727L740.671+309.727L740.671+299.04L729.984+299.04L729.984+309.727Z" id="Mask_4"/>
<path id="Mask_5" d="M693.172+456.973L701.484+456.973L701.484+448.66L693.172+448.66L693.172+456.973Z"/>
<path d="M47.1908+124.482L57.878+124.482L57.878+113.795L47.1908+113.795L47.1908+124.482Z" id="Mask_6"/>
<path d="M8.00441+323.976L16.3167+323.976L16.3167+315.664L8.00441+315.664L8.00441+323.976Z" id="Mask_7"/>
<path id="Mask_8" d="M16.3167+147.044L19.8791+147.044L19.8791+143.482L16.3167+143.482L16.3167+147.044Z"/>
<path d="M447.092+70.4442L459.929+70.4442L459.929+57.6077L447.092+57.6077L447.092+70.4442Z" id="Mask_9"/>
<path d="M404.378+88.2087L408.657+88.2087L408.657+83.9291L404.378+83.9291L404.378+88.2087Z" id="Mask_10"/>
<path d="M147.048+465.432L169.576+465.432L169.576+447.41L147.048+447.41L147.048+465.432Z" id="Mask_11"/>
<path id="Mask_12" d="M147.048+496.971L169.576+496.971L169.576+478.949L147.048+478.949L147.048+496.971Z"/>
<path d="M508.891+477.665L634.998+477.665L634.998+396.624L508.891+396.624L508.891+477.665Z" id="Mask_13"/>
</defs>
<g id="Layer 1" vectornator:layerName="Layer 1" visibility="hidden">
<path opacity="1" d="M919.688+225.229L920.631+225.791C924.97+228.386+929.645+230.324+934.524+231.552L935.588+231.821L935.588+246.812C935.588+248.673+937.101+250.187+938.962+250.187L955.532+250.187C957.392+250.187+958.906+248.673+958.906+246.812L958.906+231.821L959.97+231.552C964.849+230.324+969.524+228.386+973.864+225.791L974.807+225.229L985.411+235.833C986.728+237.151+988.87+237.148+990.182+235.833L1001.9+224.119C1003.21+222.803+1003.21+220.663+1001.9+219.346L991.294+208.741L991.858+207.797C994.451+203.46+996.39+198.785+997.619+193.905L997.886+192.84L1012.88+192.84C1014.74+192.84+1016.25+191.328+1016.25+189.466L1016.25+172.897C1016.25+171.037+1014.74+169.524+1012.88+169.524L997.886+169.524L997.619+168.46C996.39+163.578+994.451+158.904+991.858+154.566L991.294+153.624L1001.9+143.017C1003.21+141.701+1003.21+139.562+1001.9+138.245L990.182+126.53C988.87+125.218+986.728+125.216+985.411+126.53L974.807+137.134L973.864+136.573C969.524+133.978+964.849+132.039+959.97+130.812L958.906+130.544L958.906+115.552C958.906+113.692+957.392+112.177+955.532+112.177L938.962+112.177C937.101+112.177+935.588+113.692+935.588+115.552L935.588+130.544L934.524+130.812C929.645+132.039+924.97+133.978+920.631+136.573L919.688+137.134L909.082+126.53C907.767+125.216+905.625+125.216+904.309+126.53L892.596+138.245C891.279+139.562+891.279+141.701+892.596+143.017L903.2+153.624L902.637+154.566C900.043+158.905+898.105+163.581+896.877+168.46L896.609+169.524L881.617+169.524C879.756+169.524+878.242+171.037+878.242+172.897L878.242+189.466C878.242+191.328+879.756+192.84+881.617+192.84L896.609+192.84L896.877+193.905C898.105+198.784+900.043+203.458+902.637+207.797L903.2+208.741L892.596+219.346C891.279+220.663+891.279+222.803+892.596+224.119L904.309+235.833C905.625+237.148+907.767+237.148+909.082+235.833L919.688+225.229Z" fill="#ffffff"/>
<path opacity="1" fill="#ffffff" d="M904.515+407.464C894.102+401.823+890.232+388.811+895.873+378.397C901.512+367.984+914.526+364.115+924.94+369.755C935.353+375.394+939.223+388.407+933.582+398.821C927.943+409.234+914.929+413.104+904.515+407.464M1202.09+154.998L1195.15+151.239C1195.89+148.35+1196.18+145.41+1196.06+142.508L1203.62+140.258C1205.06+139.83+1205.88+138.317+1205.45+136.879L1202.77+127.858C1202.34+126.42+1200.83+125.601+1199.39+126.029L1191.82+128.28C1190.34+125.781+1188.49+123.479+1186.3+121.461L1190.05+114.522C1190.77+113.201+1190.28+111.553+1188.96+110.839L1180.68+106.357C1179.36+105.642+1177.72+106.132+1177+107.451L1173.24+114.392C1170.35+113.655+1167.41+113.363+1164.51+113.487L1162.26+105.918C1161.83+104.479+1160.32+103.66+1158.88+104.089L1149.86+106.77C1148.42+107.199+1147.6+108.711+1148.03+110.149L1150.28+117.718C1147.79+119.2+1145.48+121.05+1143.47+123.246L1136.53+119.486C1135.21+118.773+1133.56+119.262+1132.84+120.582L1128.36+128.858C1127.65+130.177+1128.14+131.825+1129.46+132.54L1136.4+136.3C1135.66+139.188+1135.37+142.127+1135.49+145.03L1127.92+147.28C1126.48+147.708+1125.66+149.221+1126.09+150.659L1128.77+159.68C1129.2+161.118+1130.71+161.937+1132.15+161.51L1139.72+159.259C1141.2+161.757+1143.05+164.059+1145.25+166.077L1141.49+173.016C1140.78+174.335+1141.27+175.984+1142.59+176.7L1150.86+181.181C1152.18+181.895+1153.83+181.406+1154.54+180.086L1158.3+173.146C1161.19+173.882+1164.13+174.175+1167.03+174.052L1169.28+181.621C1169.71+183.057+1171.22+183.877+1172.66+183.449L1181.68+180.767C1183.12+180.339+1183.94+178.828+1183.51+177.39L1181.26+169.821C1183.76+168.338+1186.06+166.486+1188.08+164.292L1195.02+168.05C1196.34+168.765+1197.99+168.275+1198.7+166.955L1203.19+158.68C1203.9+157.361+1203.41+155.712+1202.09+154.998"/>
<path d="M117.479+423.765C109.465+419.425+106.487+409.41+110.827+401.396C115.169+393.383+125.184+390.405+133.198+394.745C141.211+399.085+144.189+409.1+139.849+417.114C135.509+425.127+125.494+428.105+117.479+423.765" fill="#599af2" opacity="0.360001"/>
<path fill="none" stroke-linejoin="miter" stroke-width="1" d="M313.513+427.15C303.63+421.796+299.958+409.446+305.312+399.563C310.663+389.68+323.014+386.007+332.898+391.36C342.78+396.714+346.453+409.064+341.099+418.946C335.748+428.83+323.397+432.503+313.513+427.15Z" opacity="0.179993" stroke-linecap="butt" stroke="#4c65ba"/>
<path fill="#599af2" d="M927.075+420.281C920.668+416.81+918.163+409.028+921.481+402.902C924.8+396.774+932.686+394.621+939.094+398.091C945.502+401.562+948.007+409.343+944.688+415.47C941.369+421.598+933.484+423.752+927.075+420.281M964.674+350.579L960.403+348.265C960.82+346.557+960.965+344.812+960.857+343.084L965.443+341.833C966.314+341.594+966.796+340.705+966.518+339.844L964.784+334.45C964.506+333.591+963.576+333.087+962.704+333.325L958.117+334.577C957.186+333.075+956.032+331.685+954.672+330.462L956.885+326.378C957.305+325.601+956.988+324.616+956.176+324.175L951.083+321.417C950.272+320.977+949.272+321.25+948.853+322.027L946.639+326.111C944.871+325.641+943.077+325.433+941.31+325.474L939.853+320.948C939.576+320.088+938.646+319.584+937.773+319.823L932.309+321.315C931.437+321.553+930.954+322.444+931.232+323.304L932.688+327.829C931.183+328.682+929.801+329.756+928.597+331.039L924.325+328.726C923.514+328.286+922.515+328.559+922.094+329.335L919.457+334.205C919.036+334.981+919.353+335.967+920.165+336.406L924.436+338.72C924.02+340.429+923.875+342.174+923.983+343.9L919.397+345.153C918.526+345.39+918.044+346.281+918.322+347.141L920.058+352.534C920.333+353.395+921.264+353.899+922.136+353.661L926.723+352.408C927.654+353.911+928.807+355.301+930.167+356.524L927.955+360.608C927.534+361.384+927.852+362.37+928.664+362.809L933.757+365.568C934.568+366.008+935.568+365.735+935.989+364.959L938.201+360.875C939.968+361.345+941.763+361.552+943.529+361.512L944.987+366.037C945.263+366.897+946.194+367.401+947.067+367.163L952.531+365.67C953.404+365.431+953.885+364.542+953.608+363.682L952.152+359.157C953.657+358.303+955.039+357.23+956.243+355.947L960.515+358.26C961.326+358.7+962.324+358.426+962.746+357.651L965.383+352.781C965.804+352.005+965.485+351.019+964.674+350.579" opacity="0.389999"/>
</g>
<g id="Bird" vectornator:layerName="Bird">
<g vectornator:mask="#Mask" opacity="0.103824">
<clipPath id="ClipPath">
<use xlink:href="#Mask" overflow="visible" fill="none"/>
</clipPath>
<g clip-path="url(#ClipPath)">
<path d="M-12.7583+372.07C-22.9776+375.228-28.7024+386.073-25.5449+396.292C-22.3863+406.512-9.34672+419.338+0.872607+416.18C11.0919+413.021+6.69475+396.839+8.86663+386.366C11.8959+371.758-2.53898+368.913-12.7583+372.07" opacity="0.470001" fill="#ecf1f7"/>
</g>
</g>
<g opacity="0.103824" vectornator:mask="#Mask_2">
<clipPath id="ClipPath_2">
<use overflow="visible" fill="none" xlink:href="#Mask_2"/>
</clipPath>
<g clip-path="url(#ClipPath_2)">
<path d="M103.019+51.7512C95.3587+37.4743+77.5764+32.1105+63.2995+39.7708C49.0226+47.43+33.7387+70.5357+41.399+84.8126C49.0594+99.0895+71.8397+87.8572+88.0403+88.0472C110.635+88.312+110.679+66.0269+103.019+51.7512" opacity="0.470001" fill="#ecf1f7"/>
</g>
</g>
<g vectornator:mask="#Mask_3" opacity="0.103824">
<clipPath id="ClipPath_3">
<use overflow="visible" fill="none" xlink:href="#Mask_3"/>
</clipPath>
<g clip-path="url(#ClipPath_3)">
<path fill="#ecf1f7" d="M734.672+452.868C744.805+436.752+747.346+416.758+745.236+397.838C743.139+379.039+737.379+359.313+729.333+342.215C721.708+326.012+710.671+311.556+707.525+293.505C703.37+269.656+714.255+246.734+716.782+223.34C721.812+176.771+690.339+135.738+651.296+113.579C619.586+95.5829+582.409+88.8309+545.95+89.3107C513.137+89.7429+480.382+95.5651+448.585+103.392C417.943+110.936+387.984+120.875+355.866+117.74C329.152+115.132+305.093+104.036+280.216+95.7634C220.822+76.0123+148.877+73.2253+94.5661+103.294C59.7104+122.592+35.3139+153.93+24.4938+187.626C16.5686+212.306+14.2174+240.683+20.0266+265.66C26.5517+293.725+38.6092+318.446+35.4256+348.01C32.8131+372.268+23.9013+395.919+24.6897+420.527C25.3665+441.677+33.2893+462.83+45.6057+479.936C46.4025+481.041+47.2504+482.129+48.2027+483.097L700.039+483.097C713.687+475.742+726.424+465.987+734.672+452.868" opacity="0.470001"/>
</g>
</g>
<path d="M648.989+436.719C651.298+418.744+645.892+402.049+646.6+384.58C647.965+350.988+678.824+327.795+689.578+297.599C703.195+259.361+702.542+216.512+686.005+179.251C678.035+161.294+666.392+144.604+650.494+133.063C625.983+115.27+593.868+111.368+563.666+113.626C518.717+116.984+471.287+135.679+426.094+130.58C401.153+127.767+393.539+101.834+380.659+84.7287C366.091+65.3814+346.252+50.1842+324.32+40.0693C283.923+21.4368+235.44+19.6734+194.153+36.5675C150.073+54.6039+111.653+98.6506+114.179+148.462C115.347+171.506+124.948+194.395+120.503+217.037C114.925+245.453+92.6379+271.348+76.4896+294.5C58.655+320.071+47.8574+350.563+45.7401+381.674C43.3391+416.945+52.1251+452.886+70.4822+483.097L633.492+483.097C641.665+468.868+646.899+452.987+648.989+436.719" fill="#c1d5ed" opacity="0.849456"/>
<path d="M257.789+473.543L911.593+473.543L911.593+15.3689L257.789+15.3689L257.789+473.543Z" fill="none" opacity="0.531437"/>
<g vectornator:mask="#Mask_4" opacity="0.195114">
<clipPath id="ClipPath_4">
<use overflow="visible" xlink:href="#Mask_4" fill="none"/>
</clipPath>
<g clip-path="url(#ClipPath_4)">
<path opacity="0.580002" d="M740.671+304.383C740.671+307.334+738.278+309.727+735.327+309.727C732.376+309.727+729.984+307.334+729.984+304.383C729.984+301.432+732.376+299.04+735.327+299.04C738.278+299.04+740.671+301.432+740.671+304.383" fill="#3e479b"/>
</g>
</g>
<g vectornator:mask="#Mask_5" opacity="0.195114">
<clipPath id="ClipPath_5">
<use overflow="visible" xlink:href="#Mask_5" fill="none"/>
</clipPath>
<g clip-path="url(#ClipPath_5)">
<path opacity="0.580002" fill="#ef929c" d="M701.484+452.817C701.484+455.112+699.624+456.973+697.328+456.973C695.033+456.973+693.172+455.112+693.172+452.817C693.172+450.521+695.033+448.66+697.328+448.66C699.624+448.66+701.484+450.521+701.484+452.817"/>
</g>
</g>
<g vectornator:mask="#Mask_6" opacity="0.195114">
<clipPath id="ClipPath_6">
<use overflow="visible" fill="none" xlink:href="#Mask_6"/>
</clipPath>
<g clip-path="url(#ClipPath_6)">
<path d="M57.878+119.139C57.878+122.089+55.4852+124.482+52.5344+124.482C49.5835+124.482+47.1908+122.089+47.1908+119.139C47.1908+116.188+49.5835+113.795+52.5344+113.795C55.4852+113.795+57.878+116.188+57.878+119.139" opacity="0.580002" fill="#ef929c"/>
</g>
</g>
<g opacity="0.195114" vectornator:mask="#Mask_7">
<clipPath id="ClipPath_7">
<use fill="none" overflow="visible" xlink:href="#Mask_7"/>
</clipPath>
<g clip-path="url(#ClipPath_7)">
<path opacity="0.580002" d="M16.3167+319.82C16.3167+322.116+14.4559+323.976+12.1605+323.976C9.86517+323.976+8.00441+322.116+8.00441+319.82C8.00441+317.525+9.86517+315.664+12.1605+315.664C14.4559+315.664+16.3167+317.525+16.3167+319.82" fill="#3e479b"/>
</g>
</g>
<g opacity="0.195114" vectornator:mask="#Mask_8">
<clipPath id="ClipPath_8">
<use xlink:href="#Mask_8" fill="none" overflow="visible"/>
</clipPath>
<g clip-path="url(#ClipPath_8)">
<path opacity="0.580002" fill="#3e479b" d="M19.8791+145.263C19.8791+146.247+19.0823+147.044+18.0979+147.044C17.1135+147.044+16.3167+146.247+16.3167+145.263C16.3167+144.278+17.1135+143.482+18.0979+143.482C19.0823+143.482+19.8791+144.278+19.8791+145.263"/>
</g>
</g>
<g opacity="0.195114" vectornator:mask="#Mask_9">
<clipPath id="ClipPath_9">
<use xlink:href="#Mask_9" overflow="visible" fill="none"/>
</clipPath>
<g clip-path="url(#ClipPath_9)">
<path d="M459.786+65.3664C459.047+68.8314+455.636+71.0413+452.171+70.3015C448.705+69.5617+446.496+66.1513+447.236+62.6863C447.976+59.2201+451.385+57.0102+454.851+57.75C458.318+58.491+460.526+61.9002+459.786+65.3664" opacity="0.580002" fill="#ef929c"/>
</g>
</g>
<g opacity="0.195114" vectornator:mask="#Mask_10">
<clipPath id="ClipPath_10">
<use xlink:href="#Mask_10" overflow="visible" fill="none"/>
</clipPath>
<g clip-path="url(#ClipPath_10)">
<path opacity="0.580002" d="M408.609+86.5158C408.362+87.6712+407.226+88.4074+406.071+88.1604C404.916+87.9134+404.18+86.777+404.426+85.6228C404.673+84.4662+405.809+83.73+406.964+83.977C408.12+84.224+408.856+85.3604+408.609+86.5158" fill="#3e479b"/>
</g>
</g>
<path opacity="1" d="M29.7569+15.9227L920.356+15.9227L920.356+609.656L29.7569+609.656L29.7569+15.9227Z" fill="none"/>
<path d="M118.092+423.153C110.078+418.812+107.1+408.797+111.44+400.783C115.781+392.77+125.796+389.792+133.811+394.132C141.824+398.472+144.802+408.487+140.462+416.502C136.121+424.515+126.106+427.493+118.092+423.153" opacity="0.360001" fill="#599af2"/>
<path d="M95.326+332.75L156.577+332.75L156.577+271.5L95.326+271.5L95.326+332.75Z" opacity="0.0466564" fill="none"/>
<path stroke-width="1" fill="none" d="M314.126+426.537C304.243+421.184+300.571+408.833+305.924+398.951C311.276+389.068+323.627+385.395+333.51+390.748C343.392+396.101+347.065+408.452+341.712+418.334C336.36+428.217+324.009+431.89+314.126+426.537Z" opacity="0.179993" stroke-linecap="butt" stroke-linejoin="miter" stroke="#4c65ba"/>
<path d="M284.04+263.533L360.763+263.533L360.763+186.809L284.04+186.809L284.04+263.533Z" fill="none" opacity="0.00583132"/>
<path d="M248.382+546.982L64.6392+546.982C59.1412+546.982+54.6846+542.526+54.6846+537.028L54.6846+408.253C54.6846+402.756+59.1412+398.299+64.6392+398.299L248.382+398.299C253.878+398.299+258.335+402.756+258.335+408.253L258.335+537.028C258.335+542.526+253.878+546.982+248.382+546.982" opacity="1" fill="#ffffff"/>
<path d="M54.685+439.38L54.685+405.853C54.685+401.681+58.0669+398.299+62.2385+398.299L250.782+398.299C254.953+398.299+258.335+401.681+258.335+405.853L258.335+438.584L54.685+439.38Z" opacity="1" fill="#ef929c"/>
<path opacity="1" fill="#ef929c" d="M92.982+465.432L70.4545+465.432L70.4545+447.41L92.982+447.41L92.982+465.432Z"/>
<path opacity="0.539993" fill="#ef929c" d="M92.982+496.971L70.4545+496.971L70.4545+478.949L92.982+478.949L92.982+496.971Z"/>
<path d="M70.4545+496.971L92.982+496.971L92.982+478.949L70.4545+478.949L70.4545+496.971Z" fill="none" opacity="0.157458"/>
<path fill="#ef929c" opacity="0.539993" d="M92.982+527.609L70.4545+527.609L70.4545+509.586L92.982+509.586L92.982+527.609Z"/>
<path opacity="0.157458" fill="none" d="M70.4545+527.609L92.982+527.609L92.982+509.586L70.4545+509.586L70.4545+527.609Z"/>
<path d="M131.73+465.432L109.202+465.432L109.202+447.41L131.73+447.41L131.73+465.432Z" opacity="0.539993" fill="#ef929c"/>
<path opacity="0.157458" d="M109.202+465.432L131.73+465.432L131.73+447.41L109.202+447.41L109.202+465.432Z" fill="none"/>
<path opacity="1" d="M131.73+496.971L109.202+496.971L109.202+478.949L131.73+478.949L131.73+496.971Z" fill="#ef929c"/>
<path opacity="0.539993" d="M131.73+527.609L109.202+527.609L109.202+509.586L131.73+509.586L131.73+527.609Z" fill="#ef929c"/>
<path opacity="0.157458" fill="none" d="M109.202+527.609L131.73+527.609L131.73+509.586L109.202+509.586L109.202+527.609Z"/>
<g opacity="0.979996">
<g opacity="0.125" vectornator:mask="#Mask_11">
<clipPath id="ClipPath_11">
<use xlink:href="#Mask_11" overflow="visible" fill="none"/>
</clipPath>
<g clip-path="url(#ClipPath_11)">
<path opacity="0.5" d="M169.576+465.432L147.048+465.432L147.048+447.41L169.576+447.41L169.576+465.432Z" fill="#ef929c"/>
</g>
</g>
<g vectornator:mask="#Mask_12" opacity="0.125">
<clipPath id="ClipPath_12">
<use overflow="visible" xlink:href="#Mask_12" fill="none"/>
</clipPath>
<g clip-path="url(#ClipPath_12)">
<path fill="#ef929c" opacity="0.5" d="M169.576+496.971L147.048+496.971L147.048+478.949L169.576+478.949L169.576+496.971Z"/>
</g>
</g>
<path d="M169.576+527.609L147.048+527.609L147.048+509.586L169.576+509.586L169.576+527.609Z" opacity="0.979996" fill="#ef929c"/>
</g>
<path opacity="0.960392" fill="none" d="M147.048+527.609L169.576+527.609L169.576+447.41L147.048+447.41L147.048+527.609Z"/>
<g opacity="0.539993">
<path d="M208.324+465.432L185.797+465.432L185.797+447.41L208.324+447.41L208.324+465.432Z" opacity="0.539993" fill="#ef929c"/>
<path fill="#ef929c" opacity="0.539993" d="M208.324+496.971L185.797+496.971L185.797+478.949L208.324+478.949L208.324+496.971Z"/>
<path fill="#ef929c" d="M208.324+527.609L185.797+527.609L185.797+509.586L208.324+509.586L208.324+527.609Z" opacity="0.539993"/>
</g>
<path d="M185.797+527.609L208.324+527.609L208.324+447.41L185.797+447.41L185.797+527.609Z" opacity="0.291592" fill="none"/>
<path d="M245.27+465.432L222.742+465.432L222.742+447.41L245.27+447.41L245.27+465.432Z" fill="#ef929c" opacity="0.429993"/>
<path fill="none" d="M222.741+465.432L245.27+465.432L245.27+447.41L222.741+447.41L222.741+465.432Z" opacity="0.0795031"/>
<path d="M245.27+496.971L222.742+496.971L222.742+478.949L245.27+478.949L245.27+496.971Z" opacity="1" fill="#ef929c"/>
<path d="M245.27+527.609L222.742+527.609L222.742+509.586L245.27+509.586L245.27+527.609Z" fill="#ef929c" opacity="0.429993"/>
<path opacity="0.0795031" fill="none" d="M222.741+527.609L245.27+527.609L245.27+509.586L222.741+509.586L222.741+527.609Z"/>
<path stroke="#ffffff" stroke-linejoin="round" stroke-width="1" opacity="1" fill="none" d="M128.902+456.141C128.902+460.075+125.711+463.266+121.777+463.266C117.843+463.266+114.652+460.075+114.652+456.141C114.652+452.207+117.843+449.016+121.777+449.016C125.711+449.016+128.902+452.207+128.902+456.141Z" stroke-linecap="round"/>
<path d="M118.498+450.797L124.461+460.891" fill="none" stroke-linejoin="round" stroke="#ffffff" stroke-width="1" stroke-linecap="round" opacity="1"/>
<path stroke="#ffffff" stroke-linejoin="round" stroke-linecap="round" stroke-width="1" d="M126.527+452.861L116.433+458.826" fill="none" opacity="1"/>
<path fill="#ffffff" opacity="0.580002" d="M88.6402+413.618C88.6402+418.594+84.6064+422.629+79.6297+422.629C74.6531+422.629+70.618+418.594+70.618+413.618C70.618+408.642+74.6531+404.607+79.6297+404.607C84.6064+404.607+88.6402+408.642+88.6402+413.618"/>
<path opacity="0.195114" fill="none" d="M70.6184+422.629L88.6406+422.629L88.6406+404.607L70.6184+404.607L70.6184+422.629Z"/>
<path d="M79.6293+416.862L79.6293+416.862C77.4491+416.862+75.6643+415.078+75.6643+412.897L75.6643+386.946C75.6643+384.765+77.4491+382.98+79.6293+382.98C81.8094+382.98+83.5942+384.765+83.5942+386.946L83.5942+412.897C83.5942+415.078+81.8094+416.862+79.6293+416.862" opacity="1" fill="#3e479b"/>
<path opacity="0.580002" fill="#ffffff" d="M115.327+413.618C115.327+418.594+111.293+422.629+106.316+422.629C101.34+422.629+97.3048+418.594+97.3048+413.618C97.3048+408.642+101.34+404.607+106.316+404.607C111.293+404.607+115.327+408.642+115.327+413.618"/>
<path opacity="0.195114" fill="none" d="M97.3043+422.629L115.326+422.629L115.326+404.607L97.3043+404.607L97.3043+422.629Z"/>
<path opacity="1" fill="#3e479b" d="M106.316+416.862L106.316+416.862C104.136+416.862+102.351+415.078+102.351+412.897L102.351+386.946C102.351+384.765+104.136+382.98+106.316+382.98C108.496+382.98+110.281+384.765+110.281+386.946L110.281+412.897C110.281+415.078+108.496+416.862+106.316+416.862"/>
<path opacity="0.580002" fill="#ffffff" d="M140.489+413.618C140.489+418.594+136.455+422.629+131.478+422.629C126.501+422.629+122.466+418.594+122.466+413.618C122.466+408.642+126.501+404.607+131.478+404.607C136.455+404.607+140.489+408.642+140.489+413.618"/>
<path opacity="0.195114" fill="none" d="M122.467+422.629L140.489+422.629L140.489+404.607L122.467+404.607L122.467+422.629Z"/>
<path fill="#3e479b" opacity="1" d="M131.478+416.862L131.478+416.862C129.298+416.862+127.513+415.078+127.513+412.897L127.513+386.946C127.513+384.765+129.298+382.98+131.478+382.98C133.658+382.98+135.443+384.765+135.443+386.946L135.443+412.897C135.443+415.078+133.658+416.862+131.478+416.862"/>
<path d="M167.175+413.618C167.175+418.594+163.141+422.629+158.165+422.629C153.188+422.629+149.153+418.594+149.153+413.618C149.153+408.642+153.188+404.607+158.165+404.607C163.141+404.607+167.175+408.642+167.175+413.618" fill="#ffffff" opacity="0.580002"/>
<path d="M149.154+422.629L167.175+422.629L167.175+404.607L149.154+404.607L149.154+422.629Z" fill="none" opacity="0.195114"/>
<path d="M158.164+416.862L158.164+416.862C155.984+416.862+154.199+415.078+154.199+412.897L154.199+386.946C154.199+384.765+155.984+382.98+158.164+382.98C160.345+382.98+162.129+384.765+162.129+386.946L162.129+412.897C162.129+415.078+160.345+416.862+158.164+416.862" opacity="1" fill="#3e479b"/>
<path fill="#ffffff" opacity="0.580002" d="M192.268+413.618C192.268+418.594+188.234+422.629+183.257+422.629C178.28+422.629+174.245+418.594+174.245+413.618C174.245+408.642+178.28+404.607+183.257+404.607C188.234+404.607+192.268+408.642+192.268+413.618"/>
<path d="M174.246+422.629L192.268+422.629L192.268+404.607L174.246+404.607L174.246+422.629Z" opacity="0.195114" fill="none"/>
<path d="M183.257+416.862L183.257+416.862C181.076+416.862+179.292+415.078+179.292+412.897L179.292+386.946C179.292+384.765+181.076+382.98+183.257+382.98C185.437+382.98+187.221+384.765+187.221+386.946L187.221+412.897C187.221+415.078+185.437+416.862+183.257+416.862" fill="#3e479b" opacity="1"/>
<path fill="#ffffff" d="M218.954+413.618C218.954+418.594+214.92+422.629+209.944+422.629C204.967+422.629+200.932+418.594+200.932+413.618C200.932+408.642+204.967+404.607+209.944+404.607C214.92+404.607+218.954+408.642+218.954+413.618" opacity="0.580002"/>
<path fill="none" d="M200.932+422.629L218.954+422.629L218.954+404.607L200.932+404.607L200.932+422.629Z" opacity="0.195114"/>
<path opacity="1" fill="#3e479b" d="M209.943+416.862L209.943+416.862C207.763+416.862+205.978+415.078+205.978+412.897L205.978+386.946C205.978+384.765+207.763+382.98+209.943+382.98C212.123+382.98+213.908+384.765+213.908+386.946L213.908+412.897C213.908+415.078+212.123+416.862+209.943+416.862"/>
<path fill="#ffffff" d="M244.116+413.618C244.116+418.594+240.082+422.629+235.105+422.629C230.129+422.629+226.094+418.594+226.094+413.618C226.094+408.642+230.129+404.607+235.105+404.607C240.082+404.607+244.116+408.642+244.116+413.618" opacity="0.580002"/>
<path fill="none" d="M226.094+422.629L244.117+422.629L244.117+404.607L226.094+404.607L226.094+422.629Z" opacity="0.195114"/>
<path fill="#3e479b" d="M235.105+416.862L235.105+416.862C232.925+416.862+231.14+415.078+231.14+412.897L231.14+386.946C231.14+384.765+232.925+382.98+235.105+382.98C237.285+382.98+239.07+384.765+239.07+386.946L239.07+412.897C239.07+415.078+237.285+416.862+235.105+416.862" opacity="1"/>
<path opacity="1" d="M230.76+546.561C230.76+576.168+207.039+600.169+177.779+600.169C148.517+600.169+124.797+576.168+124.797+546.561C124.797+516.953+148.517+492.952+177.779+492.952C207.039+492.952+230.76+516.953+230.76+546.561" fill="#599af2"/>
<path fill="#ffffff" opacity="1" d="M218.503+546.561C218.503+569.319+200.271+587.767+177.779+587.767C155.287+587.767+137.054+569.319+137.054+546.561C137.054+523.803+155.287+505.355+177.779+505.355C200.271+505.355+218.503+523.803+218.503+546.561"/>
<path d="M178.685+543.599L176.871+543.599C176.281+543.599+175.803+543.121+175.803+542.531L175.803+516.689C175.803+516.099+176.281+515.62+176.871+515.62L178.685+515.62C179.275+515.62+179.753+516.099+179.753+516.689L179.753+542.531C179.753+543.121+179.275+543.599+178.685+543.599" opacity="1" fill="#599af2"/>
<path d="M177.893+548.146L177.893+546.333C177.893+545.743+178.371+545.264+178.961+545.264L199.294+545.264C199.886+545.264+200.363+545.743+200.363+546.333L200.363+548.146C200.363+548.737+199.886+549.214+199.294+549.214L178.961+549.214C178.371+549.214+177.893+548.737+177.893+548.146" opacity="1" fill="#599af2"/>
<path d="M183.704+546.561C183.704+549.872+181.051+552.557+177.778+552.557C174.506+552.557+171.854+549.872+171.854+546.561C171.854+543.249+174.506+540.566+177.778+540.566C181.051+540.566+183.704+543.249+183.704+546.561" opacity="1" fill="#3e479b"/>
<path fill="#ffffff" d="M64.6411+342.27L18.0413+342.27C16.9655+342.27+16.0927+343.142+16.0927+344.219L16.0927+349.227L16.0927+351.678L16.0927+375.783L16.0927+377.876L16.0927+378.194C16.0927+379.271+16.9655+380.144+18.0413+380.144L64.6411+380.144C65.7181+380.144+66.5909+379.271+66.5909+378.194L66.5909+377.793L66.5909+375.914L66.5909+349.823L66.5909+347.382L66.5909+344.219C66.5909+343.142+65.7181+342.27+64.6411+342.27" opacity="1"/>
<path d="M35.7262+359.21L40.8358+361.893C41.141+362.052+41.502+362.048+41.8036+361.878L64.4913+348.524L66.1989+347.519C66.3224+347.446+66.4554+347.402+66.5908+347.382L66.5908+344.218C66.5908+343.142+65.718+342.27+64.6409+342.27L18.0412+342.27C16.9654+342.27+16.0926+343.142+16.0926+344.218L16.0926+349.227L17.324+349.853L35.7262+359.21Z" opacity="0.800003" fill="#599af2"/>
<path fill="none" d="M16.0924+362.008L66.5905+362.008L66.5905+342.269L16.0924+342.269L16.0924+362.008Z" opacity="0.512006"/>
<path fill="#599af2" opacity="0.800003" d="M16.0924+351.678L16.0924+375.782L34.1478+360.858L16.0924+351.678Z"/>
<path d="M16.0924+375.783L34.1478+375.783L34.1478+351.677L16.0924+351.677L16.0924+375.783Z" opacity="0.512006" fill="none"/>
<path d="M66.5904+375.915L66.5904+349.822L48.3272+360.574L66.5904+375.915Z" opacity="0.800003" fill="#599af2"/>
<path fill="none" d="M48.3273+375.915L66.5905+375.915L66.5905+349.824L48.3273+349.824L48.3273+375.915Z" opacity="0.512006"/>
<path fill="#599af2" d="M65.3211+377.702L46.3288+361.748L42.8923+363.772C42.3923+364.053+41.8461+364.193+41.3011+364.193C40.7928+364.193+40.2858+364.071+39.8203+363.827L36.2223+361.937C36.1712+362.004+36.1154+362.067+36.0489+362.121L17.1931+377.708C16.9889+377.875+16.7431+377.957+16.4973+377.957C16.3595+377.957+16.2218+377.927+16.0924+377.875L16.0924+378.194C16.0924+379.271+16.9651+380.143+18.0422+380.143L64.6407+380.143C65.7177+380.143+66.5905+379.271+66.5905+378.194L66.5905+377.792C66.4172+377.898+66.2224+377.957+66.0229+377.957C65.7759+377.957+65.5266+377.874+65.3211+377.702" opacity="0.800003"/>
<path fill="none" d="M16.0924+380.143L66.5905+380.143L66.5905+361.749L16.0924+361.749L16.0924+380.143Z" opacity="0.512006"/>
<path fill="#4c65ba" opacity="1" d="M66.5904+347.381C66.4562+347.401+66.322+347.445+66.1985+347.519L64.491+348.524L41.8032+361.878C41.5028+362.048+41.1406+362.051+40.8366+361.892L35.7258+359.21L17.3236+349.853L16.0922+349.227L16.0922+351.677L34.1476+360.858L16.0922+375.782L16.0922+377.875C16.2217+377.928+16.3594+377.958+16.4972+377.958C16.743+377.958+16.9888+377.876+17.193+377.708L36.0488+362.121C36.1153+362.067+36.1711+362.004+36.2222+361.937L39.8214+363.828C40.2868+364.071+40.7927+364.193+41.3021+364.193C41.846+364.193+42.3922+364.053+42.8921+363.772L46.3299+361.75L65.321+377.702C65.5264+377.874+65.7758+377.958+66.0228+377.958C66.2223+377.958+66.417+377.898+66.5904+377.792L66.5904+375.915L48.3272+360.573L66.5904+349.823L66.5904+347.381Z"/>
<path opacity="1" d="M536.202+427.642C536.202+529.949+453.265+612.886+350.958+612.886C248.65+612.886+165.713+529.949+165.713+427.642C165.713+325.334+248.65+242.397+350.958+242.397C453.265+242.397+536.202+325.334+536.202+427.642" fill="#3e479b"/>
<path opacity="0.550003" fill="#ffffff" d="M519.311+427.642C519.311+520.62+443.936+595.995+350.958+595.995C257.978+595.995+182.605+520.62+182.605+427.642C182.605+334.663+257.978+259.289+350.958+259.289C443.936+259.289+519.311+334.663+519.311+427.642"/>
<path opacity="0.166378" d="M182.605+595.995L519.311+595.995L519.311+259.289L182.605+259.289L182.605+595.995Z" fill="none"/>
<path fill="#ffffff" d="M502.138+427.642C502.138+511.136+434.453+578.822+350.958+578.822C267.464+578.822+199.778+511.136+199.778+427.642C199.778+344.147+267.464+276.462+350.958+276.462C434.453+276.462+502.138+344.147+502.138+427.642" opacity="1"/>
<path d="M350.853+310.614L350.553+310.614C348.382+310.614+346.624+308.855+346.624+306.684L346.624+287.007C346.624+284.836+348.382+283.078+350.553+283.078L350.853+283.078C353.023+283.078+354.783+284.836+354.783+287.007L354.783+306.684C354.783+308.855+353.023+310.614+350.853+310.614" opacity="1" fill="#373449"/>
<path opacity="1" d="M351.363+572.205L351.063+572.205C348.892+572.205+347.133+570.448+347.133+568.276L347.133+548.598C347.133+546.429+348.892+544.67+351.063+544.67L351.363+544.67C353.534+544.67+355.292+546.429+355.292+548.598L355.292+568.276C355.292+570.448+353.534+572.205+351.363+572.205" fill="#373449"/>
<path opacity="1" d="M467.986+427.537L467.986+427.236C467.986+425.066+469.744+423.306+471.915+423.306L491.592+423.306C493.763+423.306+495.521+425.066+495.521+427.236L495.521+427.537C495.521+429.707+493.763+431.467+491.592+431.467L471.915+431.467C469.744+431.467+467.986+429.707+467.986+427.537" fill="#373449"/>
<path fill="#373449" d="M206.394+428.048L206.394+427.746C206.394+425.577+208.152+423.817+210.323+423.817L230+423.817C232.171+423.817+233.93+425.577+233.93+427.746L233.93+428.048C233.93+430.217+232.171+431.977+230+431.977L210.323+431.977C208.152+431.977+206.394+430.217+206.394+428.048" opacity="1"/>
<path d="M437.316+341.135L437.103+340.923C435.569+339.389+435.569+336.901+437.103+335.367L444.296+328.174C445.83+326.64+448.318+326.64+449.852+328.174L450.064+328.387C451.599+329.922+451.599+332.409+450.064+333.944L442.873+341.135C441.339+342.67+438.851+342.67+437.316+341.135" opacity="1" fill="#373449"/>
<path opacity="1" d="M251.943+527.23L251.73+527.017C250.196+525.482+250.196+522.996+251.73+521.461L260.572+512.618C262.108+511.084+264.594+511.084+266.128+512.618L266.341+512.831C267.876+514.365+267.876+516.854+266.341+518.388L257.499+527.23C255.965+528.764+253.477+528.764+251.943+527.23" fill="#373449"/>
<path d="M437.464+514.121L437.677+513.908C439.212+512.373+441.699+512.373+443.233+513.908L450.425+521.1C451.96+522.634+451.96+525.123+450.425+526.658L450.212+526.869C448.677+528.403+446.191+528.403+444.657+526.869L437.464+519.678C435.93+518.143+435.93+515.656+437.464+514.121" fill="#373449" opacity="1"/>
<path opacity="1" d="M251.369+328.748L251.582+328.535C253.116+327.001+255.604+327.001+257.138+328.535L265.981+337.378C267.515+338.912+267.515+341.4+265.981+342.934L265.769+343.147C264.233+344.681+261.747+344.681+260.211+343.147L251.369+334.305C249.835+332.77+249.835+330.282+251.369+328.748" fill="#373449"/>
<path fill="#3e479b" d="M351.067+429.978L350.736+429.978C348.34+429.978+346.397+428.036+346.397+425.641L346.397+330.715C346.397+328.32+348.34+326.377+350.736+326.377L351.067+326.377C353.464+326.377+355.406+328.32+355.406+330.715L355.406+425.641C355.406+428.036+353.464+429.978+351.067+429.978" opacity="1"/>
<path opacity="1" d="M346.397+433.522L346.397+433.191C346.397+430.795+348.34+428.852+350.736+428.852L416.383+428.852C418.778+428.852+420.72+430.795+420.72+433.191L420.72+433.522C420.72+435.92+418.778+437.861+416.383+437.861L350.736+437.861C348.34+437.861+346.397+435.92+346.397+433.522" fill="#3e479b"/>
<path stroke-linecap="round" stroke-width="2" fill="none" stroke="#373449" opacity="1" d="M419.031+366.353L351.465+427.162" stroke-linejoin="round"/>
<path d="M367.287+427.642C367.287+436.661+359.977+443.971+350.958+443.971C341.94+443.971+334.629+436.661+334.629+427.642C334.629+418.623+341.94+411.313+350.958+411.313C359.977+411.313+367.287+418.623+367.287+427.642" opacity="1" fill="#4c65ba"/>
<path stroke-width="2" fill="none" stroke-linecap="round" stroke="#ffffff" stroke-linejoin="round" opacity="1" d="M698.284+527.847L698.284+537.545C698.284+541.244+695.286+544.243+691.587+544.243L668.227+544.243"/>
<path fill="none" opacity="1" d="M635.729+465.698L645.426+465.698C649.125+465.698+652.125+468.695+652.125+472.395L652.125+495.755" stroke-width="2" stroke="#ffffff" stroke-linecap="round" stroke-linejoin="round"/>
<path d="M572.798+560.638L667.106+560.638C668.228+560.638+669.137+559.727+669.137+558.605L669.137+498C669.137+496.878+668.228+495.967+667.106+495.967L572.798+495.967C571.676+495.967+570.765+496.878+570.765+498L570.765+558.605C570.765+559.727+571.676+560.638+572.798+560.638" opacity="1" fill="#ffffff"/>
<path opacity="0.660004" fill="#599af2" d="M572.798+560.638L667.106+560.638C668.228+560.638+669.137+559.727+669.137+558.605L669.137+498C669.137+496.878+668.228+495.967+667.106+495.967L572.798+495.967C571.676+495.967+570.765+496.878+570.765+498L570.765+558.605C570.765+559.727+571.676+560.638+572.798+560.638"/>
<path opacity="0.287501" fill="none" d="M570.766+560.638L669.137+560.638L669.137+495.967L570.766+495.967L570.766+560.638Z"/>
<path d="M585.894+526.025L654.008+526.025C654.818+526.025+655.475+525.369+655.475+524.56L655.475+510.186C655.475+509.376+654.818+508.72+654.008+508.72L585.894+508.72C585.084+508.72+584.429+509.376+584.429+510.186L584.429+524.56C584.429+525.369+585.084+526.025+585.894+526.025" opacity="1" fill="#ffffff"/>
<path d="M585.396+534.337L654.507+534.337C655.041+534.337+655.475+533.904+655.475+533.37C655.475+532.834+655.041+532.402+654.507+532.402L585.396+532.402C584.862+532.402+584.429+532.834+584.429+533.37C584.429+533.904+584.862+534.337+585.396+534.337" opacity="1" fill="#ffffff"/>
<path d="M585.396+539.871L654.507+539.871C655.041+539.871+655.475+539.438+655.475+538.903C655.475+538.368+655.041+537.934+654.507+537.934L585.396+537.934C584.862+537.934+584.429+538.368+584.429+538.903C584.429+539.438+584.862+539.871+585.396+539.871" opacity="1" fill="#ffffff"/>
<path fill="#ffffff" opacity="1" d="M585.396+545.875L654.507+545.875C655.041+545.875+655.475+545.441+655.475+544.907C655.475+544.371+655.041+543.939+654.507+543.939L585.396+543.939C584.862+543.939+584.429+544.371+584.429+544.907C584.429+545.441+584.862+545.875+585.396+545.875"/>
<path opacity="1" d="M585.396+551.408L654.507+551.408C655.041+551.408+655.475+550.975+655.475+550.441C655.475+549.905+655.041+549.472+654.507+549.472L585.396+549.472C584.862+549.472+584.429+549.905+584.429+550.441C584.429+550.975+584.862+551.408+585.396+551.408" fill="#ffffff"/>
<path fill="#ffffff" d="M687.565+528.758L709.914+528.758C711.037+528.758+711.947+527.848+711.947+526.725L711.947+512.573C711.947+511.451+711.037+510.542+709.914+510.542L687.565+510.542C686.443+510.542+685.533+511.451+685.533+512.573L685.533+526.725C685.533+527.848+686.443+528.758+687.565+528.758" opacity="1"/>
<path fill="#ef929c" d="M687.565+528.758L709.914+528.758C711.037+528.758+711.947+527.848+711.947+526.725L711.947+512.573C711.947+511.451+711.037+510.542+709.914+510.542L687.565+510.542C686.443+510.542+685.533+511.451+685.533+512.573L685.533+526.725C685.533+527.848+686.443+528.758+687.565+528.758" opacity="0.580002"/>
<path opacity="0.195114" fill="none" d="M685.532+528.758L711.947+528.758L711.947+510.541L685.532+510.541L685.532+528.758Z"/>
<g opacity="0.679993">
<g vectornator:mask="#Mask_13" opacity="0.704967">
<clipPath id="ClipPath_13">
<use fill="none" xlink:href="#Mask_13" overflow="visible"/>
</clipPath>
<g clip-path="url(#ClipPath_13)">
<path d="M633.005+477.665L510.885+477.665C509.783+477.665+508.89+476.772+508.89+475.671L508.89+398.619C508.89+397.517+509.783+396.624+510.885+396.624L633.005+396.624C634.106+396.624+634.999+397.517+634.999+398.619L634.999+475.671C634.999+476.772+634.106+477.665+633.005+477.665" opacity="0.889999" fill="#4c65ba"/>
</g>
</g>
<path opacity="0.679993" d="M615.071+417.013L525.463+417.013C525.134+417.013+524.866+416.744+524.866+416.414C524.866+416.084+525.134+415.817+525.463+415.817L615.071+415.817C615.4+415.817+615.669+416.084+615.669+416.414C615.669+416.744+615.4+417.013+615.071+417.013" fill="#ffffff"/>
<path opacity="0.679993" d="M562.121+441.077L525.463+441.077C525.134+441.077+524.866+440.809+524.866+440.48C524.866+440.15+525.134+439.882+525.463+439.882L562.121+439.882C562.45+439.882+562.719+440.15+562.719+440.48C562.719+440.809+562.45+441.077+562.121+441.077" fill="#ffffff"/>
<path fill="#ffffff" d="M562.121+455.426L525.463+455.426C525.134+455.426+524.866+455.157+524.866+454.827C524.866+454.498+525.134+454.23+525.463+454.23L562.121+454.23C562.45+454.23+562.719+454.498+562.719+454.827C562.719+455.157+562.45+455.426+562.121+455.426" opacity="0.679993"/>
<path opacity="0.679993" fill="#ffffff" d="M572.304+426.569L525.463+426.569C525.133+426.569+524.866+426.301+524.866+425.971C524.866+425.642+525.133+425.373+525.463+425.373L572.304+425.373C572.633+425.373+572.901+425.642+572.901+425.971C572.901+426.301+572.633+426.569+572.304+426.569"/>
<path fill="#ffffff" d="M614.114+426.806L581.488+426.806C580.96+426.806+580.531+426.484+580.531+426.088C580.531+425.693+580.96+425.374+581.488+425.374L614.114+425.374C614.642+425.374+615.072+425.693+615.072+426.088C615.072+426.484+614.642+426.806+614.114+426.806" opacity="0.679993"/>
<path fill="#ffffff" opacity="0.679993" d="M613.493+461.318L572.808+461.318C571.496+461.318+570.433+460.254+570.433+458.943L570.433+435.793C570.433+434.481+571.496+433.418+572.808+433.418L613.493+433.418C614.804+433.418+615.868+434.481+615.868+435.793L615.868+458.943C615.868+460.254+614.804+461.318+613.493+461.318"/>
<path stroke-linejoin="round" fill="none" d="M575.216+453.357L577.704+445.895C577.903+445.295+578.673+445.129+579.101+445.593L586.025+453.093C586.446+453.549+587.2+453.399+587.414+452.816L591.565+441.553C591.788+440.944+592.593+440.816+592.996+441.325L602.346+453.169C602.701+453.619+603.393+453.581+603.7+453.098L611.869+440.162" stroke-linecap="round" stroke-width="2" opacity="0.679993" stroke="#4c65ba"/>
<path fill="none" stroke-width="2" d="M609.305+440.528L612.236+439.795L612.236+442.728" opacity="0.679993" stroke-linejoin="round" stroke="#4c65ba" stroke-linecap="round"/>
</g>
<path opacity="0.46239" fill="none" d="M508.891+477.665L634.998+477.665L634.998+396.624L508.891+396.624L508.891+477.665Z"/>
<path d="M575.213+376.203L623.568+376.203L623.568+328.745L575.213+328.745L575.213+376.203Z" opacity="0.0593185" fill="none"/>
<path fill="none" opacity="0.45654" d="M575.213+376.203L623.568+376.203L623.568+328.745L575.213+328.745L575.213+376.203Z"/>
<path d="M584.487+325.453L664.076+325.453L664.076+245.865L584.487+245.865L584.487+325.453Z" fill="none" opacity="0.0593185"/>
<path d="M556.687+229.21L525.478+229.21L525.478+211.166L556.687+211.166L556.687+229.21Z" opacity="1" fill="#3e479b"/>
<path d="M559.35+216.804L522.814+216.804C521.516+216.804+520.462+215.751+520.462+214.452L520.462+206.751C520.462+205.452+521.516+204.399+522.814+204.399L559.35+204.399C560.65+204.399+561.702+205.452+561.702+206.751L561.702+214.452C561.702+215.751+560.65+216.804+559.35+216.804" opacity="1" fill="#4c65ba"/>
<path d="M615.763+301.017C615.763+342.749+582.327+376.58+541.082+376.58C499.837+376.58+466.403+342.749+466.403+301.017C466.403+259.284+499.837+225.453+541.082+225.453C582.327+225.453+615.763+259.284+615.763+301.017" opacity="1" fill="#ef929c"/>
<path fill="#ffffff" d="M598.486+301.017C598.486+333.095+572.785+359.1+541.082+359.1C509.38+359.1+483.679+333.095+483.679+301.017C483.679+268.939+509.38+242.935+541.082+242.935C572.785+242.935+598.486+268.939+598.486+301.017" opacity="1"/>
<path opacity="0.809998" fill="#ecf1f7" d="M592.352+326.428C583.036+345.772+563.417+359.1+540.72+359.1C518.621+359.1+499.44+346.466+489.846+327.946C487.766+323.931+513.064+301.334+539.605+300.993C566.282+300.648+594.206+322.581+592.352+326.428"/>
<path fill="none" opacity="0.531437" d="M489.725+359.1L592.44+359.1L592.44+300.988L489.725+300.988L489.725+359.1Z"/>
<path opacity="0.550003" fill="#ffffff" d="M573.091+338.702C567.276+350.778+555.025+359.1+540.857+359.1C527.059+359.1+515.084+351.212+509.093+339.649C507.795+337.144+523.588+323.034+540.161+322.821C556.815+322.607+574.249+336.3+573.091+338.702"/>
<path opacity="0.166378" fill="none" d="M509.019+359.1L573.147+359.1L573.147+322.819L509.019+322.819L509.019+359.1Z"/>
<path opacity="1" fill="#ef929c" d="M542.798+296.843L539.367+296.843C538.776+296.843+538.299+296.364+538.299+295.775L538.299+258.474C538.299+257.884+538.776+257.406+539.367+257.406L542.798+257.406C543.389+257.406+543.866+257.884+543.866+258.474L543.866+295.775C543.866+296.364+543.389+296.843+542.798+296.843"/>
<path opacity="1" d="M549.435+301.017C549.435+305.684+545.696+309.468+541.082+309.468C536.47+309.468+532.731+305.684+532.731+301.017C532.731+296.349+536.47+292.566+541.082+292.566C545.696+292.566+549.435+296.349+549.435+301.017" fill="#3e479b"/>
<path opacity="1" fill="#ffffff" d="M663.165+348.082L632.483+348.082C631.774+348.082+631.199+348.656+631.199+349.365L631.199+352.662L631.199+354.275L631.199+370.147L631.199+371.526L631.199+371.735C631.199+372.444+631.774+373.018+632.483+373.018L663.165+373.018C663.874+373.018+664.449+372.444+664.449+371.735L664.449+371.471L664.449+370.234L664.449+353.055L664.449+351.447L664.449+349.365C664.449+348.656+663.874+348.082+663.165+348.082"/>
<path fill="#599af2" d="M644.127+359.236L647.491+361.001C647.692+361.107+647.929+361.103+648.128+360.992L663.066+352.2L664.191+351.538C664.273+351.49+664.36+351.46+664.448+351.447L664.448+349.365C664.448+348.656+663.874+348.082+663.165+348.082L632.483+348.082C631.775+348.082+631.199+348.656+631.199+349.365L631.199+352.662L632.01+353.075L644.127+359.236Z" opacity="0.800003"/>
<path fill="none" d="M631.2+361.078L664.449+361.078L664.449+348.082L631.2+348.082L631.2+361.078Z" opacity="0.512006"/>
<path d="M631.2+354.276L631.2+370.147L643.087+360.321L631.2+354.276Z" opacity="0.800003" fill="#599af2"/>
<path opacity="0.512006" fill="none" d="M631.2+370.147L643.087+370.147L643.087+354.275L631.2+354.275L631.2+370.147Z"/>
<path fill="#599af2" opacity="0.800003" d="M664.449+370.234L664.449+353.055L652.423+360.134L664.449+370.234Z"/>
<path opacity="0.512006" fill="none" d="M652.423+370.234L664.449+370.234L664.449+353.055L652.423+353.055L652.423+370.234Z"/>
<path d="M663.613+371.411L651.109+360.907L648.845+362.239C648.516+362.424+648.155+362.517+647.798+362.517C647.462+362.517+647.129+362.436+646.823+362.276L644.453+361.031C644.421+361.074+644.384+361.117+644.34+361.153L631.924+371.415C631.79+371.525+631.627+371.58+631.467+371.58C631.375+371.58+631.285+371.56+631.199+371.525L631.199+371.734C631.199+372.444+631.774+373.019+632.483+373.019L663.165+373.019C663.874+373.019+664.449+372.444+664.449+371.734L664.449+371.47C664.335+371.541+664.206+371.58+664.076+371.58C663.912+371.58+663.748+371.524+663.613+371.411" opacity="0.800003" fill="#599af2"/>
<path opacity="0.512006" d="M631.2+373.018L664.449+373.018L664.449+360.907L631.2+360.907L631.2+373.018Z" fill="none"/>
<path d="M664.449+351.447C664.361+351.46+664.273+351.49+664.19+351.538L663.066+352.199L648.128+360.992C647.93+361.104+647.692+361.106+647.492+361.002L644.128+359.236L632.011+353.074L631.2+352.662L631.2+354.276L643.087+360.321L631.2+370.148L631.2+371.525C631.285+371.56+631.374+371.58+631.467+371.58C631.627+371.58+631.79+371.525+631.924+371.415L644.339+361.153C644.384+361.117+644.421+361.074+644.453+361.031L646.823+362.276C647.129+362.436+647.462+362.517+647.798+362.517C648.155+362.517+648.516+362.424+648.845+362.239L651.109+360.907L663.613+371.411C663.748+371.524+663.912+371.58+664.076+371.58C664.206+371.58+664.335+371.541+664.449+371.47L664.449+370.234L652.423+360.133L664.449+353.055L664.449+351.447Z" opacity="1" fill="#4c65ba"/>
<path d="M508.704+601.164L508.899+601.161L508.86+603.084L487.995+603.387L488.023+601.97C488.028+601.75+488.163+601.566+488.347+601.493C488.397+601.474+488.449+601.457+488.505+601.457L508.704+601.164Z" opacity="1" fill="#373449"/>
<path fill="#373449" opacity="1" d="M501.384+594.155L507.699+594.08C507.856+594.078+507.999+594.129+508.117+594.214C508.162+594.247+508.205+594.287+508.242+594.331C508.352+594.459+508.422+594.627+508.431+594.817L508.462+595.552L508.565+597.926L508.704+601.163L488.505+601.457C488.449+601.457+488.397+601.473+488.347+601.493C488.796+600.024+489.953+598.874+491.4+598.544L496.022+598.182C497.111+597.62+498.061+597.128+499.148+596.567L501.026+594.256C501.063+594.234+501.103+594.226+501.141+594.212C501.171+594.201+501.2+594.183+501.231+594.177C501.282+594.166+501.333+594.155+501.384+594.155"/>
<path opacity="1" fill="#373449" d="M540.095+601.226L540.29+601.225L540.237+603.148L519.37+603.32L519.408+601.902C519.416+601.682+519.552+601.498+519.736+601.428C519.786+601.408+519.838+601.394+519.894+601.393L540.095+601.226Z"/>
<path fill="#373449" d="M532.824+594.171L539.14+594.136C539.296+594.136+539.439+594.187+539.557+594.273C539.602+594.308+539.644+594.347+539.681+594.391C539.79+594.52+539.859+594.689+539.866+594.879L539.892+595.614L539.978+597.988L540.095+601.226L519.894+601.392C519.838+601.393+519.787+601.409+519.737+601.428C520.196+599.962+521.361+598.818+522.809+598.498L527.434+598.165C528.527+597.61+529.48+597.124+530.573+596.57L532.466+594.27C532.503+594.248+532.543+594.241+532.581+594.227C532.611+594.216+532.64+594.2+532.671+594.193C532.722+594.182+532.773+594.171+532.824+594.171" opacity="1"/>
<path d="M429.321+357.639C429.512+356.955+430.224+356.557+430.906+356.75L432.039+357.068C432.045+357.019+432.051+356.972+432.058+356.923L430.26+356.483C429.471+356.288+428.883+355.458+429.181+354.7C429.781+353.176+431.024+353.747+431.814+353.941L432.767+354.272C432.741+354.244+431.137+353.62+431.114+353.59C430.896+353.319+430.785+352.964+430.843+352.594C430.953+351.892+431.609+351.411+432.311+351.52L436.827+352.22C439.507+352.436+443.058+352.911+444.673+353.351L443.009+349.669C442.645+348.859+443.003+347.908+443.813+347.542C444.622+347.176+445.574+347.536+445.939+348.345L448.912+354.927C449.383+355.663+449.731+356.253+449.804+356.5C450.065+357.399+452.484+362.41+452.484+362.41L446.41+364.427C446.41+364.427+437.221+361.636+433.442+360.134L430.211+359.224C429.527+359.032+429.129+358.323+429.321+357.639" opacity="1" fill="#f9dcd2"/>
<path opacity="1" fill="#ffa06e" d="M444.648+353.506C444.643+353.497+444.636+353.489+444.63+353.481C444.546+353.383+444.397+353.374+444.3+353.458C443.465+354.185+443.039+354.992+443.032+355.861C443.021+357.312+444.193+358.378+444.242+358.423C444.338+358.509+444.487+358.501+444.573+358.404C444.659+358.309+444.652+358.161+444.555+358.074C444.545+358.064+443.489+357.099+443.5+355.861C443.507+355.135+443.88+354.445+444.608+353.812C444.697+353.734+444.713+353.602+444.648+353.506"/>
<path d="M521.089+388.642L518.681+388.642L512.255+388.642L509.845+388.642C505.511+388.642+500.778+390.677+496.759+393.54C490.06+393.087+481.68+392.391+480.076+391.123C477.611+389.173+457.271+364.979+452.803+359.652C452.317+359.073+451.463+358.977+450.86+359.43L445.236+363.668C444.643+364.115+444.494+364.941+444.894+365.567C448.891+371.809+468.568+402.385+471.635+404.244C472.972+405.055+479.914+407.625+487.858+410.447L489.571+420.44C492.148+435.466+492.706+450.767+491.23+465.939L490.417+474.315C490.417+474.944+489.765+475.451+490.427+475.451L539.321+475.451C539.983+475.451+536.203+457.956+536.203+457.329L543.208+408.904C544.844+396.434+532.476+388.642+521.089+388.642" opacity="1" fill="#ef929c"/>
<path opacity="1" fill="#f9dcd2" d="M449.231+423.82C449.074+423.349+449.413+422.882+449.913+422.878L455.548+422.832L449.005+421.997C448.617+421.947+448.318+421.62+448.313+421.241L448.312+421.155C448.305+420.742+448.646+420.418+449.068+420.434L455.509+420.694L450.209+419.726C449.788+419.649+449.498+419.248+449.569+418.841L449.601+418.666C449.667+418.294+450.013+418.044+450.403+418.087L455.481+418.653C455.519+418.657+455.558+418.659+455.597+418.657L459.544+418.502C460.147+418.48+460.452+417.808+460.077+417.327L458.101+414.806C457.861+414.5+457.886+414.079+458.161+413.824L458.259+413.732C458.515+413.493+458.918+413.472+459.219+413.683L463.318+416.552C465.568+417.992+466.63+419.192+467.113+420.091L466.533+427.677C466.511+427.696+466.474+427.688+466.444+427.691C463.8+427.859+456.843+427.153+456.267+427.094C456.239+427.091+456.214+427.09+456.187+427.09L451.891+427.098C451.423+427.099+451.047+426.689+451.102+426.237C451.14+425.923+451.383+425.675+451.704+425.625L455.562+425.017L449.986+424.555C449.669+424.529+449.395+424.314+449.296+424.017L449.231+423.82Z"/>
<path opacity="1" fill="#ef929c" d="M537.512+397.419C534.011+394.825+529.136+395.266+526.126+398.415C526.121+398.42+526.118+398.425+526.114+398.428C523.363+401.276+511.773+415.378+508.745+416.14C505.698+416.91+474.109+418.302+467.171+418.6C466.416+418.633+465.823+419.25+465.816+420.006L465.751+427.047C465.743+427.789+466.303+428.412+467.043+428.475C474.417+429.106+510.668+432.128+514.009+430.828C515.792+430.136+527.48+422.593+537.069+416.321C543.723+411.968+544.059+402.294+537.681+397.545C537.624+397.502+537.567+397.46+537.512+397.419"/>
<path stroke-linejoin="round" d="M467.043+428.474C474.417+429.106+510.667+432.128+514.01+430.828C514.825+430.512+517.718+428.758+521.535+426.349" stroke-width="1" fill="none" stroke="#ecf1f7" stroke-linecap="round" opacity="0.309998"/>
<path d="M466.449+431.743L522.129+431.743L522.129+425.755L466.449+425.755L466.449+431.743Z" fill="none" opacity="0.0297904"/>
<path stroke="#ecf1f7" opacity="0.309998" stroke-linecap="round" fill="none" stroke-linejoin="round" stroke-width="1" d="M537.512+397.419C534.011+394.825+529.136+395.266+526.126+398.415C526.121+398.42+526.118+398.425+526.114+398.428C523.363+401.276+511.773+415.378+508.745+416.14C505.698+416.91+474.109+418.302+467.171+418.6"/>
<path opacity="0.0297904" fill="none" d="M466.578+419.194L538.105+419.194L538.105+395.136L466.578+395.136L466.578+419.194Z"/>
<path d="M491.043+461.067C491.063+459.642+492.205+459.674+493.63+459.639L535.055+458.576C536.495+458.539+537.739+459.579+537.956+461.003C537.956+461.003+540.153+479.036+540.295+487.187L540.968+593.101C540.979+594.663+539.715+595.933+538.154+595.932L529.328+595.924C527.666+595.923+526.28+594.657+526.126+593.002L517.511+499.923C517.417+498.529+516.259+497.447+514.863+497.447C513.401+497.447+512.214+498.629+512.208+500.09L509.45+593.585C509.41+594.893+508.337+595.933+507.03+595.931L498.216+595.922C496.953+595.92+495.911+594.929+495.85+593.665L490.227+479.819C490.133+476.573+491.043+461.067+491.043+461.067" opacity="1" fill="#373449"/>
<path d="M533.433+364.932C533.484+364.753+533.564+364.58+533.645+364.413C534.483+362.635+535.596+360.849+535.269+358.797C535.041+357.358+534.14+356.187+533.064+355.247C531.797+354.138+531.114+353.212+530.861+351.47C530.641+349.956+530.655+348.346+529.898+347.017C529.365+346.081+528.5+345.382+527.609+344.778C525.24+343.171+522.385+342.08+519.498+342.075C517.964+342.072+516.784+342.681+515.343+342.944C514.485+343.102+513.998+342.726+513.136+342.535C512.344+342.36+511.536+342.258+510.725+342.238C508.879+342.192+507.049+342.576+505.35+343.289C501.771+344.789+497.014+348.334+496.043+352.315C495.698+353.734+495.855+355.266+495.324+356.626C494.272+359.326+491.081+359.796+489.194+361.73C487.995+362.958+487.215+364.734+487.616+366.403C487.839+367.328+488.402+368.158+488.521+369.102C488.634+370.02+488.313+370.937+487.896+371.762C486.857+373.827+485.154+375.765+485.277+378.072C485.329+379.042+485.711+379.965+486.163+380.825C491.699+391.371+506.193+392.601+516.664+391.194C523.013+390.34+529.699+388.466+534.768+384.391C536.797+382.759+538.615+380.62+539.008+378.046C539.701+373.522+536.134+369.788+533.818+366.322C533.609+366.01+533.393+365.675+533.383+365.299C533.38+365.174+533.4+365.052+533.433+364.932" fill="#373449" opacity="1"/>
<path fill="#f9dcd2" d="M524.025+362.819L524.768+362.865C526.487+362.97+527.795+364.448+527.69+366.166L527.5+369.277C527.395+370.996+525.917+372.303+524.198+372.199L522.853+372.117C522.771+372.133+522.694+372.161+522.611+372.172L521.09+392.845C520.198+397.283+516.602+400.314+512.865+399.779C508.856+399.206+506.209+394.771+507.018+389.982L507.102+385.749C501.531+385.408+495.221+380.133+495.933+373.177L497.369+359.141C497.446+358.381+497.688+357.682+498.036+357.05C503.469+361.749+507.195+354.457+510.477+354.137C518.018+353.407+521.357+356.174+522.999+362.82C523.155+363.448+524.013+362.854+524.025+362.819" opacity="1"/>
<path opacity="0.369995" d="M517.121+385.82L507.098+385.987L507.026+389.568L517.121+385.82Z" fill="#ef929c"/>
<path d="M507.026+389.568L517.121+389.568L517.121+385.819L507.026+385.819L507.026+389.568Z" fill="none" opacity="0.0506509"/>
<path opacity="1" fill="#373449" d="M509.647+347.294C508.725+348.346+508.243+350.072+508.421+351.434C508.937+355.397+513.454+355.825+515.996+357.941C517.136+358.89+518.002+360.283+517.953+361.763C517.866+364.428+515.016+366.292+514.633+368.932C514.318+371.1+516.261+372.227+516.665+374.18C516.978+375.7+516.044+377.164+515.228+378.484C514.334+379.933+512.957+380.815+513.143+382.733C513.276+384.101+514.174+385.317+515.326+386.065C516.478+386.813+517.858+387.141+519.227+387.26C521.862+387.49+524.481+387.261+527.066+386.735C531.64+385.802+536.843+382.608+538.96+378.3C541.55+373.027+532.537+366.745+533.416+364.922C534.295+363.099+537.479+358.769+532.972+355.226C528.915+352.037+533.569+350.851+528.305+345.297C526.035+342.903+518.16+337.589+509.647+347.294"/>
<path fill="#373449" d="M501.604+364.639C501.37+364.746+501.077+364.689+500.791+364.654C500.505+364.611+500.218+364.576+499.966+364.557C499.714+364.538+499.423+364.529+499.135+364.53C498.849+364.522+498.552+364.536+498.334+364.394C498.124+364.262+498.057+363.922+498.337+363.533C498.6+363.153+499.254+362.766+500.09+362.826C500.922+362.89+501.514+363.37+501.722+363.786C501.944+364.214+501.828+364.54+501.604+364.639" opacity="1"/>
<path fill="#373449" opacity="1" d="M511.558+365.247C511.324+365.355+511.032+365.297+510.746+365.261C510.459+365.219+510.172+365.184+509.92+365.165C509.669+365.146+509.378+365.138+509.089+365.138C508.803+365.13+508.506+365.144+508.289+365.002C508.079+364.871+508.011+364.53+508.291+364.14C508.555+363.76+509.208+363.373+510.044+363.434C510.876+363.499+511.469+363.979+511.677+364.394C511.899+364.822+511.782+365.147+511.558+365.247"/>
<path fill="#373449" d="M499.357+368.725L499.357+368.725C499.002+368.691+498.742+368.375+498.778+368.02L498.903+366.734C498.937+366.379+499.253+366.119+499.608+366.153C499.963+366.189+500.223+366.504+500.187+366.86L500.063+368.145C500.028+368.5+499.712+368.76+499.357+368.725" opacity="1"/>
<path fill="#373449" d="M508.997+369.661L508.997+369.661C508.641+369.626+508.381+369.31+508.417+368.955L508.541+367.669C508.577+367.314+508.892+367.055+509.247+367.089C509.602+367.124+509.862+367.439+509.827+367.795L509.703+369.08C509.667+369.435+509.352+369.695+508.997+369.661" opacity="1"/>
<path opacity="1" stroke-linejoin="round" stroke="#ef929c" d="M504.366+366.563L502.445+369.433C501.875+370.417+502.539+371.657+503.675+371.726L504.704+371.789" fill="none" stroke-width="1" stroke-linecap="round"/>
<path d="M508.464+377.52L505.963+377.367C505.375+377.331+504.928+376.827+504.964+376.239L505.116+373.746L511.043+374.108L510.969+375.302C510.89+376.607+509.769+377.6+508.464+377.52" fill="#373449" opacity="1"/>
<path fill="#ef929c" d="M508.464+377.52L508.333+377.512C507.747+377.476+507.311+376.76+507.335+376.384C507.414+375.076+510.969+375.302+510.969+375.302C510.89+376.607+509.769+377.6+508.464+377.52" opacity="1"/>
<g opacity="0.785095">
<path opacity="1" fill="#ffffff" d="M251.535+220.719L226.865+232.406L232.959+245.282C236.185+252.097+244.322+255.005+251.142+251.784C257.953+248.553+260.86+240.416+257.634+233.601L251.535+220.719Z"/>
<path opacity="1" d="M255.067+228.172L230.391+239.862L226.864+232.403L251.534+220.717L255.067+228.172Z" fill="#ff275d"/>
<path fill="#ffffff" opacity="1" d="M223.092+189.939C227.337+199.465+231.647+209.315+236.015+219.492C236.042+219.566+236.014+219.65+235.944+219.682C235.878+219.718+235.789+219.695+235.753+219.62C230.64+209.792+225.756+200.221+221.078+190.892C218.771+186.346+216.346+181.922+214.395+177.363C212.486+172.866+210.691+168.379+209.326+163.777C209.307+163.722+209.327+163.662+209.379+163.629C209.44+163.587+209.525+163.605+209.563+163.661C212.261+167.641+214.595+171.869+216.862+176.195C219.155+180.596+221.037+185.264+223.092+189.939M217.405+157.897L206.104+156.669L199.898+166.184L235.734+228.199L239.197+226.562L242.66+224.926L217.405+157.897Z"/>
<path fill="#ffffff" d="M227.945+160.644C229.686+164.799+231.018+169.115+232.407+173.48C233.756+177.912+234.778+182.5+235.927+187.115C238.303+196.525+240.69+206.204+243.083+216.168C243.097+216.227+243.067+216.286+243.008+216.299C242.944+216.317+242.884+216.287+242.871+216.228C239.873+206.412+237.018+196.854+234.297+187.535C232.942+182.967+231.496+178.501+230.413+173.998C229.398+169.536+228.362+165.144+227.749+160.692C227.743+160.653+227.767+160.607+227.812+160.588C227.866+160.569+227.922+160.594+227.945+160.644M233.669+152.521L224.202+149.727L217.404+157.893L242.658+224.923L247.888+222.448L233.669+152.521Z" opacity="1"/>
<path fill="#ffffff" d="M242.572+160.765C243.622+164.386+244.232+168.088+244.892+171.82C245.512+175.61+245.751+179.468+246.127+183.354C246.919+191.249+247.675+199.324+248.385+207.567C248.389+207.625+248.35+207.674+248.297+207.683C248.233+207.691+248.184+207.653+248.171+207.594C246.837+199.4+245.596+191.383+244.44+183.524C243.846+179.659+243.147+175.847+242.816+172.038C242.544+168.268+242.24+164.533+242.369+160.783C242.373+160.745+242.405+160.71+242.445+160.694C242.504+160.681+242.558+160.715+242.572+160.765M248.892+151.217L241.72+147.483L233.67+152.527L247.889+222.453L251.534+220.719L248.892+151.217Z" opacity="1"/>
<path d="M228.874+222.85C228.907+222.901+228.901+222.968+228.854+223.006C228.807+223.045+228.736+223.033+228.698+222.977C222.505+214.813+216.533+206.835+210.755+199.029C207.915+195.217+205.009+191.529+202.439+187.662C199.942+183.822+197.452+180.054+195.338+176.084C195.318+176.039+195.323+175.991+195.36+175.961C195.402+175.917+195.464+175.928+195.503+175.966C198.558+179.251+201.301+182.837+204.103+186.453C206.908+190.137+209.45+194.097+212.115+198.035C217.599+206.047+223.182+214.319+228.874+222.85M235.738+228.2L199.898+166.181L189.278+166.273L185.427+175.358L230.508+230.675L235.738+228.2Z" opacity="1" fill="#ffffff"/>
<path opacity="1" d="M218.839+221.478C218.873+221.52+218.876+221.587+218.839+221.627C218.8+221.676+218.733+221.679+218.685+221.631C212.755+215.855+206.99+210.162+201.387+204.537C198.615+201.788+195.784+199.148+193.244+196.278C190.773+193.395+188.296+190.579+186.164+187.471C186.138+187.439+186.133+187.391+186.166+187.356C186.204+187.307+186.267+187.299+186.312+187.332C189.29+189.597+191.984+192.209+194.732+194.812C197.47+197.476+199.967+200.434+202.585+203.336C207.928+209.217+213.347+215.255+218.839+221.478M230.503+230.674L185.426+175.362L176.427+178.397L174.775+186.307L226.863+232.403L230.503+230.674Z" fill="#ffffff"/>
</g>
<g opacity="0.785095">
<path fill="#ffffff" opacity="1" d="M198.027+268.152L193.344+282.641L200.904+285.087C204.906+286.381+209.197+284.187+210.495+280.186C211.786+276.184+209.592+271.893+205.591+270.598L198.027+268.152Z"/>
<path fill="#ff275d" d="M202.404+269.566L197.721+284.059L193.342+282.64L198.025+268.151L202.404+269.566Z" opacity="1"/>
<path opacity="1" d="M174.65+267.941C180.143+269.857+185.791+271.872+191.595+273.987C191.636+274.005+191.659+274.048+191.645+274.089C191.635+274.13+191.591+274.157+191.547+274.142C185.6+272.463+179.846+270.789+174.268+269.123C171.539+268.322+168.815+267.617+166.217+266.666C163.661+265.723+161.152+264.737+158.76+263.533C158.731+263.519+158.714+263.488+158.72+263.454C158.727+263.413+158.766+263.386+158.804+263.392C161.452+263.817+164.062+264.485+166.686+265.218C169.35+265.969+171.966+266.988+174.65+267.941M159.46+258.003L154.642+262.124L156.135+268.283L195.025+277.429L195.684+275.397L196.343+273.365L159.46+258.003Z" fill="#ffffff"/>
<path opacity="1" d="M164.605+254.771C166.958+255.652+169.221+256.761+171.525+257.865C173.841+259.011+176.095+260.35+178.409+261.647C183.14+264.279+187.985+267.009+192.947+269.845C192.976+269.862+192.989+269.897+192.971+269.926C192.954+269.959+192.919+269.972+192.89+269.955C187.757+267.42+182.782+264.927+177.957+262.47C175.583+261.274+173.216+260.155+170.973+258.873C168.772+257.58+166.592+256.322+164.549+254.869C164.531+254.857+164.522+254.83+164.531+254.804C164.544+254.775+164.576+254.762+164.605+254.771M163.493+249.341L158.739+252.119L159.458+258.002L196.341+273.364L197.334+270.294L163.493+249.341Z" fill="#ffffff"/>
<path fill="#ffffff" opacity="1" d="M170.245+248.875C172.117+249.833+173.854+251.001+175.622+252.159C177.399+253.356+179.058+254.733+180.78+256.066C184.291+258.762+187.859+261.542+191.479+264.404C191.504+264.425+191.51+264.459+191.493+264.484C191.472+264.513+191.438+264.518+191.409+264.501C187.57+261.911+183.839+259.351+180.204+256.816C178.408+255.58+176.592+254.407+174.918+253.085C173.282+251.755+171.649+250.451+170.175+248.965C170.161+248.949+170.159+248.922+170.168+248.9C170.185+248.871+170.219+248.862+170.245+248.875M168.782+242.659L164.524+244.145L163.495+249.343L197.337+270.295L198.026+268.152L168.782+242.659Z"/>
<path opacity="1" d="M190.23+278.172C190.263+278.178+190.288+278.206+190.286+278.24C190.283+278.274+190.252+278.298+190.214+278.292C184.53+277.687+179.007+277.064+173.627+276.427C170.993+276.124+168.384+275.894+165.831+275.46C163.316+275.007+160.834+274.578+158.413+273.919C158.387+273.91+158.37+273.89+158.371+273.863C158.37+273.829+158.398+273.808+158.428+273.807C160.931+273.822+163.436+274.078+165.976+274.322C168.544+274.591+171.125+275.072+173.743+275.495C179.094+276.329+184.588+277.223+190.23+278.172M195.027+277.428L156.133+268.281L152.111+272.631L154.33+277.668L194.033+280.499L195.027+277.428Z" fill="#ffffff"/>
<path fill="#ffffff" d="M185.837+281.724C185.867+281.726+185.895+281.751+185.897+281.781C185.902+281.815+185.878+281.844+185.84+281.845C181.227+282.046+176.711+282.212+172.284+282.338C170.107+282.413+167.953+282.554+165.816+282.489C163.701+282.391+161.61+282.321+159.532+281.998C159.509+281.997+159.488+281.98+159.486+281.954C159.481+281.919+159.502+281.891+159.532+281.885C161.591+281.541+163.682+281.445+165.79+281.324C167.918+281.23+170.074+281.346+172.254+281.392C176.685+281.47+181.21+281.576+185.837+281.724M194.031+280.501L154.331+277.67L152.124+282.486L154.706+286.18L193.342+282.641L194.031+280.501Z" opacity="1"/>
</g>
<g opacity="0.785095">
<path d="M444.429+196.908L429.465+194.094L427.994+201.903C427.215+206.036+429.934+210.016+434.067+210.798C438.2+211.573+442.18+208.854+442.958+204.721L444.429+196.908Z" opacity="1" fill="#ffffff"/>
<path fill="#ff275d" opacity="1" d="M443.58+201.429L428.611+198.615L429.465+194.092L444.429+196.907L443.58+201.429Z"/>
<path d="M441.684+173.692C440.477+179.383+439.193+185.241+437.828+191.266C437.815+191.308+437.775+191.337+437.733+191.328C437.692+191.323+437.659+191.284+437.668+191.238C438.582+185.126+439.516+179.206+440.463+173.463C440.912+170.655+441.268+167.863+441.883+165.166C442.496+162.511+443.156+159.898+444.049+157.373C444.058+157.342+444.087+157.322+444.122+157.324C444.163+157.325+444.195+157.361+444.194+157.399C444.107+160.08+443.774+162.752+443.379+165.448C442.971+168.186+442.29+170.909+441.684+173.692M449.623+157.368L444.925+153.109L439.005+155.369L434.847+195.103L436.946+195.5L439.045+195.897L449.623+157.368Z" opacity="1" fill="#ffffff"/>
<path d="M453.479+162.064C452.902+164.51+452.088+166.894+451.284+169.319C450.44+171.762+449.397+174.167+448.402+176.626C446.39+181.651+444.294+186.802+442.107+192.083C442.094+192.114+442.061+192.131+442.03+192.118C441.995+192.105+441.978+192.072+441.991+192.041C443.857+186.628+445.702+181.379+447.529+176.281C448.415+173.776+449.227+171.286+450.214+168.899C451.219+166.553+452.191+164.231+453.374+162.021C453.384+162.001+453.41+161.989+453.437+161.995C453.468+162.004+453.484+162.033+453.479+162.064M458.725+160.274L455.368+155.91L449.623+157.366L439.045+195.895L442.217+196.492L458.725+160.274Z" fill="#ffffff" opacity="1"/>
<path d="M460.04+166.913C459.327+168.892+458.388+170.763+457.462+172.663C456.5+174.577+455.343+176.396+454.239+178.273C452.008+182.096+449.701+185.987+447.319+189.94C447.302+189.967+447.269+189.977+447.242+189.963C447.21+189.946+447.201+189.913+447.214+189.882C449.298+185.747+451.367+181.722+453.422+177.797C454.421+175.858+455.355+173.908+456.454+172.081C457.568+170.29+458.655+168.505+459.942+166.855C459.956+166.839+459.983+166.834+460.006+166.84C460.037+166.853+460.05+166.886+460.04+166.913M466.022+164.677L464.01+160.64L458.723+160.277L442.215+196.495L444.429+196.908L466.022+164.677Z" opacity="1" fill="#ffffff"/>
<path fill="#ffffff" d="M433.504+190.44C433.502+190.474+433.477+190.502+433.444+190.504C433.41+190.506+433.382+190.478+433.383+190.44C433.264+184.725+433.185+179.167+433.137+173.75C433.105+171.099+433.003+168.482+433.11+165.894C433.243+163.343+433.354+160.826+433.702+158.341C433.708+158.314+433.726+158.294+433.752+158.293C433.786+158.287+433.81+158.312+433.815+158.342C434.117+160.826+434.179+163.344+434.258+165.894C434.316+168.476+434.165+171.097+434.076+173.748C433.924+179.161+433.732+184.724+433.504+190.44M434.848+195.105L439.006+155.367L434.183+151.927L429.467+154.764L431.676+194.507L434.848+195.105Z" opacity="1"/>
<path d="M429.425+186.531C429.427+186.561+429.406+186.593+429.376+186.598C429.343+186.608+429.312+186.587+429.306+186.55C428.523+181.999+427.788+177.54+427.103+173.165C426.754+171.015+426.341+168.896+426.137+166.768C425.966+164.657+425.772+162.574+425.829+160.472C425.827+160.45+425.841+160.426+425.867+160.421C425.901+160.411+425.932+160.428+425.941+160.458C426.542+162.457+426.902+164.519+427.289+166.594C427.651+168.694+427.808+170.847+428.038+173.015C428.521+177.421+428.987+181.923+429.425+186.531M431.674+194.505L429.466+154.766L424.409+153.185L421.071+156.213L429.464+194.092L431.674+194.505Z" opacity="1" fill="#ffffff"/>
</g>
</g>
</svg>
