<?xml version="1.0" encoding="UTF-8" standalone="no"?> <!-- Created with Vectornator for iOS (http://vectornator.io/) --><!DOCTYPE svg PUBLIC "-//W3C//DTD SVG 1.1//EN" "http://www.w3.org/Graphics/SVG/1.1/DTD/svg11.dtd">
<svg xml:space="preserve" xmlns="http://www.w3.org/2000/svg" xmlns:xlink="http://www.w3.org/1999/xlink" style="fill-rule:nonzero;clip-rule:evenodd;stroke-linecap:round;stroke-linejoin:round;" version="1.1" width="100%" xmlns:vectornator="http://vectornator.io" viewBox="0 0 720 720" height="100%">
<metadata>
<vectornator:setting key="VNDimensionsVisible" value="true"/>
<vectornator:setting key="VNSnapToGuides" value="true"/>
<vectornator:setting key="WDGuidesVisible" value="true"/>
<vectornator:setting value="Pixels" key="WDUnits"/>
<vectornator:setting key="WDSnapToEdges" value="false"/>
<vectornator:setting value="false" key="WDIsolateActiveLayer"/>
<vectornator:setting value="false" key="WDCMYKEnabledKey"/>
<vectornator:setting key="VNPencilOnly" value="false"/>
<vectornator:setting value="false" key="UndoHistoryDisabled"/>
<vectornator:setting key="WDDynamicGuides" value="false"/>
<vectornator:setting value="false" key="WDOutlineMode"/>
<vectornator:setting value="false" key="WDDisplayWhiteBackground"/>
<vectornator:setting key="WDRulersVisible" value="true"/>
<vectornator:setting key="IsTimeLapseWatermarkDisabled" value="false"/>
<vectornator:setting key="WDSnapToPoints" value="false"/>
<vectornator:setting key="WDSnapToGrid" value="false"/>
</metadata>
<defs/>
<g vectornator:layerName="Layer 2" id="Layer 2">
<path d="M569.366+111.987C621.716+159.974+628.696+261.183+609.937+361.956C590.742+462.293+545.373+561.321+469.902+597.53C394.431+633.738+288.859+606.691+212.08+555.65C135.737+505.045+88.6218+430.011+71.1719+349.741C53.722+269.036+65.937+182.659+112.615+135.98C159.294+89.3018+240.436+82.3219+329.867+75.7782C419.297+69.6707+517.017+63.9995+569.366+111.987Z" opacity="1" fill="#fbebc7"/>
</g>
<g id="Layer 1" vectornator:layerName="Layer 1">
<g opacity="1">
<path d="M523.835+606.634C523.653+599.967+524.01+592.997+524.539+586.169C524.806+582.74+525.126+579.312+525.545+575.891C525.893+572.463+526.39+569.051+526.883+565.638C528.873+551.985+531.693+538.448+535.042+525.034C536.914+518.382+538.567+511.661+540.729+505.089C541.771+501.791+542.75+498.473+543.845+495.19L547.277+485.394L548.993+480.494L550.885+475.659L554.673+465.988C557.29+459.577+560.162+453.271+562.895+446.903L562.916+446.86C563.138+446.339+562.897+445.736+562.377+445.512C561.864+445.292+561.27+445.525+561.04+446.03C558.165+452.364+555.15+458.639+552.388+465.029L548.38+474.672L546.379+479.495L544.551+484.387L540.895+494.175C539.726+497.457+538.669+500.777+537.552+504.076C535.24+510.655+533.433+517.391+531.409+524.065C527.753+537.523+524.621+551.139+522.322+564.927C521.753+568.374+521.177+571.823+520.753+575.296C520.256+578.757+519.859+582.235+519.515+585.72C518.836+592.722+518.319+599.632+518.368+606.849C518.378+608.361+519.611+609.576+521.123+609.566C522.632+609.555+523.849+608.324+523.838+606.811C523.838+606.8+523.838+606.785+523.838+606.771L523.835+606.634Z" opacity="1" fill="#29739e"/>
<path fill="#29739e" opacity="1" d="M553.499+465.523C553.499+465.523+550.894+460.549+552.28+449.72C553.668+438.892+544.754+432.932+536.611+434.981C528.468+437.026+526.609+448.235+530.133+454.256C533.659+460.277+543.13+466.253+552.55+467.529C553.983+467.751+553.499+465.523+553.499+465.523"/>
<path opacity="1" fill="#29739e" d="M539.519+499.697C539.519+499.697+536.914+494.723+538.302+483.895C539.688+473.066+530.774+467.106+522.631+469.153C514.488+471.2+512.629+482.409+516.155+488.43C519.679+494.451+529.151+500.427+538.57+501.704C540.003+501.925+539.519+499.697+539.519+499.697"/>
<path fill="#29739e" opacity="1" d="M530.28+535.64C530.28+535.64+526.73+531.29+525.917+520.402C525.103+509.516+515.175+505.466+507.608+509.106C500.04+512.745+500.469+524.097+505.13+529.29C509.791+534.481+520.269+538.435+529.753+537.796C531.201+537.726+530.28+535.64+530.28+535.64"/>
<path fill="#29739e" d="M523.209+571.069C523.209+571.069+519.659+566.717+518.846+555.831C518.032+544.945+508.104+540.895+500.537+544.533C492.971+548.173+493.398+559.525+498.059+564.718C502.72+569.908+513.198+573.863+522.682+573.225C524.13+573.154+523.209+571.069+523.209+571.069" opacity="1"/>
<path opacity="1" d="M527.653+555.4C527.653+555.4+532.467+552.506+536.915+542.538C541.364+532.568+552.075+532.116+557.966+538.1C563.855+544.084+559.612+554.625+553.469+557.932C547.326+561.241+536.129+561.417+527.42+557.607C526.081+557.051+527.653+555.4+527.653+555.4" fill="#29739e"/>
<path opacity="1" fill="#29739e" d="M536.789+513.644C536.789+513.644+542.026+511.617+548.116+502.557C554.206+493.496+564.836+494.885+569.615+501.788C574.393+508.692+568.409+518.35+561.79+520.557C555.172+522.766+544.109+521.023+536.182+515.779C534.958+515.001+536.789+513.644+536.789+513.644"/>
<path opacity="1" fill="#29739e" d="M548.113+479.424C548.113+479.424+553.349+477.397+559.439+468.337C565.529+459.276+576.16+460.665+580.938+467.569C585.716+474.474+579.732+484.13+573.113+486.339C566.496+488.547+555.433+486.804+547.505+481.559C546.282+480.781+548.113+479.424+548.113+479.424"/>
<path d="M560.477+446.516C560.477+446.516+563.353+441.691+562.565+430.803C561.779+419.914+571.008+414.457+579.025+416.949C587.042+419.443+588.28+430.737+584.428+436.556C580.575+442.373+570.791+447.816+561.315+448.57C559.871+448.712+560.477+446.516+560.477+446.516" opacity="1" fill="#29739e"/>
</g>
</g>
<g vectornator:layerName="Piggy" id="Piggy">
<g opacity="1">
<path d="M210.142+617.531C210.142+625.349+191.479+631.685+168.455+631.685C145.434+631.685+126.771+625.349+126.771+617.531C126.771+609.713+145.434+603.376+168.455+603.376C191.479+603.376+210.142+609.713+210.142+617.531" opacity="1" fill="#7ecbaf"/>
<path opacity="1" fill="#7ecbaf" d="M503.121+604.868C503.121+622.84+428.558+637.412+336.58+637.412C244.604+637.412+170.041+622.84+170.041+604.868C170.041+586.894+244.604+572.323+336.58+572.323C428.558+572.323+503.121+586.894+503.121+604.868"/>
<path opacity="1" d="M550.548+602.772C550.548+610.59+531.884+616.926+508.861+616.926C485.84+616.926+467.176+610.59+467.176+602.772C467.176+594.955+485.84+588.619+508.861+588.619C531.884+588.619+550.548+594.955+550.548+602.772" fill="#7ecbaf"/>
<path d="M282.96+351.07C282.96+351.07+270.6+302.92+216.829+318.553C216.829+318.553+244.553+326.015+234.752+353.572C234.752+353.572+223.01+370.455+235.988+382.962C235.988+382.962+268.744+386.089+282.96+351.07" opacity="1" fill="#fe8579"/>
<path d="M234.752+353.572C234.752+353.572+223.009+370.456+235.989+382.962C235.989+382.962+245.518+383.861+256.525+379.206C262.118+311.454+216.828+318.553+216.828+318.553C216.828+318.553+244.554+326.014+234.752+353.572" fill="#dc6d64" opacity="1"/>
<path fill="#8adfc1" opacity="1" d="M241.78+314.318L236.358+314.318C246.219+317.95+249.042+329.521+249.042+329.521C249.797+317.075+241.78+314.318+241.78+314.318"/>
<path d="M300.555+593.229L300.607+592.89L300.607+592.889L305.419+561.662L251.874+538.609L241.343+606.036L289.363+606.036C298.09+606.036+300.236+595.211+300.555+593.229" fill="#fe8579" opacity="1"/>
<path opacity="1" fill="#dc6d64" d="M246.943+570.186C263.215+580.456+281.414+587.873+300.727+592.117L305.418+561.662L251.876+538.609L246.943+570.186Z"/>
<path d="M421.06+593.229L421.114+592.89L421.114+592.889L429.71+538.609L372.381+538.609L361.849+606.036L409.87+606.036C418.596+606.036+420.741+595.211+421.06+593.229" fill="#fe8579" opacity="1"/>
<path fill="#dc6d64" d="M363.617+594.724C385.129+591.879+405.589+585.216+423.929+575.121L429.71+538.609L372.381+538.609L363.617+594.724Z" opacity="1"/>
<path d="M235.863+493.604C235.863+501.567+229.482+508.023+221.61+508.023L184.293+508.023C176.422+508.023+170.041+501.567+170.041+493.604L170.041+452.999C170.041+445.037+176.422+438.58+184.293+438.58L221.61+438.58C229.482+438.58+235.863+445.037+235.863+452.999L235.863+493.604Z" fill="#ff9a87" opacity="1"/>
<path opacity="1" d="M170.041+479.757L170.041+493.604C170.041+501.569+176.422+508.023+184.294+508.023L221.611+508.023C229.482+508.023+235.863+501.569+235.863+493.604L235.863+479.757L170.041+479.757Z" fill="#fe8579"/>
<path fill="#ff9a87" d="M429.613+593.229L429.665+592.89L429.665+592.889L438.261+538.609L380.933+538.609L370.402+606.036L418.421+606.036C427.147+606.036+429.292+595.211+429.613+593.229" opacity="1"/>
<path fill="#ff9a87" opacity="1" d="M309.107+593.229L309.159+592.89L309.159+592.889L313.97+561.662L260.426+538.609L249.894+606.036L297.915+606.036C306.642+606.036+308.787+595.211+309.107+593.229"/>
<path d="M255.495+570.186C271.765+580.456+289.966+587.873+309.279+592.117L313.97+561.662L260.428+538.609L255.495+570.186Z" opacity="1" fill="#fe8579"/>
<path d="M372.168+594.724C393.682+591.879+414.14+585.216+432.48+575.121L438.261+538.609L380.933+538.609L372.168+594.724Z" fill="#fe8579" opacity="1"/>
<path d="M493.367+455.701C493.367+525.39+428.354+581.883+348.159+581.883C267.963+581.883+202.953+525.39+202.953+455.701C202.953+386.014+267.963+329.522+348.159+329.522C428.354+329.522+493.367+386.014+493.367+455.701" opacity="1" fill="#ff9a87"/>
<path d="M387.062+354.744C386.582+354.744+386.095+354.683+385.608+354.554C373.527+351.34+360.928+349.71+348.159+349.71C337.549+349.712+327.007+350.843+316.825+353.072C313.746+353.739+310.713+351.767+310.047+348.655C309.38+345.54+311.337+342.47+314.414+341.796C325.385+339.394+336.739+338.173+348.159+338.173C361.907+338.173+375.482+339.931+388.509+343.396C391.552+344.207+393.373+347.361+392.572+350.441C391.9+353.03+389.59+354.744+387.062+354.744" opacity="1" fill="#812c2c"/>
<path d="M316.825+353.072C327.006+350.842+337.549+349.711+348.16+349.71C360.927+349.71+373.528+351.34+385.607+354.554C386.094+354.683+386.581+354.744+387.063+354.744C389.133+354.744+391.043+353.581+392.04+351.74C391.314+350.408+390.079+349.361+388.508+348.943C375.481+345.479+361.906+343.72+348.16+343.72L348.158+343.72C336.739+343.721+325.386+344.939+314.414+347.342C312.738+347.71+311.417+348.797+310.65+350.204C311.833+352.377+314.303+353.619+316.825+353.072" fill="#501919" opacity="1"/>
<path d="M276.781+345.803L274.154+365.024C274.154+365.024+301.293+357.782+307.914+334.435C296.947+337.179+286.516+341.019+276.781+345.803" fill="#fe8579" opacity="1"/>
<path d="M471.522+412.959C474.402+422.461+475.938+432.423+475.938+442.686C475.938+507.971+413.886+561.086+337.613+561.086C308.064+561.086+280.654+553.109+258.156+539.547C281.867+558.211+313.483+569.625+348.159+569.625C421.546+569.625+481.252+518.52+481.252+455.7C481.252+440.592+477.789+426.165+471.522+412.959" fill="#fe8579" opacity="1"/>
<path opacity="1" d="M506.609+408.796C507.768+417.073+512.523+424.829+512.586+424.934L512.794+425.306C514.912+429.595+517.909+429.351+519.747+428.654C520.704+427.787+520.889+427.035+520.939+426.525C521.155+424.339+519.235+421.567+518.749+421.001L518.43+420.58C514.764+415.057+510.807+411.12+506.609+408.796M517.785+437.65C513.363+437.65+508.389+435.581+505.238+429.36C504.269+427.761+498.219+417.353+497.839+406.314C483.809+405.827+471.387+420.779+471.261+420.932C469.75+422.766+467.057+423.019+465.242+421.493C463.428+419.967+463.175+417.246+464.681+415.408C465.303+414.645+480.198+396.747+498.626+397.686C498.715+397.691+498.801+397.697+498.888+397.701C500.549+392.228+504.081+387.904+509.397+384.831L509.526+384.761C510.113+384.445+524.117+377.139+538.924+383.062C549.732+387.386+557.893+397.441+563.184+412.942C563.954+415.2+562.77+417.663+560.537+418.444C558.305+419.223+555.87+418.023+555.1+415.766C550.677+402.8+544.203+394.515+535.858+391.139C525.151+386.807+514.41+391.965+513.551+392.393C510.44+394.215+508.379+396.57+507.29+399.561C513.976+402.198+520.04+407.551+525.402+415.564C526.38+416.775+530.014+421.698+529.446+427.394C529.118+430.692+527.437+433.609+524.588+435.827L524.235+436.099L523.84+436.294C522.183+437.105+520.056+437.65+517.785+437.65" fill="#ff9a87"/>
<path opacity="1" fill="#812c2c" d="M259.593+412.252C259.593+421.599+255.25+429.178+249.895+429.178C244.538+429.178+240.196+421.599+240.196+412.252C240.196+402.905+244.538+395.325+249.895+395.325C255.25+395.325+259.593+402.905+259.593+412.252"/>
<path opacity="1" fill="#ff9a87" d="M295.196+339.584C295.196+339.584+282.835+291.434+229.065+307.067C229.065+307.067+256.789+314.529+246.987+342.087C246.987+342.087+235.244+358.969+248.224+371.478C248.224+371.478+280.98+374.604+295.196+339.584"/>
<path d="M246.988+342.086C246.988+342.086+235.245+358.97+248.224+371.478C248.224+371.478+257.754+372.377+268.761+367.72C274.354+299.968+229.064+307.067+229.064+307.067C229.064+307.067+256.79+314.529+246.988+342.086" opacity="1" fill="#fe8579"/>
<path d="M270.94+446.121C270.94+450.287+267.604+453.664+263.487+453.664L236.302+453.664C232.187+453.664+228.849+450.287+228.849+446.121C228.849+441.958+232.187+438.581+236.302+438.581L263.487+438.581C267.604+438.581+270.94+441.958+270.94+446.121" opacity="1" fill="#fe8579"/>
<path d="M387.492+281.767C387.492+301.965+371.306+318.34+351.344+318.34C331.38+318.34+315.197+301.965+315.197+281.767C315.197+261.569+331.38+245.194+351.344+245.194C371.306+245.194+387.492+261.569+387.492+281.767" fill="#ffdb00" opacity="1"/>
<path fill="#ffb000" opacity="1" d="M371.421+283.777C371.421+294.996+362.434+304.092+351.344+304.092C340.257+304.092+331.266+294.996+331.266+283.777C331.266+272.558+340.257+263.464+351.344+263.464C362.434+263.464+371.421+272.558+371.421+283.777"/>
<path opacity="1" d="M351.344+315.151C334.556+315.151+320.898+301.333+320.898+284.347C320.898+267.362+334.556+253.542+351.344+253.542C368.132+253.542+381.79+267.362+381.79+284.347C381.79+301.333+368.132+315.151+351.344+315.151M351.344+247.775C332.047+247.775+316.287+263.074+315.253+282.336C316.287+301.599+332.047+316.898+351.344+316.898C370.639+316.898+386.403+301.599+387.434+282.336C386.403+263.074+370.639+247.775+351.344+247.775" fill="#e69000"/>
<path fill="#ffb000" d="M351.344+245.195C331.381+245.195+315.197+261.569+315.197+281.767C315.197+301.966+331.381+318.339+351.344+318.339C371.306+318.339+387.491+301.966+387.491+281.767C387.491+261.569+371.306+245.195+351.344+245.195M351.344+250.963C368.132+250.963+381.79+264.782+381.79+281.767C381.79+298.753+368.132+312.572+351.344+312.572C334.556+312.572+320.898+298.753+320.898+281.767C320.898+264.782+334.556+250.963+351.344+250.963" opacity="1"/>
<path d="M357.026+184.879C357.026+205.078+340.842+221.452+320.879+221.452C300.916+221.452+284.733+205.078+284.733+184.879C284.733+164.681+300.916+148.306+320.879+148.306C340.842+148.306+357.026+164.681+357.026+184.879" opacity="1" fill="#ffdb00"/>
<path opacity="1" d="M340.957+186.89C340.957+198.109+331.968+207.205+320.879+207.205C309.791+207.205+300.802+198.109+300.802+186.89C300.802+175.671+309.791+166.576+320.879+166.576C331.968+166.576+340.957+175.671+340.957+186.89" fill="#ffb000"/>
<path opacity="1" fill="#e69000" d="M320.879+218.264C304.091+218.264+290.433+204.445+290.433+187.459C290.433+170.475+304.091+156.655+320.879+156.655C337.668+156.655+351.325+170.475+351.325+187.459C351.325+204.445+337.668+218.264+320.879+218.264M320.879+150.888C301.584+150.888+285.822+166.187+284.788+185.448C285.822+204.712+301.584+220.011+320.879+220.011C340.176+220.011+355.938+204.712+356.97+185.448C355.938+166.187+340.176+150.888+320.879+150.888"/>
<path fill="#ffb000" opacity="1" d="M320.879+148.307C300.916+148.307+284.732+164.682+284.732+184.88C284.732+205.078+300.916+221.451+320.879+221.451C340.842+221.451+357.026+205.078+357.026+184.88C357.026+164.682+340.842+148.307+320.879+148.307M320.879+154.075C337.668+154.075+351.325+167.894+351.325+184.88C351.325+201.866+337.668+215.684+320.879+215.684C304.091+215.684+290.433+201.866+290.433+184.88C290.433+167.894+304.091+154.075+320.879+154.075"/>
<path d="M423.639+111.735C423.639+131.933+407.453+148.307+387.492+148.307C367.527+148.307+351.345+131.933+351.345+111.735C351.345+91.5363+367.527+75.1617+387.492+75.1617C407.453+75.1617+423.639+91.5363+423.639+111.735" opacity="1" fill="#ffdb00"/>
<path fill="#ffb000" d="M407.568+113.745C407.568+124.964+398.581+134.06+387.491+134.06C376.402+134.06+367.414+124.964+367.414+113.745C367.414+102.526+376.402+93.4314+387.491+93.4314C398.581+93.4314+407.568+102.526+407.568+113.745" opacity="1"/>
<path d="M387.492+145.119C370.703+145.119+357.044+131.3+357.044+114.314C357.044+97.3297+370.703+83.5096+387.492+83.5096C404.28+83.5096+417.938+97.3297+417.938+114.314C417.938+131.3+404.28+145.119+387.492+145.119M387.492+77.7428C368.196+77.7428+352.433+93.0417+351.401+112.303C352.433+131.567+368.196+146.866+387.492+146.866C406.787+146.866+422.55+131.567+423.581+112.303C422.55+93.0417+406.787+77.7428+387.492+77.7428" opacity="1" fill="#e69000"/>
<path opacity="1" d="M387.492+75.1621C367.528+75.1621+351.344+91.5368+351.344+111.735C351.344+131.933+367.528+148.306+387.492+148.306C407.453+148.306+423.639+131.933+423.639+111.735C423.639+91.5368+407.453+75.1621+387.492+75.1621M387.492+80.9305C404.28+80.9305+417.938+94.7491+417.938+111.735C417.938+128.721+404.28+142.54+387.492+142.54C370.703+142.54+357.044+128.721+357.044+111.735C357.044+94.7491+370.703+80.9305+387.492+80.9305" fill="#ffb000"/>
<path opacity="1" d="M260.623+104.158L257.002+93.4306L253.382+104.158L242.78+107.822L253.382+111.485L257.002+122.211L260.623+111.485L271.226+107.822L260.623+104.158Z" fill="#ffffff"/>
<path opacity="1" fill="#ffffff" d="M431.441+211.624L427.82+200.897L424.2+211.624L413.597+215.288L424.2+218.951L427.82+229.677L431.441+218.951L442.044+215.288L431.441+211.624Z"/>
<path d="M277.774+264.284L274.153+253.556L270.534+264.284L259.931+267.945L270.534+271.609L274.153+282.336L277.774+271.609L288.377+267.945L277.774+264.284Z" opacity="1" fill="#ffffff"/>
<path d="M405.846+305.243L403.189+297.377L400.535+305.243L392.761+307.93L400.535+310.615L403.189+318.482L405.846+310.615L413.622+307.93L405.846+305.243Z" opacity="1" fill="#ffffff"/>
<path fill="#ffffff" d="M251.806+184.204L249.151+176.338L246.497+184.204L238.721+186.89L246.497+189.576L249.151+197.442L251.806+189.576L259.582+186.89L251.806+184.204Z" opacity="1"/>
<path fill="#ffffff" d="M323.534+72.4765L320.879+64.6106L318.223+72.4765L310.449+75.1614L318.223+77.8478L320.879+85.7153L323.534+77.8478L331.31+75.1614L323.534+72.4765Z" opacity="1"/>
<path opacity="1" d="M447.244+72.4765L444.589+64.6106L441.934+72.4765L434.159+75.1614L441.934+77.8478L444.589+85.7153L447.244+77.8478L455.02+75.1614L447.244+72.4765Z" fill="#ffffff"/>
<path fill="#e69000" d="M564.623+599.051C564.623+606.867+545.959+613.204+522.936+613.204C499.915+613.204+481.252+606.867+481.252+599.051L481.252+590.398L564.623+590.398L564.623+599.051Z" opacity="1"/>
<path fill="#ffdb00" opacity="1" d="M564.623+590.398C564.623+598.216+545.959+604.552+522.936+604.552C499.915+604.552+481.252+598.216+481.252+590.398C481.252+582.581+499.915+576.245+522.936+576.245C545.959+576.245+564.623+582.581+564.623+590.398"/>
<path d="M551.053+598.158C543.607+600.686+533.622+602.079+522.936+602.079C512.252+602.079+502.268+600.686+494.821+598.158C487.799+595.775+485.527+593.148+485.527+592.252C485.527+591.355+487.799+588.728+494.821+586.343C502.268+583.817+512.252+582.424+522.936+582.424C533.622+582.424+543.607+583.817+551.053+586.343C558.075+588.728+560.347+591.355+560.347+592.252C560.347+593.148+558.075+595.775+551.053+598.158M522.936+578.097C500.832+578.097+482.758+583.941+481.351+591.325C482.758+598.71+500.832+604.553+522.936+604.553C545.042+604.553+563.116+598.71+564.524+591.325C563.116+583.941+545.042+578.097+522.936+578.097" fill="#e69000" opacity="1"/>
<path d="M522.936+576.245C499.915+576.245+481.253+582.581+481.253+590.397C481.253+598.215+499.915+604.553+522.936+604.553C545.96+604.553+564.623+598.215+564.623+590.397C564.623+582.581+545.96+576.245+522.936+576.245M522.936+580.57C533.622+580.57+543.607+581.962+551.052+584.491C558.075+586.875+560.348+589.501+560.348+590.397C560.348+591.295+558.075+593.921+551.052+596.307C543.607+598.833+533.622+600.226+522.936+600.226C512.252+600.226+502.268+598.833+494.822+596.307C487.799+593.921+485.527+591.295+485.527+590.397C485.527+589.501+487.799+586.875+494.822+584.491C502.268+581.962+512.252+580.57+522.936+580.57" opacity="1" fill="#ffb000"/>
<path opacity="1" d="M522.936+584.896C538.522+584.896+549.392+587.929+554.122+590.398C549.392+592.867+538.522+595.901+522.936+595.901C507.353+595.901+496.484+592.867+491.752+590.398C496.484+587.929+507.353+584.896+522.936+584.896" fill="#ffb000"/>
<path d="M229.065+617.531C229.065+625.349+210.402+631.685+187.378+631.685C164.357+631.685+145.694+625.349+145.694+617.531L145.694+608.88L229.065+608.88L229.065+617.531Z" opacity="1" fill="#e69000"/>
<path d="M229.065+608.879C229.065+616.695+210.402+623.032+187.378+623.032C164.357+623.032+145.694+616.695+145.694+608.879C145.694+601.061+164.357+594.725+187.378+594.725C210.402+594.725+229.065+601.061+229.065+608.879" opacity="1" fill="#ffdb00"/>
<path opacity="1" d="M215.494+616.64C208.049+619.167+198.063+620.559+187.378+620.559C176.693+620.559+166.71+619.167+159.262+616.64C152.24+614.254+149.969+611.628+149.969+610.732C149.969+609.834+152.24+607.208+159.262+604.824C166.71+602.297+176.693+600.903+187.378+600.903C198.063+600.903+208.049+602.297+215.494+604.824C222.518+607.208+224.789+609.834+224.789+610.732C224.789+611.628+222.518+614.254+215.494+616.64M187.378+596.578C165.273+596.578+147.2+602.421+145.793+609.804C147.2+617.189+165.273+623.033+187.378+623.033C209.484+623.033+227.559+617.189+228.965+609.804C227.559+602.421+209.484+596.578+187.378+596.578" fill="#e69000"/>
<path fill="#ffb000" d="M187.378+594.724C164.357+594.724+145.694+601.061+145.694+608.879C145.694+616.695+164.357+623.033+187.378+623.033C210.402+623.033+229.065+616.695+229.065+608.879C229.065+601.061+210.402+594.724+187.378+594.724M187.378+599.051C198.062+599.051+208.047+600.443+215.495+602.971C222.517+605.356+224.79+607.983+224.79+608.879C224.79+609.776+222.517+612.403+215.495+614.786C208.047+617.314+198.062+618.707+187.378+618.707C176.694+618.707+166.708+617.314+159.263+614.786C152.241+612.403+149.969+609.776+149.969+608.879C149.969+607.983+152.241+605.356+159.263+602.971C166.708+600.443+176.694+599.051+187.378+599.051" opacity="1"/>
<path d="M187.378+603.376C202.964+603.376+213.835+606.409+218.563+608.879C213.835+611.347+202.964+614.381+187.378+614.381C171.794+614.381+160.924+611.347+156.194+608.879C160.924+606.409+171.794+603.376+187.378+603.376" opacity="1" fill="#ffb000"/>
<path fill="#dc6d64" d="M345.67+409.943L345.67+403.317L357.009+403.317L357.009+409.943C366.834+411.983+371.874+419.633+371.874+431.742L371.874+434.545L358.771+434.545L358.771+430.846C358.771+424.475+356.251+422.053+351.842+422.053C347.432+422.053+344.915+424.475+344.915+430.846C344.915+449.204+371.998+450.096+371.998+475.587C371.998+487.696+366.834+495.471+357.009+497.512L357.009+504.011L345.67+504.011L345.67+497.512C335.718+495.471+330.678+487.696+330.678+475.587L330.678+469.468L343.781+469.468L343.781+476.479C343.781+482.851+346.551+485.148+350.96+485.148C355.37+485.148+358.142+482.851+358.142+476.479C358.142+458.123+331.056+457.234+331.056+431.742C331.056+419.759+335.969+412.111+345.67+409.943" opacity="1"/>
</g>
</g>
</svg>
